<svg xmlns="http://www.w3.org/2000/svg" width="2720" height="512" viewBox="0 0 2720 512"><path fill="#573313" d="M966.8 129v7.1q-11.3.4-17.3 2.8-6 2.2-8 8.5-1.8 6-1.8 19v175.2q0 12.7 2 19.1 2.2 6.4 7.8 8.5 6 2 17.3 2.8v7q-9.1-.6-23.3-.6-14-.4-28.6-.4-15.9 0-30 .4-13.8 0-22.2.7V372q12-.7 18-2.8 6.3-2.1 8.5-8.5 2-6.4 2-19V149.4l2.5.4-87.5 230.2h-5.7l-93.2-228.4v175.1q0 17 2.1 26.5 2.1 9.2 9.2 13.4 7.4 3.9 22.3 5.3v7q-6.8-.6-17.3-.6-10.6-.4-20.2-.4-8.4 0-17.3.4-8.5 0-14.1.7V372q11.7-1.4 17.3-5.3 6-3.9 7.8-12.7 2-8.8 2-24.4V166.5q0-13-2-19-1.8-6.4-7.8-8.6-5.6-2.4-17.3-2.8v-7l14.1.7q8.9.3 17.3.3 13.1 0 25.4-.3l22-.7 75.9 189.6-7.8 6.3 73.8-194.9h22.2q14.5 0 28.6-.3l23.3-.7zm137.8-1 85.8 221.4q5.3 12.7 11.3 17.7 6.3 4.6 11.6 4.9v7q-9.2-.6-22.2-.6-12.7-.4-26.2-.4-15.5 0-29 .4-13.3 0-21.8.7V372q18-.7 23-6 4.9-5.7-2.2-23.7l-62.1-167.7 6.3-7.8-56.5 146.6q-6.7 17.6-8 29-1.5 11.2 1.7 17.6 3.2 6.3 10.6 9.2 7.4 2.4 18.3 2.8v7q-11.3-.6-21.9-.6-10.6-.4-21.2-.4-7.7 0-14.8.4-6.7 0-12 .7V372q7.8-1.8 15.2-9.2 7.8-7.4 14.8-25.8l80.9-209q4.2.4 9.2.4 5 0 9.2-.4zm30.7 149.4v7H1030l3.6-7zM1512 129v7q-11.3.4-17.3 2.8-6 2.2-8 8.5-1.9 6-1.9 19v175.2q0 12.7 2.2 19.1 2 6.4 7.7 8.5 6 2 17.3 2.8v7q-9.2-.6-23.3-.6-14.1-.4-28.6-.4-15.9 0-30 .4-13.8 0-22.2.7V372q12-.7 18-2.8 6.3-2.1 8.5-8.5 2-6.4 2-19V149.4l2.5.4-87.5 230.2h-5.7l-93.2-228.4v175.1q0 17 2.1 26.5 2.1 9.2 9.2 13.4 7.4 3.9 22.2 5.3v7q-6.7-.6-17.3-.6-10.6-.4-20-.4-8.6 0-17.4.4-8.5 0-14.1.7V372q11.6-1.4 17.3-5.3 6-3.9 7.8-12.7 2-8.8 2-24.4V166.5q0-13-2-19-1.8-6.4-7.8-8.6-5.7-2.4-17.3-2.8v-7l14.1.7q8.8.3 17.3.3 13 0 25.4-.3l22-.7 75.9 189.6-7.8 6.3 73.8-194.9h22.2q14.5 0 28.6-.3l23.3-.7zm137.7-1.1 85.8 221.4q5.3 12.7 11.3 17.7 6.4 4.6 11.7 4.9v7q-9.2-.6-22.2-.6-12.8-.4-26.2-.4-15.5 0-29 .4-13.3 0-21.8.7V372q18-.7 23-6 4.9-5.7-2.2-23.7L1618 174.6l6.3-7.8-56.5 146.6q-6.7 17.6-8.1 29-1.4 11.2 1.8 17.6 3.2 6.3 10.6 9.2 7.4 2.4 18.3 2.8v7q-11.3-.6-21.9-.6-10.6-.4-21.2-.4-7.7 0-14.8.4-6.7 0-12 .7V372q7.8-1.8 15.2-9.2 7.8-7.4 14.8-25.8l80.9-209q4.2.4 9.2.4 5 0 9.2-.4zm30.8 149.4v7h-105.3l3.6-7zM1984 129v7q-11.6 2.1-23.6 8.8-12 6.8-24.7 22l-66.8 81.9 16-25.5 84.3 127.2q5.7 8 11.7 13 6 5 15.5 8.5v7q-11-.6-25-.6-14.2-.4-25.9-.4-6.7 0-16.9.4-9.9 0-25 .7V372q14-.7 16.9-3.9 2.8-3.5-2.5-12l-51.5-81.2q-5.7-9.2-10.3-13.8-4.2-4.6-8.8-6-4.6-1.7-11.3-2.1v-7q14.8-.8 26.5-7.8 11.6-7.1 23.3-20.9l25-31.4q13.1-15.5 16-26.5 2.7-11-3.3-17t-20-6.3v-7l15.5.7q7.7 0 15.5.3h17q10.2 0 18.3-.3l14.1-.7zm-119.3 0v7q-11.3.4-17.3 2.8-5.7 2.2-7.8 8.5-2.1 6-2.1 19v175.2q0 12.7 2.1 19.1 2.1 6.4 7.8 8.5 6 2 17.3 2.8v7q-8.8-.6-22.6-.6-13.8-.4-27.9-.4-15.9 0-29.7.4-13.7 0-22.6.7V372q11.7-.7 17.3-2.8 6-2.1 7.8-8.5 2.1-6.4 2.1-19V166.4q0-13-2.1-19-1.8-6.4-7.8-8.6-5.6-2.4-17.3-2.8v-7l22.6.7q13.8.3 29.7.3 14.1 0 27.9-.3l22.6-.7zm364.7 0v7q-11.3 1-17.3 5.3-5.6 3.9-7.7 12.7-2.1 8.5-2.1 24.4v97.8q0 23.7-3.2 42.4-2.8 18.7-11.3 32.5-8.9 14.8-26.5 24-17.3 8.8-42.4 8.8-17 0-33.5-3.9-16.3-3.9-28.6-14.5-11-9.2-17.3-20.8-6-11.6-8.1-27.9-2.2-16.6-2.2-39.5v-111q0-13-2-19-1.9-6.3-7.9-8.5-5.6-2.4-17.3-2.8v-7l22.6.7q13.8.3 29.7.3 14.5 0 28.6-.3l23.3-.7v7q-12 .4-18.4 2.8-6 2.2-8 8.5-2.2 6-2.2 19v128q0 17.6 2.1 32 2.5 14.2 7.8 24.4 5.6 10.2 15.5 15.5 10.3 5.3 25.8 5.3 25.8 0 39.9-11.6 14.1-11.7 19.8-32.5 5.6-20.8 5.6-47.3v-98.9q0-17.3-2.4-26.5-2.5-9.2-10-13.4-7-4.2-21.1-5.3v-7l17.3.7q11 .3 20.1.3 8.8 0 17.3-.3l14.1-.7zm249.3 0v7q-11.3 1-17.3 5.3-6 3.9-8.1 12.7-1.8 8.5-1.8 24.4v201.6q-3.1-.3-7-.3-3.5 0-7.8.3l-151.5-205.8v152.5q0 17 2.2 26.5 2 9.2 9.1 13.4 7.4 3.9 22.3 5.3v7q-6.7-.6-17.3-.6-10.6-.4-20.2-.4-8.4 0-17.3.4-8.4 0-14 .7V372q11.6-1.4 17.2-5.3 6-3.9 7.8-12.7 2.1-8.8 2.1-24.4V166.5q0-13-2.1-19-1.8-6.4-7.8-8.6-5.6-2.4-17.3-2.8v-7l14.1.7q8.9.3 17.3.3 8.2 0 16-.3l13.7-.7 132.4 176.2v-124q0-17.3-2.1-26.5t-9.2-13.4q-7-4.2-22.2-5.3v-7l17.3.7q11 .3 20.1.3 8.8 0 17.3-.3l14.1-.7zm132-1.1 85.8 221.4q5.3 12.7 11.3 17.7 6.3 4.6 11.6 4.9v7q-9.2-.6-22.2-.6-12.7-.4-26.2-.4-15.5 0-29 .4-13.3 0-21.8.7V372q18-.7 23-6 4.9-5.7-2.2-23.7L2579 174.6l6.3-7.8-56.5 146.6q-6.7 17.6-8 29-1.5 11.2 1.7 17.6 3.2 6.3 10.6 9.2 7.4 2.4 18.3 2.8v7q-11.3-.6-21.9-.6-10.6-.4-21.2-.4-7.7 0-14.8.4-6.7 0-12 .7V372q7.8-1.8 15.2-9.2 7.8-7.4 14.8-25.8l80.9-209q4.2.4 9.2.4 5 0 9.2-.4zm30.7 149.4v7h-105.3l3.6-7zM488.5 193.6a214 214 0 0 0-33.9-97.3 352.3 352.3 0 0 0-57-66c-4.2-3.8-5.8-5.7-5.1-6.3.6-.6 5 1.3 14.4 6.6a259 259 0 0 1 73 57.5c14.8 17 18 22 19.8 31 4.4 23.1 4.2 42.3-.7 59.6a71 71 0 0 1-9.1 20.3c-.5.3-1-2-1.4-5.4zm-436.4 4a91.9 91.9 0 0 1-10.3-30.8A169.5 169.5 0 0 1 43 122l2-11.6 8.4-10.3c21.3-26.3 36-40 60.5-56.2 13-8.6 35-20.8 37.6-20.8.2 0 .3.5.3 1.2s-2 2.9-4.6 4.8c-8 6.3-25.9 24.5-35.3 35.9-33.4 40.2-50.9 78.6-56.5 123.8a87 87 0 0 1-1.6 10.3c-.2.2-1-.5-1.7-1.6z"/><path fill="#573313" d="M534.5 285c-3.2-4.3-8.6-13.7-13-22.6-8.9-18.1-12-23.2-18.2-29.7l-4.7-4.9 4.9-5.6a98.4 98.4 0 0 0 20.8-37.3c1.9-7.3 1.8-9.2-.6-8.8-1.6.2-2.2 1.1-3.1 5.5-1.7 7.9-9.7 23.4-16.6 32.3-8.2 10.6-9 11.2-11.9 10-2.2-1-2.3-1.4-2.3-8.5 0-7 .1-7.5 3.4-12.3a72.4 72.4 0 0 0 10-20.7 130 130 0 0 0 4-47.4 62 62 0 0 1-.5-10.3 34 34 0 0 1 4.9 7.4A243 243 0 0 1 541 219c2 14.5 2.5 41.8 1.2 56.5-1.6 18.8-1.3 18.3-7.7 9.6zm-3-50.8c1.7-1.6 1.3-2.2-2.2-3.3-1.8-.6-5.1-2.6-7.4-4.5-4.3-3.6-6.8-3.9-6.8-1 0 1 2.3 3.2 6.2 5.8 6.5 4.2 8.5 4.8 10.2 3zM2.1 288.6c-6.5-49.6 2.2-102 24.4-146.3 10.3-20.6 10-20.5 9.4-.9-.4 14.4-.2 18 1.5 27.4 1 6 2.6 13.3 3.6 16.2 2.2 6.5 8 17.6 10.9 20.6 1.9 2 2.1 3 2.1 9.4 0 7 0 7.2-2.4 8.4-2.5 1.3-2.5 1.3-8.8-5.9a78.6 78.6 0 0 1-20.6-40c-.4-1.7-1-2.5-2.3-2.5-1.4 0-1.7.6-1.7 3.4 0 4.6 3 14 7 22.2 4 8 6.1 11 14 19.9l6 6.6-6.1 6.3c-5.5 5.8-6.9 8-14.9 24.4-8.6 17.6-14 26.7-19 32.4L2.7 293zm15.5-54.7c4-2.1 10.2-7.3 10.2-8.7 0-2.8-3.8-1.9-7.8 1.9a21.8 21.8 0 0 1-5.4 3.3c-3.5 1.5-4.7 2.7-3.8 4 .8 1.3 3.6 1 6.8-.5z"/><path fill="#975b27" d="M533.4 298.6c-4.6-3.3-5.4-4.3-20-23.1a229.7 229.7 0 0 1-14.6-21 61 61 0 0 0-6.6-9.7c-2.2-2.2-2.4-3-2.4-9 0-3.7.4-6.6.8-6.6 1.7 0 9.9 7.2 13.6 12 3.6 4.6 9 14.5 13.4 25 2.6 6 10.1 18.2 15.9 25.9 3.3 4.3 4.8 7 4.4 8-.4 1.3-1 1-4.5-1.5zM5 300c0-1 1.7-3.8 3.8-6.3a131 131 0 0 0 18-30.7 236 236 0 0 1 11.8-21.8c3.3-4.4 12.3-12 14.3-12 .8 0 1 1.7.8 6.7-.1 4.9-.5 6.7-1.3 6.6-.6-.1-1 0-.9.5.1.4-1.2 2.8-3 5.4a254.9 254.9 0 0 0-6.6 11c-2 3.4-6.1 9.3-9.1 13a610 610 0 0 0-8.1 10.5c-4.5 6-10.3 11.8-11.2 11.2-.5-.3-.6-.2-.3.3.6 1-5.8 7.3-7.3 7.3-.5 0-.9-.8-.9-1.7zM458 336.5l4.6-8.1c8.2-13.5 14.6-30 20.3-52.8a274 274 0 0 0 4.8-22.1c.7-6.3 1.2-6 7.3 4.4a299 299 0 0 0 25.6 35l6.2 7.3-2.3 1.8c-3.7 3-22 12.6-29.1 15.3-6.3 2.5-6.5 2.5-6.5.7 0-1.7 7.2-9.4 8.9-9.4.3 0 2.8-.8 5.5-1.8 5.6-2 7.5-4.7 7.5-10.4 0-5.2-1.7-7.6-11.1-16.5-9-8.3-12-9.8-11.5-5.6.2 1.7 2.2 4 6.8 8 7.7 6.7 10.8 10.8 10.8 14.4 0 2.6-2.4 5.3-3.9 4.4-.4-.2-.7 0-.7.4 0 .5-1.2 1.1-2.6 1.4-7.6 1.7-15.3 10.5-14.8 16.8.4 4.3 2.8 5.7 8 4.5 4.3-1 17.5-7.2 29.8-14.2 9-5.1 10.5-5.6 11.3-3.7.2.7-1.9 3-5.4 5.6a130 130 0 0 1-66.8 26.9l-4.2.5zm-382.1 1.7a106.2 106.2 0 0 1-15.1-3C47.4 331.6 25 319.5 14.3 310c-2.6-2.2-3.3-3.2-2.5-4 1.1-1.2 3.9 0 15.8 7.3 9.7 5.8 23 12 26 12 1.3 0 3.2-1 4.5-2.3 1.9-1.9 2.1-2.7 1.6-5.5-1-5.4-4.5-8.9-13.4-13.2-6.2-3-8.2-4.5-8.6-6-.9-3.6 3-9.6 9.8-15.2 6.8-5.7 7.6-6.9 6.9-8.9-1-2.7-3.6-1.3-12 6.7-8.4 8.1-10.2 10.8-10.2 15.6 0 5.8 3.6 9.4 13.2 13 5.3 2 7.1 3.5 8.6 7.3 2.1 5.6-4.9 3-26.4-9.6-12.3-7.3-11.8-6.3-6.2-12.5 1.5-1.7 4.9-5.8 7.4-9.2 2.5-3.4 6.4-8.3 8.6-11a99 99 0 0 0 12.7-18.7 163 163 0 0 1 3.6-6.5c.7-.8 1.3 1 2.5 8.3a217.9 217.9 0 0 0 31 81.1c0 .6-1.5.5-11.3-.5z"/><path fill="#573313" d="M417.2 434.4c-2.7-.4-5.3-.9-5.9-1.2-.5-.4-1-2.4-1-4.5v-4h8.6c10.2 0 17.8-1.6 26-5.6a46.4 46.4 0 0 0 23.4-52.6c-.8-3.1-3.4-9.5-5.7-14a76 76 0 0 1-4-8.5 77 77 0 0 1 7-.6c7.5-.5 7.8-.3 11 6 8.6 17 6.7 40.9-4.4 57.6a75 75 0 0 1-21.6 20.2 61.7 61.7 0 0 1-33.4 7.2zm-302.5 0c-2.9-.3-7.4-1.3-10-2.1-4.5-1.5-13-5.6-14-6.7a58.1 58.1 0 0 0-4.5-3.3A64.5 64.5 0 0 1 64.9 394a56.6 56.6 0 0 1 2.3-44.9l2.6-5.4h7.4c5 0 7.4.3 7.4 1 0 .5-1.5 3.8-3.4 7.2a50.7 50.7 0 0 0-5.7 37.4c6 23 23.4 35.7 49 36h9v4.2c0 2.6-.4 4.3-1.1 4.5-2.2.8-12.5 1-17.7.5z"/><path fill="#573313" d="M323.9 506.3c0-.5 1.5-6.3 3.5-12.9 4-13.5 7.3-20.7 12-26a63.5 63.5 0 0 1 13.9-10.9c.3.4-7 18.8-9.4 23.2-2 3.8-1.7 5.4 1 5.4 2.5 0 7-9.8 14.7-32.3 3.4-9.8 6.4-18 6.6-18.2.3-.3 3 .4 6 1.5 9.7 3.5 23 3.3 30.5-.5l2.4-1.2v6.9c0 7.6-2.2 16-5.9 23-2.3 4.3-2.1 7.1.4 6.6 3.9-.7 10.3-19.1 10.7-30.5 0-2.3 0-2.3 4.6-1.4 2.5.5 8 .6 12.1.4 27-1.7 51.3-23 58.5-51.3.7-2.8 1.2-8.8 1.2-14.4-.1-10.9-1.7-17.7-6.1-26.7l-2.9-5.8 9.6-2.9a135 135 0 0 0 43.9-22.8c2.8-2.4 5.3-4.1 5.5-4 .9 1-4.5 19.4-9 30.7a261.6 261.6 0 0 1-140 146c-21 9.3-63.8 21.4-63.8 18zm55-29.2c1-3 1.8-5.4 1.6-5.6a6.3 6.3 0 0 0-2-.6c-1.2-.2-1.9.6-3 3.7a54.3 54.3 0 0 1-1.4 4.1c-.1.2-2-.6-4.3-1.6-3.1-1.3-4.4-1.6-5.2-.8-1.6 1.6.5 3.7 5.6 5.8 3 1.2 5.1 1.6 5.7 1.1.6-.4 1.9-3.2 3-6zm-10.6-9.8c.7-.9.6-1.6-.3-2.8-1.2-1.6-1.3-1.6-2.7-.2-1.3 1.2-1.3 1.7-.4 2.8 1.4 1.7 2.1 1.7 3.4.2zm22.4-14.1c.8-2.1 1.3-4.5 1-5.2-.8-2-3.2-.6-3.8 2.2-.3 1.4-.6 2.5-.8 2.5a62.2 62.2 0 0 1-5-2.3c-4.7-2.3-7.6-2.3-7.6 0 0 1.2 10.6 6.6 13.3 6.7 1 0 2-1.4 3-3.9zm112-68.9c.6-.6.9-2.5.6-4.1a108.1 108.1 0 0 0-4.4-23.7 54.7 54.7 0 0 1-2.1-7.3c0-.6 2.5-1.9 5.5-3 6.5-2.3 10.9-5 16.5-10.3 4-3.7 5.5-7.2 3.1-7.2-.6 0-3.3 1.8-5.9 4-6 5-15.4 9.7-20.6 10.5-2.2.3-4.2 1-4.4 1.7-.2.6 1.1 5.7 3 11.4a96.1 96.1 0 0 1 4.4 19c1.1 10.3 2 12 4.4 9zM510 358c1.5-1.9.4-4.1-2-3.8-2.2.3-3.1 3.2-1.4 4.3 1.7 1 2.2 1 3.4-.5zM207.3 504.7c-50-11.7-100-38.6-131.8-70.7-27-27.4-49-61.8-61-95.7C10 326 6.3 313.2 7 312.4c.3-.2 2.8 1.3 5.6 3.5a151.2 151.2 0 0 0 44.1 23.3l8.5 2.8-2 4c-5 10-6.1 14.8-6.2 26.8 0 16.5 3 26.4 12.2 39.3a101 101 0 0 0 16.2 16.6c0-.3 1.6.6 3.5 1.8a66 66 0 0 0 37 9l7.3-.5.6 5.7c1.3 12 6.8 26.4 10.1 26.4 2.9 0 2.9-2.2 0-7.8a50.4 50.4 0 0 1-5.3-22.5v-6.3l4.2 2c3.5 1.5 5.7 1.8 14.2 1.8 8.8 0 10.6-.2 15.4-2.2l5.4-2.3 3.5 10.1 5.3 16c2.7 8.9 9.8 25.2 11 25.1.4 0 1.4-.3 2-.7 1.5-1 1.6-.5-5-16.6-2.5-6-4.3-11-4.2-11.2.9-.8 11.6 7.5 14.7 11.4 5.2 6.5 6.8 10 11.3 25.2l4 13.8h-2.2c-1.3-.1-6.2-1-11-2.2zm-33-22.9c3.6-1.6 5.5-2.9 5.5-3.9 0-2-1.8-2.4-5.2-1-4.1 1.7-4.3 1.6-6.2-2.8-1.2-2.8-2.2-3.9-3.4-3.9-2.2 0-2.3 1.2-.1 6.7l2.1 5.8c.6 2 .9 2 7.3-.9zm4-13.9c1.4-.5 2-3 1-4-1.2-1.2-3.9.5-3.9 2.5 0 2.1.6 2.4 3 1.5zm-15.5-13.1c7.1-3 8.8-4.8 5-5.4-.8-.1-3.5.8-5.8 2a19.5 19.5 0 0 1-4.5 2 48.2 48.2 0 0 1-1.3-3c-1-2.7-2.9-3.8-3.8-2.2-.5.8 2 9.8 2.6 9.8.3 0 3.8-1.5 7.8-3.2zm-118-76.6c.8-8.1 2.4-15.2 5.6-24.5 1.5-4.2 2.5-8.1 2.2-8.8-.3-.6-2.1-1.5-4.1-1.8-5.6-1-15.3-5.7-21.5-10.7-3-2.5-5.9-4.3-6.3-4-4 2.5 8.2 12.8 20.7 17.4l6.2 2.3-2.5 7c-4 11.6-6.2 27.1-4 29.3 2 2 3.2 0 3.7-6.2zm-7-21.5c0-1.6-.5-2.3-2-2.5-1-.2-2 .3-2.4 1.1-.9 2.3.4 4.1 2.5 3.8 1.4-.2 2-.8 2-2.4z"/><path fill="#573313" d="m231.7 509-3.6-.8c-2-.4-3.5-4.4-8.2-20.5a59 59 0 0 0-25.6-35.3c-5.4-3.1-5.8-3.6-8-9a39.9 39.9 0 0 1-2-6c.3-.3 14.4 7.6 21.6 12a64.2 64.2 0 0 1 19.1 19.7c1.6 3 5 11.7 7.6 19.4a221 221 0 0 0 6.6 17.5l1.7 3.5-3.7-.1a41 41 0 0 1-5.5-.5zm72 .5a249.8 249.8 0 0 0 8.3-23.3c7-22.4 15-31.5 38.8-44.2 9.9-5.3 9.5-5.6 6.1 3.3-1.4 3.9-2.2 4.7-6.8 7.2a59.8 59.8 0 0 0-18.4 16.8 90.2 90.2 0 0 0-9.7 25.4c-2 6.4-4 12.2-4.5 12.8-1.2 1-13.7 3-13.7 2z"/><path fill="#975b27" d="M251.9 511.3c-4.3-.5-4.3-.5-7.7-6.6-1.8-3.4-4.9-11-6.8-17.1-5.1-16-9.2-23.9-16.3-31.4-6.9-7.3-11.2-10.4-26.9-19.2-6.2-3.4-12.2-7-13.3-7.9-2-1.5-2.2-1.5-7.6 1-9.8 4.6-21.4 5-30.5 1-3.6-1.7-4-2.1-3.6-4 .8-3.2-1.1-9-4.1-12.4-3.2-3.6-6.6-5.5-15.1-8.3a34.1 34.1 0 0 1-16.6-9.2 27 27 0 0 1-8.7-20.3c-.1-5.2-.4-6.6-1.7-7.3-2.4-1.4-3.3.2-3.3 6.1 0 18 11 30.9 31.3 36.4 5.1 1.5 11.6 5.7 11.6 7.6 0 1.7-18 .3-24.3-1.8a40.8 40.8 0 0 1-28.6-32.5 45.3 45.3 0 0 1 9.5-36.5c1.3-1.6 2.6-2.8 2.7-2.6l7.2 9.5a347.6 347.6 0 0 0 43.1 43.8c16.8 13 32.8 21.3 53.9 28.3a185 185 0 0 1 20.6 8 84.1 84.1 0 0 1 26.6 25.9c14 20.2 24.4 26 36.7 20.2 6-2.8 11.8-8.3 18.1-17.2 15.4-21.7 24-28.6 44.1-35.2a186.5 186.5 0 0 0 49.4-23.2 231.6 231.6 0 0 0 51.6-49.3l8.6-10.8 2 2a65 65 0 0 1 10.6 22.8 42.8 42.8 0 0 1-22 43.6c-6.1 3-13.5 4.7-22.6 5.3-6.8.4-7.5.3-7.4-1 .4-2.3 3.5-4.3 10.4-6.9 15.4-5.7 22.8-10.9 26.9-18.8a49 49 0 0 0 4.3-18.6c0-5.1-.7-6.2-3.5-5.4-1.5.5-1.7 1.4-1.7 6.2 0 8-3.5 17-8.7 22a34 34 0 0 1-16.2 9c-14 4.5-17.7 8-18.7 17.4-.5 4.8-.6 4.9-5 7a25.9 25.9 0 0 1-11.6 2.5c-7.9.3-11.6-.4-19.2-4l-4.6-2.2-2 1.8c-1 1-7 4.6-13.2 8-15.5 8.8-20 12-26.7 19-7 7.2-10.4 13.8-16 30.8-4.4 13-8.5 23-9.8 23.9-1.6 1-22.1 1.7-22.1.8 0-.5 1.6-2.2 3.7-3.7 10.4-7.6 20.9-21.2 18.4-23.7-1.2-1.1-1.7-.7-8.2 7.7a63.2 63.2 0 0 1-15.4 13.5c-1.8.9-2.8.4-8.4-4a68.2 68.2 0 0 1-9.8-9.2c-3.2-4.2-6.5-5.8-6.5-3.3 0 3.5 10.7 15.6 17.2 19.4 4.8 2.8 3.7 4-3.5 3.8-3.5 0-8.3-.4-10.6-.7z"/><path fill="#573313" d="M270.5 26.8c-1.4-4-5.1-8.6-8.7-10.5-1.5-.8-1.4-1 1.5-2.8 3.9-2.4 6.2-5.6 7.5-10.3 1-3.8 2.6-4.3 2.6-1 0 3.4 3.6 8.7 7.4 11.2l3.9 2.4-3 1.4c-3.1 1.5-8.3 7.8-8.3 10.1 0 .8-.3 2-.7 2.6-.6.9-1.2 0-2.2-3.1zm31.4 12.7c-1.1-3.2-2.3-4.8-4.5-6.1l-3-1.8 3.4-3c2-1.7 3.9-4.2 4.3-5.8.9-3.4 2-3.2 3.3.4.8 2.6 4.2 6.2 6.6 7 .8.4-.1 1.6-2.5 3.7-2.5 2.2-3.9 4.2-4.3 6.2-.8 4.5-1.5 4.3-3.3-.6zm-62.1 3.2c-2.2-5.8-3-7.3-5.4-9.2l-2.6-2.1 2.8-2.7a15.4 15.4 0 0 0 3.9-6.4c1-4.2 1.9-4 3.4 1a15.5 15.5 0 0 0 4 5.7l2.8 2.5-2.9 2.4a12.8 12.8 0 0 0-4.1 6.4c-1 3.4-1.4 3.8-2 2.4zm96.6 13.2a19 19 0 0 0-8.3-12.7c-3-2-3.2-2.3-1.7-3.1 4.1-2.3 9-8.1 10-12.1 1.3-4.8 2.4-4.8 3.8 0 1.5 5 3.7 8 8 10.5l3.8 2.2-3.3 2.4c-5.3 3.8-7.8 7.5-8.9 12.7-.6 2.6-1.3 4.8-1.7 4.8-.3 0-1.1-2.1-1.7-4.7zm-131.6 2.3c-1.7-8-6.9-16-10.5-16-2.2 0-1.3-1.4 2.4-4 3.6-2.4 7.7-9.3 7.7-12.7 0-2.6 1.6-1.7 2.2 1.3 1 4.9 4.2 9.4 8 11.7 2.1 1.2 3.8 2.5 3.8 2.8 0 .3-1.2 1-2.7 1.7-3.4 1.6-7.5 8-8.3 13-.7 4.5-1.8 5.6-2.6 2.2zm166.5 3.6c-2.4-3-2.3-6 .3-8.7 4.3-4.3 11-1.9 11 4 0 6.4-7.5 9.6-11.3 4.7zm-205.9 1.4c-2.2-.9-3.8-3.4-3.8-6 0-2.8 3.9-6.2 6.8-6.2 5.8 0 8.5 7.8 4 11.3-2.4 2-4 2.1-7 1z"/><path fill="#975b27" d="M388.4 83.1c3.2-8.2 4-9.4 6.6-10.8 4.9-2.5 9.4-.5 9.4 4.1 0 5.5-6 10.3-14.5 11.6l-3.6.5zm-235.6 4.6c-7.7-1.3-12-4.8-12.7-10.2-.6-4.5 1.8-6.9 6-6 4 .7 6.4 3.4 8 9.1.8 2.6 2 5.5 2.9 6.3.8 1 1 1.6.6 1.5l-4.8-.7z"/><path fill="#573313" d="M270 93.8a23 23 0 0 0-16.5-17.1c-5-1.5-5.2-2.5-.9-3.3 7.4-1.5 15.1-9.4 17.3-17.8l1.4-5.3c.7-2.2 2-.1 3 4.6 1.7 8 7.8 14.7 16.3 18 2.3.8 4 1.8 3.8 2.2-.2.5-2 1.2-4 1.7-7.7 2-13.4 7.9-16 16.3-.7 2.8-1.9 5-2.4 5-.6 0-1.5-1.9-2-4.3z"/><path fill="#975b27" d="m414.6 112.3-5-1.5 6-3c5-2.6 6.7-3 11.5-3 3.1 0 7.2.3 9.1.7l3.5.7-5.5 3.5c-6.5 4.3-11.7 5-19.5 2.6z"/><path fill="#573313" d="M300.3 111.3c-1.5-3.5-3.7-5.7-6.7-6.6-2.1-.6-2.1-.7 1.1-2.3 2.4-1.2 3.8-2.9 5-5.6 1.8-4 3.4-5 3.4-2.3 0 2.5 3.4 6.3 7 7.8l3 1.3-3.4 1.5a11.5 11.5 0 0 0-7.1 7l-1 2.2zm-58.6-.8a9.3 9.3 0 0 0-4.9-5l-3.3-1.7 3.2-1.7a12 12 0 0 0 4.8-5.5c1-2 2-3.7 2.2-3.7.3 0 1.3 1.7 2.2 3.7a11.5 11.5 0 0 0 5.2 5.3l3.3 1.8-2.9 1c-2.6.8-4.2 2.5-7.3 7.9-.8 1.2-1.1 1-2.5-2z"/><path fill="#975b27" d="M110.6 110.2c-5.7-3.4-6-3.6-4-4.4 1.3-.5 5.4-1 9.2-1 6.3 0 7.6.2 13 3l6 2.9-6.4 1.5c-9.4 2.3-11 2.1-17.8-2zM429 156c0-2.5 4-10.5 5.8-11.4.9-.4 3-1 4.8-1.4 4-.7 5.4.9 5.4 6.2 0 3.3-.4 4.4-2.4 6.1-2 1.7-3.4 2-8 2-4.8 0-5.6-.2-5.6-1.5zm-319.7 1.8c-4.5-.6-5.9-1.2-8.1-3.4-2.9-2.9-3.2-8-.6-10.3 2.2-2 7.8-1.2 10.4 1.5 1.7 1.9 4.5 8.4 4.5 10.6 0 1.3-2.8 2-6.2 1.5z"/><path fill="#573313" d="M450.3 220a15.8 15.8 0 0 0-12-9.6c-4-.7-4-.6 2.5-3 2.8-1.1 9-6.7 9-8.1 0-.4.7-2.2 1.4-4l1.4-3.3 1.7 4.6c2.1 5.5 6.4 9.5 11.7 10.8 4.1 1 5.3 2.5 2 2.6-2.8 0-8.7 2.9-11 5.3a22 22 0 0 0-3.2 5.4c-.8 1.8-1.5 3.2-1.7 3.2-.1 0-1-1.8-1.8-4zm-361-.4c-2.3-5.1-5.8-7.8-11.9-9.3l-4.4-1 3.5-1c7.3-2 12-6.6 13.2-13 .7-3.8 1.8-3.6 3 .7 1.6 6 5.8 9.7 14.4 12.6 1.4.5 1 .8-1.9 1.7-7.1 2.2-12.6 7.2-12.6 11.7 0 3-1.1 2.2-3.3-2.4zm368.8 30.1a7.5 7.5 0 0 1-2.2-4.4c0-3.1 3.7-6.5 7-6.5 3.4 0 7 3.4 7 6.5 0 3.2-3.6 6.6-7 6.6a7 7 0 0 1-4.8-2.2zm-381.9.8c-1.4-1-1.9-2.2-1.9-4.8 0-4.2 2.4-7 6.2-7 3.7 0 5.7 1.3 6.8 4.5 2.3 6.4-5.2 11.4-11 7.3z"/><path fill="#975b27" d="M441.7 282.4c-1.4-.4-4.3-2.1-6.5-3.8a16.5 16.5 0 0 0-5.4-3.2c-2.6 0 1-1.4 6.3-2.5 7.2-1.5 11-.6 18.6 4.5 3.6 2.4 6.4 4.5 6.3 4.6-.8.7-17.3 1-19.3.4zm-353.4.3-6.5-.3 7.2-4.8c9.6-6.2 12.2-6.7 23.1-3.8l3.4.9-3.1 2-5.6 4c-2.7 2-7.9 2.6-18.5 2zm14.6 40.5c6-10.4 10.7-12.8 22.6-11.5 4.8.5 5.5.8 4.6 1.8-.5.7-1.3 1.2-1.6 1.2-.3 0-2.3 1.6-4.4 3.6-4.2 3.8-7.1 4.8-16 5.4-4.2.3-5.7.2-5.2-.5zm331.9.7c-7.1-1-8-1.4-13.4-5.5a61.7 61.7 0 0 0-6.7-4.8c-2.3-.8.4-1.7 6.3-2.1 7.9-.6 13 1.2 16.4 5.7a83.4 83.4 0 0 0 4.5 5.6c1.2 1.3 1.8 2.4 1.3 2.3l-8.4-1.2zm-38 25c-1.4-1-3-2.5-3.2-3.5l-1-3.7c-.6-1.8-.4-1.9 3.1-1.4 4.6.6 6.9 2.8 7.6 7 .4 3 .3 3.2-1.6 3.2-1.1 0-3.3-.7-4.8-1.6zm-256.5-.3c1.5-4.8 2.2-6 4.7-7.2 3.4-1.7 6.2-1.7 6.2 0 0 3.1-2.8 7.3-5.5 8.2-4.5 1.6-6.1 1.3-5.4-1zm241.2 36.6a290 290 0 0 0-6.3-5.3c-5.3-4.3-6-6.5-5.8-18.4l.1-6.2 2 2.7a72 72 0 0 0 6 6.6c2.3 2.2 4.8 5.5 5.5 7.2 1.2 2.9 3 16.3 2.1 16.3-.2 0-1.8-1.3-3.6-2.9zm-223 0 1-7.1A21 21 0 0 1 166 365a51 51 0 0 0 5.3-6l2.4-3.3.6 5.8c1.2 11-.8 16.4-7.5 20a23 23 0 0 0-5.9 4.5c-2.3 2.8-3 2.7-2.4-.7z"/><path fill="#573313" d="M334.6 402c-1.2-1-1.8-2.8-1.8-5.2 0-4.5 2.4-7 6.6-7 4 0 7.4 3.2 7.4 7 0 6-8.1 9.4-12.2 5.3zm-133.9.7c-3.6-2.7-3.4-10 .3-12a8.1 8.1 0 0 1 9.3 1.4c4.3 4.3.9 11.7-5.4 11.7-1.5 0-3.4-.5-4.2-1z"/><path fill="#573313" d="M269.3 460c-4.3-1.2-6.2-2.8-7.9-6.4-1.4-3.3-1.6-6-1.6-25.2v-21.5l-14-.3c-17.7-.4-17.5-.3-17.5-11.8 0-12 1-12.5 20.7-12.5h10.8v-15.6l-6-.6a148.1 148.1 0 0 1-88.6-40.5 141.4 141.4 0 0 1-44.9-98.4c-1.3-32.9 6.8-63 24-89 19-29 45.6-50 79-62.5 7.2-2.7 7.8-2.8 9.1-1.5 1.8 1.8 2.1 1.5-5.5 5.3-19.7 9.8-38.3 32.3-47.9 57.7-5.1 13.7-7.7 37-5.7 52.5 2 16.5 8.7 33.8 19 49.2a95.6 95.6 0 0 0 58.3 39c9.6 2 30.5 2 41 0 34.4-6.6 61.1-30.5 73.6-66 7.3-20.7 7.3-47.6 0-70.7C357 115 337 90 315.6 79.2c-5.9-3-6.6-3.8-4.7-5.3 1-.9 2.7-.6 9 1.8a209.5 209.5 0 0 1 37.4 19.5 236.6 236.6 0 0 1 41.2 41.6 155.4 155.4 0 0 1 22.1 55.5 178 178 0 0 1 0 55.3 145.5 145.5 0 0 1-127.9 117.7l-7.6.6v16.4h11.1c17.5 0 19.4 1.4 19.4 13.2 0 5.3-.3 7-1.6 8.7-1.6 2-2.2 2-15.5 2.3l-13.9.1-.4 22.1c-.4 19-.7 22.5-2 25-2.5 4.6-8.5 7.5-12.9 6.3zm8.3-116.6c5.2-5.3 5.3-11.9.1-23-2.6-5.4-3.2-7.9-3.4-12.8l-.2-6.1 8.2-.8c9.2-.9 8.8-1 12.9 6.8a32 32 0 0 1 2.2 19.3c-.5 2-2.3 5.8-4 8.6-3.2 5.4-3.7 7-2.1 8 1.5 1 5-3 8-9.1 2.6-5.2 2.8-6.4 2.8-14 0-7.8-.2-8.8-3.2-15l-3.2-6.8 6.3-1.3c3.4-.8 10.7-3.4 16.3-5.8a97.5 97.5 0 0 1 11.1-4.3c.6 0 2.9.8 5 1.8 5 2.4 7.9 7 9 15.2 1 5.9 2.7 9.4 5.7 11.3 1 .6 1.7.6 2.4-.1.8-.8.6-1.7-.9-3.7-1-1.5-2.2-5.1-2.7-8.2a71.8 71.8 0 0 0-1.8-8.1 20.9 20.9 0 0 0-10-10.2c-1.7-.5-3-1.2-3-1.5a51 51 0 0 1 7.3-5l7.3-4.6 4.6.8c5.2 1 8.9 3 12.6 7l2.6 2.6h-2.6c-4.1 0-5.1 1.2-5 5.7.3 6 3.2 10.6 7.8 12.3 6.1 2.4 10 .4 10-5.2 0-2.6-.8-4.8-3-8l-5.2-8a27.9 27.9 0 0 0-15-10.4l-3.3-.6 4.7-4.3 4.7-4.3 7.5.3c7.5.3 7.6.3 11.6 4 4.7 4.3 8.9 5 14.7 2.7 7.3-3 0-12.8-10.1-13.7-3.9-.3-5 0-6.3 1.5-1.5 1.6-2.4 1.7-8 1.2l-6.1-.5 2.9-4.5c1.6-2.5 4-6.5 5.2-8.9 3.4-6.2 7.1-9.7 12-11.3 4-1.3 4.5-1.3 7.7.1 10.5 4.8 20.8-2.1 13-8.6-5.4-4.5-13.7-4-15.2.9-.7 2.2-1.4 2.8-4 3.1-1.6.3-3.8.8-4.7 1.2-1.4.5-1.6.4-1-1l3.2-10.8c1.3-5 3-10 3.8-11 .7-1.2 3.3-3.2 5.7-4.5 2.4-1.3 5.2-3.6 6.1-5.2 2.1-3.3 2.3-9.9.4-13.5-1.3-2.5-6.9-6-9.5-6-2 0-1.8-5.5.4-9.6 4-8 2.8-14.5-3.6-20-2-1.7-4.2-4.5-4.9-6.1-1.1-2.7-1.4-3-2.6-1.7-2.3 2.3-.6 6.7 4.3 11.3 3.9 3.6 4.4 4.4 4.3 7.6a23.7 23.7 0 0 1-1.8 7.6 23.5 23.5 0 0 0-1.8 9.4v5.4h3c4.1 0 7.1 1.8 8.8 5.3 2.3 5 .3 8.6-6.8 12.2-5 2.6-7 5.6-9 13.8a105.4 105.4 0 0 1-30.2 52.5 114.9 114.9 0 0 1-56 29.8c-10.2 2.2-35 2.2-45 0a115.4 115.4 0 0 1-54.1-28 121 121 0 0 1-30.5-52.4c-2.7-10.8-4.5-13.4-10.9-16.7-4.5-2.3-6-4.2-6-7.8 0-5.1 3.2-8.2 8.4-8.3 3.3 0 3.6-.2 4.1-2.7 1.1-5.4.6-8.7-1.8-12.3-3-4.5-3.3-10-.7-12.9.9-1 2-1.8 2.6-1.8 2.3 0 5-4.1 5.1-7.9.3-5-1.5-5.5-3.4-1a11 11 0 0 1-4.3 5.3c-6.6 3.9-7.9 10.8-3.7 19.4 1.3 2.7 2.4 5.9 2.4 7.1 0 1.8-.5 2.3-3 2.8-6.5 1.2-11 8-9.7 14.8.8 4 3.4 7 8.8 10 4.7 2.5 4.3 1.7 9.4 18l2.8 8.6c.6 1.3.4 1.4-1.7.6a18 18 0 0 0-5.3-.9c-2.6 0-3-.2-3-2 0-1.3-1-3-2.4-4-2-1.7-3.3-2-7.2-1.6-4 .3-5 .8-7.2 3.2-3 3.4-3 5.8.4 8.2 3 2.2 8.8 2.3 13 .3 3.2-1.6 5.7-1.4 11.6 1.3 2.9 1.2 4.5 2.8 7 7a237 237 0 0 0 7.3 11l3.8 5.4-7.3.2c-5.2.2-7.5 0-8.1-.9-1.6-2-8-2.2-12.2-.6-6.4 2.4-10.5 9-7.2 11.7 1.9 1.5 8.5 2.9 11.3 2.3 1.4-.3 4.2-2.2 6.1-4.2l3.5-3.6 8.4-.3 8.4-.3 3.8 3.8 3.7 3.9-5.3 1.5c-6 1.7-10.8 5.8-14.4 12.5-1.2 2.3-3 5.4-4 6.8a19.5 19.5 0 0 0-2.1 6.2c-.8 4.8.9 6.5 6.5 6.5 6.6 0 9.3-3 11.3-12 1-4.6.1-5.9-4.2-5.9-2 0-3.6-.3-3.6-.6 0-1.9 7.8-8.5 11-9.4 6.7-1.8 9.2-1.3 16.3 3.7l6.7 4.6-4 2.1c-5.4 2.9-7.8 6.9-9.5 15.7-.8 4.1-2.2 8.8-3.2 10.4-2 3.4-1.1 5.3 1.8 3.7 2.7-1.5 4.5-5.4 5.9-13.4 1.4-8.1 3.5-11 9.6-13.4l3.7-1.4 10.4 4.4c5.7 2.5 10.8 4.5 11.4 4.5.5 0 3.5.8 6.6 1.8l5.7 1.7-2.6 5a36 36 0 0 0-.7 30.5c3.5 7.2 8 11 9.2 7.9.2-.7-1-3.5-2.7-6.3a25.2 25.2 0 0 1-4.6-18.2c.3-5.8.9-8.1 3.2-12.7l2.8-5.6 5.3.6c3 .3 6.8.5 8.7.5h3.4v6.5c0 5.8-.4 7.2-3.2 12.7-5.3 10-5 19.3.7 24 3.7 3.2 7 3 10.7-.8zm-56.3-12.9c4.6-3.1 5.7-7.5 4-16.9-.7-4.2-1.6-8-2-8.3-1.6-1.6-8.9 6.3-12.8 13.8-4.7 9.1 2.7 16.9 10.8 11.4zm110.5-.2c2.6-2.5 2.9-7 .8-11.2a55.5 55.5 0 0 0-11.3-14.6c-1.6 0-3 5-3.6 12.7-.4 5-.2 7 1 9.5 2.7 5.7 9.2 7.5 13.1 3.6z"/><path fill="#975b27" d="M271.4 118.9a21 21 0 0 1 4.8 12.8 21 21 0 0 1-5 14 22.4 22.4 0 0 1-4.5-14.1c.2-4.6 1.9-9 4.7-12.7zm24.3 4.3c1.5 4.3 1.6 9.3.1 13.7a21 21 0 0 1-9.5 11.5 22.4 22.4 0 0 1 .7-14.9 22.3 22.3 0 0 1 8.7-10.4zm21.4 12.3a21 21 0 0 1-4.6 12.9 21 21 0 0 1-12.8 7.6 22.4 22.4 0 0 1 5.7-13.8c3-3.4 7.2-5.8 11.7-6.7zm15.8 18.8a21 21 0 0 1-8.7 10.6 21 21 0 0 1-14.6 2.7 22.4 22.4 0 0 1 10-10.9 22.3 22.3 0 0 1 13.3-2.4zm8.5 23.2a21 21 0 0 1-11.8 7c-5 1-10.3.1-14.7-2.5a22.4 22.4 0 0 1 13.2-6.8c4.5-.6 9.3.2 13.3 2.3zm0 24.7a21 21 0 0 1-13.4 2.5 21 21 0 0 1-13-7.3 22.3 22.3 0 0 1 26.4 4.8zm-8.3 23.2a21 21 0 0 1-13.6-2.3 21 21 0 0 1-9.7-11.3c5-.6 10.3.6 14.5 3.2a22.3 22.3 0 0 1 8.7 10.4zm-15.9 19a21 21 0 0 1-12-6.8 21 21 0 0 1-5.1-14 22.4 22.4 0 0 1 12.5 8 22.3 22.3 0 0 1 4.6 12.7zM296 256.6a21 21 0 0 1-9-10.4 21 21 0 0 1 0-15 22.4 22.4 0 0 1 9 25.4zm-24.3 4.3a21 21 0 0 1-4.9-12.8 21 21 0 0 1 5-14 22.4 22.4 0 0 1 4.5 14.1 22.3 22.3 0 0 1-4.6 12.7zm-24.3-4.2a21 21 0 0 1-.2-13.8 21 21 0 0 1 9.5-11.5 22.4 22.4 0 0 1-.7 14.9 22.3 22.3 0 0 1-8.6 10.4zm-21.4-12.4c0-4.6 1.6-9.3 4.5-12.9a21 21 0 0 1 12.9-7.5 22.4 22.4 0 0 1-5.7 13.7 22.3 22.3 0 0 1-11.7 6.7zm-16-18.8a21 21 0 0 1 8.8-10.6 21 21 0 0 1 14.6-2.7 22.4 22.4 0 0 1-10 11 22.3 22.3 0 0 1-13.3 2.3zm-8.4-23.2a21 21 0 0 1 11.8-7c5-1 10.3 0 14.7 2.5a22.4 22.4 0 0 1-13.2 6.8c-4.5.7-9.2-.2-13.3-2.3zm0-24.7a21 21 0 0 1 13.5-2.5c5 .8 9.7 3.4 13 7.3-4.6 2.3-9.9 3-14.8 2a22.3 22.3 0 0 1-11.7-6.8zm8.4-23.2a21 21 0 0 1 13.5 2.3 21 21 0 0 1 9.7 11.3 22.4 22.4 0 0 1-14.5-3.2 22.3 22.3 0 0 1-8.7-10.4zm15.8-18.9a21 21 0 0 1 12 6.7 21 21 0 0 1 5.2 14 22.4 22.4 0 0 1-12.5-8 22.3 22.3 0 0 1-4.7-12.7zm21.4-12.4a21 21 0 0 1 8.9 10.4 21 21 0 0 1 .1 15c-4.2-2.8-7.5-7-9-11.9a22.3 22.3 0 0 1 0-13.5z"/><path fill="#573313" d="M271.5 141.1a48.6 48.8 0 0 0-48.7 48.9 48.6 48.8 0 0 0 48.7 48.8 48.6 48.8 0 0 0 48.6-48.9 48.6 48.8 0 0 0-48.6-48.8zm0 9.5a39.2 39.4 0 0 1 39.1 39.4 39.2 39.4 0 0 1-39.1 39.3 39.2 39.4 0 0 1-39.2-39.4 39.2 39.4 0 0 1 39.2-39.3z"/><path fill="#573313" d="M271.5 162.4A27.4 27.5 0 0 0 244 190a27.4 27.5 0 0 0 27.4 27.5 27.4 27.5 0 0 0 27.4-27.5 27.4 27.5 0 0 0-27.4-27.6zm-10.5 8.1a4.5 6 45.7 0 1 2.8 1.2 4.5 6 45.7 0 1-1.4 7.5 4.5 6 45.7 0 1-7.5.8 4.5 6 45.7 0 1 1.4-7.5 4.5 6 45.7 0 1 4.7-2zm-8.8 11.5a2.6 2.6 0 0 1 2.6 2.6 2.6 2.6 0 0 1-2.6 2.6 2.6 2.6 0 0 1-2.6-2.6 2.6 2.6 0 0 1 2.6-2.6z"/></svg>