<svg xmlns="http://www.w3.org/2000/svg" viewBox="0 0 1024 1024"><g><path fill="#573313" d="M285.67 72.66c-4.79 0-46.42 23.08-70.94 39.34-46.22 30.63-73.85 56.3-113.98 105.91L84.97 237.4l-3.9 21.81c-4.39 24.47-5.44 64.26-2.25 84.6 3.32 21.16 11.53 45.64 19.44 57.92 1.33 2.07 2.75 3.43 3.15 3.03.42-.4 1.78-9.14 3.06-19.42 10.6-85.41 43.62-157.75 106.63-233.62C228.85 130.35 262.7 96 277.7 84.15c4.76-3.75 8.65-7.87 8.65-9.15 0-1.29-.31-2.34-.69-2.34zm455.34 1.53c-.37 0-.63.07-.78.22-1.21 1.2 1.76 4.76 9.8 11.76 36.15 31.5 82.04 84.74 107.43 124.64 36.95 58.05 57.18 116.17 63.85 183.47.63 6.32 1.79 10.72 2.67 10.18 3.18-1.98 13.18-24.27 17.11-38.2 9.25-32.66 9.69-68.9 1.35-112.41-3.26-17.04-9.32-26.57-37.17-58.47-37.6-43.05-79.78-76.27-137.87-108.55-15.53-8.63-23.77-12.6-26.39-12.64zm214.6 190.14c-.45.44.1 9.2 1.19 19.46 3.04 28.61-.13 65.13-7.8 89.4-4.85 15.41-9.96 26-18.83 39.11-6.14 9.04-6.37 9.87-6.37 23.2 0 13.34.15 13.9 4.33 15.8 5.46 2.5 6.95 1.24 22.4-18.7 13.06-16.8 28.08-46.09 31.32-60.98 1.77-8.17 2.77-9.98 5.82-10.4 4.52-.66 4.77 2.97 1.2 16.75-5.87 22.46-19.69 47.16-39.32 70.2l-9.07 10.65 8.77 9.2c11.75 12.33 17.57 21.81 34.38 55.96 8.34 16.94 18.4 34.54 24.44 42.72 12.2 16.48 11.48 17.36 14.63-18.05 2.46-27.86 1.3-79.36-2.42-106.7-7.75-57.02-27.08-114.1-55.4-163.6-4.67-8.14-8.85-14.46-9.28-14.02zm-889.05 3.98c-2.11.18-6.79 9.84-16.5 29.2C8.11 380.97-8.39 479.85 4.02 573.41l1.1 8.31 4.65-5.19c9.54-10.7 19.7-28 35.88-61.13 15.13-31 17.7-35.19 28.08-45.99l11.43-11.9-11.06-12.48c-15.03-16.9-18.93-22.45-26.41-37.5-7.73-15.53-13.35-33.14-13.35-41.86 0-5.28.56-6.41 3.25-6.41 2.23 0 3.59 1.44 4.27 4.52 7 31.75 16.43 50.07 38.94 75.66 11.83 13.43 11.85 13.45 16.46 11.06 4.48-2.31 4.61-2.76 4.61-15.84 0-11.98-.44-13.92-4-17.67-5.37-5.67-16.4-26.6-20.5-38.94-1.86-5.52-4.96-19.24-6.92-30.48-3.1-17.75-3.46-24.53-2.72-51.62.5-18.55.94-27.84-1.18-27.65zm908.35 182.36c2.18.28 5.35 2.1 9.36 5.43 4.34 3.6 10.68 7.44 14.07 8.52 6.6 2.1 7.32 3.2 4.2 6.33-3.38 3.37-7.15 2.23-19.27-5.78-7.4-4.9-11.7-8.86-11.7-10.76 0-2.8 1.17-4.03 3.34-3.74zm-925.13.2c1.67.11 2.68 1.13 2.68 3.14 0 2.58-11.57 12.33-19.26 16.23h-.01c-5.97 3.05-11.34 3.47-12.85 1.03-1.57-2.55.51-4.76 7.12-7.52a41.18 41.18 0 0 0 10.18-6.36c4.76-4.42 9.36-6.73 12.14-6.53zm962.47 165.94c-.4-.39-5.08 2.92-10.4 7.37-20.77 17.3-53.04 34.1-82.84 43.13l-18.03 5.47 5.39 10.84c8.46 17.06 11.39 29.81 11.52 50.37.1 10.56-.83 21.9-2.17 27.18-13.6 53.47-59.3 93.48-110.35 96.67-7.78.48-18.05.15-22.8-.73-8.62-1.6-8.66-1.58-8.8 2.7-.68 21.47-12.77 56.21-20.04 57.56-4.85.88-5.17-4.42-.77-12.58 6.98-12.95 11.07-28.98 11.07-43.37v-13.04l-4.53 2.3c-14.28 7.22-39.23 7.61-57.61.9-5.63-2.05-10.66-3.33-11.17-2.83-.49.49-6.13 16-12.53 34.49-14.65 42.31-23.04 60.77-27.6 60.77-5.17 0-5.71-2.85-1.94-10.11 4.33-8.29 18.35-43 17.65-43.7-1.06-1.07-20.33 14.05-26.17 20.55-8.9 9.87-15.23 23.58-22.7 49.1-3.62 12.4-6.59 23.26-6.59 24.14 0 6.27 80.74-16.57 120.27-34 122.95-54.24 214.81-150.01 264.2-275.45 8.39-21.31 18.59-56.07 16.94-57.73zm-998.79 1.64c-1.38 1.37 5.42 25.54 13.76 48.84 22.86 63.88 64.31 128.75 115.26 180.35 59.89 60.67 154.22 111.32 248.47 133.41l.01.01c9.07 2.12 18.41 3.93 20.78 4l4.28.13-7.7-25.93c-8.47-28.58-11.48-35.36-21.2-47.65-5.86-7.4-26.1-23.01-27.74-21.38-.35.34 3.14 9.8 7.77 21.04 12.49 30.33 12.26 29.58 9.63 31.26a9.74 9.74 0 0 1-4.06 1.47c-2.06.02-15.4-30.68-20.55-47.24-1.9-6.18-6.45-19.82-10.07-30.32l-6.59-19.11-10.16 4.29c-8.95 3.77-12.4 4.27-29.1 4.27-16.02 0-20.15-.55-26.76-3.6l-7.82-3.63.02 11.86a95.13 95.13 0 0 0 9.95 42.51c5.37 10.61 5.38 14.64.05 14.64-6.29 0-16.66-27.04-19.1-49.78l-1.14-10.79-13.81.87c-23.9 1.48-51.15-5.08-69.74-16.83-3.7-2.32-6.7-3.9-6.7-3.48 0 2.28-24.53-22.82-30.5-31.2-17.35-24.41-23.11-43-22.95-74.12.12-22.64 2.2-31.7 11.6-50.47l3.83-7.66-16-5.32a285.2 285.2 0 0 1-83.23-44.02c-5.26-4.03-9.99-6.92-10.49-6.42zm25.6 30.02c.8-.47 6.16 2.95 11.95 7.6 11.63 9.37 29.86 18.48 40.45 20.22 3.77.61 7.26 2.16 7.74 3.42.48 1.26-1.33 8.7-4.05 16.55-6.1 17.57-9.14 30.86-10.58 46.27-1.12 11.78-3.37 15.42-7.2 11.59-4.1-4.1 0-33.4 7.74-55.24l4.69-13.25-11.76-4.27c-23.55-8.6-46.69-28.1-38.98-32.89zm945.26.7c4.48 0 1.69 6.5-5.83 13.53-10.59 9.92-18.86 15.07-31.21 19.47-5.67 2.03-10.3 4.55-10.3 5.62 0 1.1 1.81 7.3 4.04 13.84 3.52 10.34 4.91 17.84 8.3 44.6.41 3.12-.08 6.64-1.06 7.83v.01c-4.63 5.56-6.15 2.4-8.27-17.2-1.14-10.34-4.06-23.04-8.23-35.64-3.57-10.78-6.13-20.5-5.7-21.62.42-1.12 4.16-2.53 8.3-3.16 9.88-1.48 27.57-10.51 38.85-19.82 4.98-4.1 9.98-7.46 11.11-7.46zm-97.84 27.36c-2.15-.1-4.85.05-8.42.27-7 .43-12.91.93-13.14 1.14-.24.18 3.16 7.39 7.56 16 4.39 8.61 9.2 20.56 10.71 26.56 9.92 39.5-8.88 81.6-44.21 99.08-15.39 7.6-29.61 10.72-49.01 10.75l-16.06.03v7.31c0 4.03.86 7.84 1.89 8.48 1.03.64 6.03 1.64 11.11 2.23h.02c18.6 2.2 44.52-3.36 62.86-13.46 13.28-7.3 31.84-24.62 40.8-38.06 21.03-31.61 24.46-76.51 8.3-108.69-4.51-8.96-5.95-11.37-12.4-11.64zm-754.79.63-4.88 10.3c-13.16 27.73-14.67 56.46-4.45 84.63 7.38 20.3 24.22 42.77 40.23 53.66 4.2 2.87 8.02 5.64 8.47 6.14 1.9 2.15 17.97 9.8 26.36 12.54a111.03 111.03 0 0 0 18.93 4c9.7 1.01 29.31.53 33.36-.82 1.26-.42 2.05-3.73 2.05-8.57v-7.87l-16.89-.15c-48.4-.43-81.32-24.54-92.54-67.82-5.86-22.64-2.14-46.93 10.79-70.53 3.52-6.42 6.41-12.53 6.41-13.59 0-1.3-4.43-1.92-13.92-1.92H131.7zm-64 20.05c2.73.39 3.71 1.63 3.71 4.65 0 3.01-.98 4.27-3.7 4.64-4.06.57-6.34-2.95-4.71-7.23.6-1.56 2.48-2.37 4.7-2.06zm890.31.03c4.43-.63 6.6 3.6 3.68 7.14-2.34 2.8-3.25 2.94-6.33 1-3.33-2.12-1.57-7.54 2.65-8.14zM347.74 854.07c-.22.21 1.5 5.27 3.8 11.24 3.95 10.21 4.8 11.2 14.93 17.13 22.46 13.12 39.76 36.96 48.3 66.51 8.77 30.4 11.75 37.86 15.44 38.64l6.86 1.46c1.81.38 6.47.78 10.33.88l7.04.19-3.36-6.57c-1.84-3.6-7.4-18.47-12.34-33.03-4.94-14.54-11.41-31.03-14.38-36.6-6.32-11.87-23.31-29.38-36.01-37.12-13.68-8.33-40.17-23.16-40.61-22.73zm328.37 1.65c-1.9.07-6.35 2.62-14.52 7-44.79 24-59.81 41.18-72.9 83.33a464.78 464.78 0 0 1-10.87 31.1c-2.67 6.49-4.86 12.26-4.86 12.9.03 1.8 23.69-1.67 25.81-3.78 1.06-1.06 4.88-11.92 8.48-24.14 8.35-28.34 11.94-37.69 18.43-47.77 6.92-10.79 22.47-25.02 34.65-31.69 8.65-4.74 10.19-6.36 12.9-13.61 3.53-9.44 5.32-13.43 2.88-13.34zM572.96 990.05zm164.22-117.68c.65.2 1.22.75 1.59 1.72.53 1.38-.3 5.82-1.85 9.85-1.81 4.74-3.8 7.32-5.56 7.27-4.99-.16-24.98-10.2-24.98-12.55 0-4.33 5.34-4.33 14.23.03 4.9 2.4 9.17 4.37 9.48 4.37.33 0 1-2.13 1.54-4.74.8-4.02 3.58-6.56 5.55-5.95zm-448.18.81c1.84-.47 4.16 1.55 5.67 5.35a98.07 98.07 0 0 0 2.47 5.83c.19.25 3.92-1.43 8.32-3.77s9.45-4.03 11.2-3.78c6.96 1.05 3.79 4.43-9.53 10.14-7.65 3.3-14.3 6-14.76 6-1.32 0-5.92-16.95-4.99-18.44a2.75 2.75 0 0 1 1.62-1.33zm402.68 29.7c.69.04 1.32.8 2.43 2.28 1.73 2.33 1.86 3.72.51 5.35v.02c-2.36 2.84-3.83 2.76-6.42-.38-1.76-2.11-1.64-3.03.71-5.35 1.34-1.32 2.09-1.97 2.77-1.92zm-355.62.48c.79-.05 1.53.17 2.1.74 1.87 1.89.81 6.64-1.7 7.62v-.01c-4.5 1.72-5.62 1.12-5.62-2.93 0-2.78 2.84-5.3 5.22-5.42zM311.12 916c2.42 0 4.25 2.08 6.54 7.42 3.52 8.2 3.85 8.35 11.73 5.15 6.44-2.63 9.68-1.95 9.68 2.01 0 1.85-3.48 4.32-10.3 7.28-12.14 5.3-12.6 5.35-13.78 1.61a280.6 280.6 0 0 0-4.07-10.94c-4-10.2-3.95-12.53.2-12.53zm402.84 1.38c1.72.31 3.37.8 3.67 1.1.3.3-1.08 5.04-3.1 10.53-1.99 5.5-4.47 10.68-5.47 11.5-1.19.98-5.1.2-10.75-2.07-9.76-3.92-13.65-7.98-10.6-11.04 1.37-1.36 3.9-.93 9.7 1.64 4.3 1.9 7.99 3.28 8.18 3.03a102.48 102.48 0 0 0 2.8-7.84c1.91-5.77 3.14-7.29 5.57-6.85z"/><path fill="#975b27" d="M99.9 461.39c-3.63 0-20.78 14.47-26.89 22.67-3.18 4.29-13.16 22.82-22.17 41.18-16.67 34-21.5 42.18-34.1 57.78-3.9 4.84-7.1 10.2-7.1 11.94 0 1.72.74 3.14 1.65 3.14 2.9 0 14.83-11.83 13.74-13.61-.6-.95-.31-1.25.63-.67 1.77 1.1 12.66-9.8 21.08-21.1 2.7-3.6 9.57-12.45 15.28-19.61a247.6 247.6 0 0 0 17.1-24.74 480.7 480.7 0 0 1 12.7-20.67c3.27-4.93 5.76-9.57 5.53-10.28-.24-.73.52-1.13 1.65-.9 1.47.28 2.19-3.23 2.53-12.37.37-9.58-.04-12.76-1.64-12.76zm825.41 0c-.83 0-1.5 5.62-1.5 12.49 0 11.41.38 12.86 4.55 17 2.49 2.5 8.03 10.8 12.32 18.43 4.29 7.63 16.67 25.35 27.55 39.4 27.58 35.61 29.17 37.44 37.72 43.66 6.6 4.8 7.76 5.17 8.61 2.75.66-1.83-2.17-6.99-8.34-15.13-10.87-14.39-25.03-37.54-29.9-48.9-8.42-19.6-18.52-38.33-25.32-47-7.09-9.03-22.57-22.7-25.69-22.7zM101.8 499.06c-.16.03-.32.15-.49.35-.32.38-3.42 5.88-6.89 12.22-8.46 15.5-14.58 24.6-23.83 35.41a489 489 0 0 0-16.36 20.59c-4.72 6.34-10.95 14.13-13.83 17.3-10.62 11.78-11.6 9.82 11.64 23.55 40.6 24.01 53.79 28.8 49.71 18.1-2.69-7.08-6.1-10-16.14-13.74-18.03-6.74-24.9-13.48-24.9-24.43 0-9.07 3.32-14.1 19.36-29.42 15.77-15.07 20.51-17.72 22.47-12.63 1.46 3.81-.21 5.96-13.01 16.65-12.81 10.73-20.1 22.03-18.42 28.6.78 3.09 4.58 5.75 16.22 11.43 16.72 8.15 23.47 14.84 25.32 25.03.92 5.15.46 6.74-3.1 10.3-2.38 2.37-6.1 4.2-8.54 4.2-5.58 0-30.57-11.5-48.96-22.56-22.51-13.53-27.66-15.9-29.83-13.68-1.4 1.44-.21 3.33 4.72 7.6 20.3 17.56 62.39 40.4 87.66 47.6a201.07 201.07 0 0 0 28.47 5.54v-.01c18.57 1.9 21.41 2.04 21.41 1 0-.47-4.3-7.7-9.54-16.06-21.12-33.6-40.14-86.89-48.86-136.96-2.13-12.18-3.16-16.22-4.28-15.98zm819.97.38c-.96.62-1.4 3.35-1.92 7.84-.6 5.35-4.71 24.07-9.11 41.62-10.78 42.9-22.74 74.11-38.15 99.6a341.58 341.58 0 0 0-8.83 15.35l-2.74 5.3 7.92-1.05c51.14-6.81 87.23-21.35 125.95-50.7 6.63-5.02 10.63-9.19 10.13-10.5-1.39-3.6-4.2-2.67-21.3 7.01-23.05 13.08-48.04 25-56.08 26.76-9.77 2.13-14.37-.47-15.05-8.52-.98-11.93 13.58-28.46 27.82-31.6 2.66-.59 4.82-1.8 4.82-2.67 0-.88.63-1.22 1.4-.76 2.76 1.71 7.39-3.52 7.39-8.34 0-6.74-5.86-14.58-20.32-27.11-8.73-7.57-12.5-12.02-12.88-15.14-.93-7.87 4.7-5.1 21.58 10.6 17.88 16.63 20.95 21.2 20.95 31.1 0 10.73-3.58 15.7-14.05 19.63-5.03 1.87-9.74 3.42-10.5 3.42-3.05 0-16.63 14.44-16.63 17.68 0 3.38.21 3.36 12.2-1.26 13.26-5.1 47.89-23.36 54.88-28.93l4.34-3.47-11.63-13.83c-19.5-23.24-39.59-50.54-48.43-65.86-7.12-12.35-10.16-17.2-11.76-16.17zM852.13 682.3 835.9 702.7c-31.61 39.77-62.21 68.99-97.4 92.95-26.29 17.9-53.96 30.9-93.07 43.73-37.82 12.41-54.13 25.43-83.17 66.38-11.95 16.85-22.91 27.29-34.2 32.54-23.1 10.74-42.76-.11-69.12-38.2-15.27-22.06-34.09-40.37-50.17-48.8-6.5-3.42-24.03-10.22-38.94-15.12-39.74-13.08-69.95-28.93-101.6-53.3-19.88-15.32-66.07-62.25-81.35-82.66a1996.83 1996.83 0 0 0-13.48-17.92c-.31-.34-2.63 1.82-5.16 4.82-15.47 18.3-22.7 46.13-17.93 68.94 6.5 30.97 24.25 51.12 53.88 61.2 11.91 4.06 45.94 6.69 45.94 3.55 0-3.67-12.27-11.65-22-14.33-38.35-10.54-59.1-34.72-58.93-68.68.05-11.21 1.6-14.1 6.19-11.54 2.47 1.38 3.03 3.87 3.14 13.76.15 15.34 5.3 27.18 16.57 38.22 9.23 9.04 14.91 12.23 31.13 17.51 16.06 5.22 22.56 8.77 28.51 15.53 5.7 6.5 9.33 17.4 7.8 23.47-.86 3.5-.05 4.38 6.74 7.39 17.2 7.6 39.01 6.94 57.6-1.74 10.18-4.77 10.48-4.81 14.22-1.88 2.1 1.66 13.42 8.37 25.18 14.95 29.52 16.5 37.8 22.38 50.77 36.15 13.4 14.2 21.08 29 30.68 59.17 3.64 11.4 9.45 25.93 12.9 32.26 6.28 11.48 6.36 11.54 14.44 12.52a256.13 256.13 0 0 0 20.07 1.23c13.53.29 15.51-1.86 6.59-7.13-12.31-7.22-32.53-29.98-32.53-36.6 0-4.76 6.2-1.65 12.38 6.2 3.6 4.6 11.94 12.48 18.53 17.55 10.44 8.03 12.43 8.99 15.65 7.44 7.14-3.44 22.6-16.93 29.2-25.48 12.2-15.82 13.17-16.75 15.31-14.62 4.8 4.8-15.02 30.4-34.66 44.77-3.85 2.81-7 5.9-7 6.85 0 1.77 38.64.38 41.68-1.51 2.56-1.58 10.28-20.43 18.4-44.99 10.65-32.13 17.05-44.42 30.3-58.22 12.7-13.17 21.13-19.12 50.45-35.54 11.77-6.6 23.02-13.48 25-15.3l3.58-3.29 8.78 4.13c14.22 6.69 21.27 8.16 36.08 7.5 10.58-.47 15.81-1.6 22.1-4.71 8.12-4.04 8.24-4.22 9.21-13.2 1.9-17.68 9.08-24.4 35.26-32.9 16.12-5.24 21.93-8.44 30.6-16.87 9.75-9.5 16.35-26.24 16.35-41.58 0-9.04.44-10.66 3.27-11.54 5.24-1.68 6.6.41 6.6 10.14 0 10.36-3.73 26.35-8.2 35.05-7.67 14.95-21.52 24.65-50.67 35.48-13.06 4.84-18.89 8.73-19.52 13.01-.36 2.5 1.09 2.68 13.87 1.83 17.18-1.15 31.09-4.42 42.53-9.95 28.57-13.87 46.62-49.63 41.52-82.28-1.74-11.2-13.86-37.61-19.8-43.14l-3.87-3.62z"/></g><g><path fill="#975b27" d="M751.62 163.53c-2.11.19-4.38.85-6.69 2.05-4.9 2.53-6.29 4.8-12.34 20.3l-4 10.28 6.8-1c16.07-2.38 27.37-11.43 27.38-21.91.01-6.56-4.83-10.28-11.15-9.72zm-478.78.07c-6.29-.05-9.6 4.3-8.62 11.71 1.38 10.31 9.42 16.74 24.02 19.2l.01.01c4.15.7 8.24 1.36 9.05 1.47.82.1.27-1.16-1.24-2.82-1.5-1.66-3.91-7.05-5.35-11.95-3.18-10.83-7.6-15.94-15-17.33a16.3 16.3 0 0 0-2.87-.29zm532.75 63.12c-9.08-.05-12.45.82-21.9 5.66l-11.17 5.74 9.54 2.86c14.89 4.5 24.63 3.2 36.9-4.85l10.25-6.75-6.45-1.3c-3.54-.71-11.28-1.33-17.17-1.36zm-587.19.17c-7.25.09-14.99.88-17.19 1.76-3.8 1.52-3.44 1.92 7.42 8.44 12.86 7.72 15.8 8.05 33.52 3.78l12.24-2.94-11.4-5.61c-10.26-5.04-12.76-5.6-24.59-5.43zm-22.15 71.91c-2.74 0-5.22.66-6.78 2.07-4.85 4.4-4.26 14.04 1.18 19.48 4.26 4.26 6.87 5.34 15.4 6.35 6.28.75 11.52-.54 11.52-2.84 0-4.28-5.18-16.54-8.47-20.03-3-3.2-8.29-5.03-12.85-5.03zm635.24.2c-.8.04-1.68.14-2.64.31-3.27.6-7.3 1.79-8.97 2.64-3.25 1.69-10.93 16.72-10.96 21.47-.01 2.46 1.58 2.89 10.6 2.89 8.75 0 11.39-.68 15.09-3.86 3.68-3.14 4.48-5.22 4.48-11.44 0-8.85-1.97-12.23-7.6-12zm-22.57 24.42v.01zm-615.5 218.96c-8.06-.04-14.2 3.03-25.5 10.38l-13.75 8.93 12.35.67c20.1 1.09 29.73.05 34.88-3.76 2.57-1.89 7.3-5.23 10.51-7.42l5.86-3.97-6.27-1.64c-7.73-2.02-13.25-3.16-18.09-3.2zm638.35.22c-2.82.08-5.82.49-9.2 1.19-10.23 2.08-16.73 4.75-11.88 4.84 1.43.02 5.98 2.69 10.13 5.92 4.15 3.22 9.65 6.51 12.23 7.3 3.8 1.17 34.85.5 36.41-.8.25-.2-5.08-4.11-11.86-8.69-10.62-7.18-17.4-9.99-25.83-9.76zm-32.4 73.81c-1.71 0-3.5.06-5.35.19-11.08.8-16.22 2.54-11.96 4.06 1.1.4 6.85 4.47 12.76 9.04 10.05 7.75 11.77 8.45 25.2 10.41h-.01a1477.1 1477.1 0 0 0 15.97 2.27c.84.1-.3-1.85-2.57-4.34-2.26-2.5-6.1-7.24-8.52-10.56-5.44-7.44-13.6-11-25.53-11.07zm-570.52.02c-16.83-.46-24.97 5.18-34.85 22.24-.78 1.33 2 1.64 10 1.08 16.64-1.18 22.16-3.1 30.03-10.35 3.92-3.63 7.68-6.6 8.33-6.6.64 0 2.03-1.06 3.1-2.33 1.62-1.96.19-2.52-8.84-3.48a98.3 98.3 0 0 0-7.77-.56zM742.5 670.6c-2.84-.17-2.87.54-2.16 3.03l1.99 6.94c.53 1.88 3.3 4.83 6.17 6.6v-.02c2.87 1.75 6.97 3.18 9.13 3.18 3.6.01 3.84-.49 2.93-6.07-1.3-8.04-5.66-12.09-14.2-13.23-1.65-.22-2.91-.38-3.86-.43zm-460.84.05c-2.11-.01-5.03.81-8.25 2.48-4.64 2.39-5.98 4.45-8.8 13.5-1.34 4.3 1.78 4.9 10.23 1.95 4.97-1.73 10.26-9.65 10.26-15.37 0-1.69-1.32-2.54-3.44-2.56zM697 699.4l-.24 11.53c-.43 22.53.88 26.74 10.81 34.78a546.88 546.88 0 0 1 12.02 10.05h-.01c3.38 2.92 6.43 5.34 6.8 5.36 1.56.11-1.68-25.23-3.94-30.64-1.38-3.27-6.01-9.4-10.32-13.58-4.3-4.19-9.46-9.85-11.48-12.56l-3.64-4.94zm-369.34.71-4.6 6.23a97.25 97.25 0 0 1-9.89 11.18c-6.97 6.48-11.04 14.66-12.32 24.74-.6 4.5-1.43 10.61-1.89 13.55-.99 6.4.23 6.76 4.5 1.3 1.76-2.23 6.73-5.97 11.07-8.32 12.68-6.92 16.5-17.05 14.28-37.85l-1.15-10.83z"/><path fill="#573313" d="M514.26 29.17a.95.95 0 0 0-.37.06c-1.02.37-2.28 2.4-3.22 5.88-2.43 9.04-6.72 14.98-14.11 19.54-5.36 3.32-5.62 3.83-2.85 5.28 6.8 3.6 13.84 12.09 16.4 19.78v.01c1.92 5.79 3.1 7.49 4.11 5.89a10.99 10.99 0 0 0 1.46-4.9c.04-4.46 9.7-16.25 15.63-19.08l5.62-2.68-7.24-4.6c-7.3-4.63-14-14.7-14-21.07 0-2.75-.6-4.07-1.43-4.11zm-61.72 36.46c-.92-.01-1.77 1.85-2.77 5.53a29.1 29.1 0 0 1-7.22 12.16l-5.28 4.98 4.85 4.01c4.33 3.6 5.94 6.35 10.1 17.4 1.02 2.72 1.65 1.93 3.57-4.49 1.55-5.14 4.22-9.29 7.85-12.18l5.5-4.4-5.44-4.78c-2.99-2.63-6.32-7.53-7.39-10.88-1.48-4.63-2.58-7.05-3.58-7.32a.72.72 0 0 0-.19-.03zm119.84 1.91c-.97.08-1.87 1.6-2.64 4.59-.77 2.95-4.24 7.7-8 10.91l-6.62 5.69 5.7 3.37c4.22 2.47 6.5 5.54 8.64 11.61h.01c3.29 9.23 4.67 9.5 6.23 1.15.72-3.86 3.3-7.65 8-11.74 4.52-3.93 6.2-6.34 4.77-6.84-4.52-1.66-10.9-8.47-12.57-13.4-1.15-3.42-2.28-5.2-3.33-5.33h-.2zm-185.6 6.77h-.2c-.58.12-1 1.03-1.01 2.87-.04 6.55-7.82 19.46-14.55 24.1-7.04 4.89-8.65 7.6-4.5 7.6 6.74 0 16.56 14.95 19.82 30.13 1.36 6.31 3.58 4.33 4.89-4.35 1.4-9.42 9.13-21.45 15.59-24.32 2.82-1.24 5.12-2.74 5.12-3.34 0-.6-3.16-2.95-7.02-5.2-7.33-4.3-13.21-12.88-15.18-22.15-.7-3.3-2-5.27-2.96-5.34zm251.27.81c-1.14.03-2.25 2.3-3.47 6.85-2.01 7.49-11.21 18.55-18.98 22.83-2.76 1.5-2.44 2.07 3.24 5.77 8.22 5.34 13.15 12.89 15.63 23.95 1.1 4.93 2.58 8.95 3.27 8.95.7 0 2.11-4.07 3.14-9.06 2.06-9.87 6.9-16.74 16.85-23.95l6.25-4.53-7.2-4.21c-8.05-4.74-12.25-10.25-15.1-19.9-1.32-4.48-2.49-6.72-3.63-6.7zm72.34 50.13c-3.21.01-6.61 1.3-9.46 4.15-4.94 4.95-5.15 10.57-.63 16.32 7.22 9.18 21.3 3.21 21.3-9.02 0-6.84-4.9-11.14-10.57-11.43a12 12 0 0 0-.64-.02zm-392.7.1c-5.61 0-12.82 6.52-12.82 11.57 0 5.03 2.96 9.82 7.1 11.48v.01c5.7 2.3 8.62 1.9 13.27-1.76 8.46-6.65 3.27-21.3-7.54-21.3zm535.95 266.03-2.6 6.12c-1.43 3.37-2.62 6.77-2.62 7.55 0 2.7-11.8 13.21-17 15.16-12.32 4.59-12.28 4.54-4.76 5.81 10.18 1.73 19.16 8.86 22.63 17.94v-.01c1.59 4.15 3.15 7.54 3.46 7.54.31 0 1.73-2.76 3.14-6.14a41.53 41.53 0 0 1 6.2-10.11c4.26-4.63 15.24-10.01 20.52-10.06 6.24-.07 4.13-2.83-3.67-4.8-10-2.5-18.13-10.07-22.07-20.45l-3.23-8.55zm-681.98 1.1c-.96-.21-1.82 1.47-2.5 5.07-2.27 12.01-11.01 20.64-24.88 24.55l-6.6 1.86 8.4 1.95c11.43 2.64 17.99 7.74 22.44 17.44v-.02c4 8.74 6.23 10.36 6.23 4.55 0-8.42 10.2-17.89 23.75-22 5.56-1.7 6.15-2.24 3.42-3.18-16.16-5.56-24.12-12.56-27.16-23.9-1.08-3.99-2.14-6.1-3.1-6.32zM151.8 479.5c-7.13 0-11.63 5.07-11.63 13.08 0 4.84.92 7.15 3.64 9.06 11 7.7 25.09-1.64 20.85-13.8-2.07-5.94-5.78-8.34-12.86-8.34zm721.33 0c-6.32 0-13.17 6.42-13.17 12.36 0 2.33 1.82 6.08 4.04 8.3 2.56 2.55 5.92 4.04 9.13 4.04 6.33 0 13.18-6.42 13.18-12.36 0-5.92-6.85-12.34-13.18-12.34zM386.35 764.43a15.29 15.29 0 0 0-7.3 1.63c-7 3.75-7.31 17.5-.5 22.69 1.5 1.13 5.1 2.06 7.99 2.06 11.78 0 18.12-14.02 10.02-22.12a15.29 15.29 0 0 0-8.33-4.1 15.29 15.29 0 0 0-1.88-.16zm253.79.03c-7.99 0-12.42 4.7-12.42 13.17 0 4.4 1.09 7.69 3.29 9.89 7.77 7.77 23.06 1.22 23.06-9.89 0-7.14-6.39-13.17-13.93-13.17zM512.88 122.4c-.44.07-.83.6-1.14 1.62a517.8 517.8 0 0 0-2.7 10.06c-4.08 15.77-18.6 30.67-32.6 33.47-8.18 1.65-7.66 3.45 1.77 6.21 15.92 4.63 27.06 16.27 30.9 32.32h.01c1.08 4.52 2.83 8.22 3.87 8.22 1.03 0 3.16-4.3 4.7-9.57 4.67-15.9 15.55-27 30.07-30.69 3.77-.95 7.2-2.36 7.58-3.14.4-.76-2.84-2.76-7.2-4.4-16.16-6.15-27.7-18.79-30.81-33.81-1.38-6.66-3.13-10.52-4.45-10.3zm-53.21 82.02c-.5 0-2.34 3.15-4.14 7a22.68 22.68 0 0 1-9.18 10.3l-5.95 3.3 6.3 2.97c4.42 2.1 7.12 4.95 9.2 9.65v-.01c2.5 5.7 3.18 6.25 4.6 3.82 5.92-10.03 8.99-13.34 13.87-14.94l5.5-1.8-6.37-3.3a21.61 21.61 0 0 1-9.68-10.15c-1.8-3.76-3.67-6.84-4.15-6.84zm110.9.07c-1.17-.05-3.14 2.5-5.23 7.23-2.3 5.19-5.03 8.23-9.46 10.5-6.1 3.12-6.13 3.22-2.2 4.42 5.77 1.77 9.89 5.76 12.74 12.38l2.48 5.75 1.82-4.28c2.83-6.67 6.16-9.94 13.33-13.02l6.61-2.83-5.9-2.5c-6.63-2.8-13.05-10-13.05-14.64 0-2-.42-2.98-1.13-3z"/></g><path fill="#573313" d="M507.93 896.67c-8.05-2.2-11.74-5.2-14.84-12.03-2.78-6.14-3.12-11.2-3.14-47.5l-.05-40.6-26.18-.57c-33.5-.72-33.12-.46-33.12-22.17 0-22.52 1.85-23.64 39.13-23.67l20.17-.02v-29.39l-11.12-1.09c-63.65-6.27-122.4-33.12-167.22-76.41-53.11-51.31-81.78-114.1-84.66-185.46-2.51-62.04 12.8-119 45.13-168.03 36.02-54.6 86.2-94.28 149.15-117.89 13.48-5.05 14.65-5.23 17.2-2.7 3.32 3.33 3.9 2.78-10.44 9.94-37.15 18.61-72.23 60.9-90.28 108.85-9.74 25.88-14.58 69.86-10.9 99.11 3.9 31.06 16.47 63.56 35.81 92.72 24.06 36.26 65.81 64.16 110.06 73.54 18.17 3.85 57.59 3.93 77.18.14 65.02-12.55 115.44-57.71 139-124.52 13.8-39.1 13.82-89.86.05-133.42-15.65-49.54-53.37-96.68-93.63-117-11.04-5.57-12.35-7.02-8.88-9.9 2.07-1.73 5.03-1.15 16.85 3.32 21.12 7.93 54.03 25.05 70.62 36.74 21.2 14.9 64.89 58.94 77.79 78.43 19.66 29.7 34.51 67.04 41.67 104.77 5.44 28.65 5.45 77.48.02 104.32-14.42 71.33-51.84 130.27-109.04 171.73-37.18 26.96-89.22 46.73-132.19 50.2l-14.4 1.16v30.84l21 .1c32.9.14 36.58 2.64 36.62 24.83.02 9.96-.63 13.4-3.12 16.47-3.04 3.78-4.01 3.9-29.23 4.25l-26.1.36-.82 41.64c-.7 35.71-1.24 42.41-3.74 46.99-4.78 8.74-15.98 14.22-24.35 11.92zm15.6-219.83c9.95-9.94 10.02-22.37.25-43.27-4.81-10.3-6.03-14.97-6.34-24.29l-.37-11.53 15.3-1.47c17.35-1.66 16.63-2.04 24.4 12.75 4.92 9.4 6.9 26.56 4.18 36.52-.98 3.64-4.4 10.96-7.6 16.27-6.1 10.13-6.95 13.27-4.03 15.07 2.88 1.77 9.53-5.78 15.19-17.27 4.81-9.81 5.28-12.1 5.28-26.41 0-14.67-.4-16.52-6.04-28.33l-6.03-12.62 11.8-2.64c6.48-1.44 20.32-6.32 30.74-10.82 10.42-4.51 19.87-8.2 21.02-8.2 1.13-.02 5.42 1.55 9.52 3.48 9.49 4.45 14.7 13.2 17.02 28.56 1.7 11.2 4.96 17.78 10.54 21.3 1.96 1.24 3.3 1.2 4.65-.16 1.42-1.42 1-3.13-1.7-6.92-1.97-2.77-4.3-9.68-5.19-15.36-.9-5.68-2.36-12.65-3.27-15.47-2.11-6.61-12.03-16.52-19.09-19.07-3.01-1.1-5.5-2.39-5.5-2.9 0-.5 6.2-4.78 13.8-9.55l13.77-8.64 8.68 1.64c9.75 1.86 16.68 5.66 23.76 13.07l4.84 5.05-4.84.02c-7.83.05-9.72 2.2-9.34 10.73.48 11.12 5.98 19.89 14.52 23.16 11.57 4.41 18.81.64 18.81-9.81 0-4.93-1.5-9.03-5.47-15.03-3.01-4.53-7.47-11.4-9.9-15.25-5.24-8.26-19.07-17.85-28.1-19.47l-6.42-1.16 8.89-8.14 8.89-8.12 14.2.53c14.12.54 14.22.56 21.77 7.54 8.84 8.14 16.78 9.61 27.8 5.16 13.73-5.56-.13-24.23-19.17-25.8-7.27-.6-9.26-.17-11.9 2.68-2.84 3.04-4.45 3.3-14.9 2.43l-11.72-.98 5.51-8.6c3.03-4.75 7.5-12.24 9.94-16.67 6.4-11.73 13.37-18.32 22.55-21.37 7.6-2.52 8.5-2.52 14.59.25 19.81 8.92 39.14-4 24.45-16.36-10.08-8.49-25.9-7.55-28.65 1.7-1.26 4.25-2.55 5.29-7.42 5.98a49.93 49.93 0 0 0-9.05 2.11c-2.66 1.07-2.96.76-1.85-1.9.73-1.74 3.42-10.85 6-20.24 2.56-9.4 5.78-18.8 7.16-20.87 1.36-2.09 6.23-5.84 10.8-8.33 4.58-2.5 9.79-6.91 11.57-9.8 3.95-6.38 4.32-18.65.76-25.53-2.47-4.74-13.02-11.45-18.02-11.45-3.69 0-3.28-10.21.72-18.05 7.61-14.93 5.39-27.3-6.8-37.73-3.73-3.2-7.84-8.35-9.15-11.48-2.14-5.1-2.64-5.43-4.9-3.17-4.34 4.35-1.2 12.63 8.08 21.29 7.33 6.84 8.24 8.42 8.16 14.35-.05 3.67-1.62 10.12-3.5 14.33-2.23 5.07-3.39 11.17-3.39 17.85v10.19h5.66c7.82 0 13.48 3.4 16.6 9.98 4.41 9.3.55 16.22-12.84 23.01-9.52 4.83-13.23 10.51-16.94 25.96-9.24 38.42-28.48 71.85-56.93 98.95-30.38 28.9-65.67 47.72-105.53 56.26-19.24 4.12-65.95 4.2-84.94.12-38.18-8.17-71.98-25.7-102.12-52.96-23.55-21.3-48.75-64.63-57.4-98.74-5.16-20.35-8.46-25.41-20.56-31.54-8.6-4.36-11.37-7.96-11.37-14.75 0-9.64 5.98-15.51 15.85-15.59 6.28-.05 6.87-.45 7.83-5.2 2.01-10.06 1.07-16.27-3.5-23.18-5.54-8.38-6.16-18.94-1.4-24.21 1.73-1.9 4-3.46 5.08-3.46 4.2 0 9.24-7.8 9.56-14.84.46-9.43-2.93-10.4-6.36-1.83a20.67 20.67 0 0 1-8.15 9.88c-12.4 7.3-14.9 20.46-6.97 36.59 2.49 5.08 4.52 11.11 4.52 13.42 0 3.47-.97 4.36-5.7 5.25-12.27 2.3-20.72 15.18-18.31 27.95 1.43 7.67 6.4 13.28 16.6 18.79 8.92 4.81 8.13 3.32 17.81 34.07a444.16 444.16 0 0 0 5.3 16.1c1.01 2.58.64 2.71-3.26 1.24a34.11 34.11 0 0 0-10.06-1.68c-4.9 0-5.66-.54-5.66-4 0-2.39-1.82-5.42-4.53-7.57-3.74-2.96-6.1-3.45-13.45-2.84-7.52.61-9.68 1.57-13.7 6.06-5.66 6.34-5.45 10.87.72 15.46 5.59 4.15 16.68 4.38 24.4.53 6.2-3.1 10.9-2.59 22.11 2.38 5.44 2.39 8.4 5.4 13.3 13.42a447 447 0 0 0 13.52 20.55l7.23 10.23-13.69.49c-9.82.34-14.16-.13-15.39-1.7-2.9-3.69-14.84-4.33-22.96-1.22-12.03 4.59-19.71 16.97-13.63 21.97 3.6 2.95 16.17 5.57 21.33 4.43 2.72-.6 7.94-4.17 11.59-7.92l6.63-6.84 15.84-.53 15.87-.52 7.06 7.24 7.06 7.24-9.95 2.77c-11.47 3.18-20.4 10.94-27.23 23.69a252.5 252.5 0 0 1-7.4 12.82 36.75 36.75 0 0 0-4.2 11.67c-1.46 9.04 1.75 12.2 12.31 12.2 12.4 0 17.6-5.5 21.27-22.47 1.92-8.9.28-11.2-7.9-11.2-3.67 0-6.67-.57-6.67-1.26 0-3.46 14.6-15.95 20.59-17.58 12.8-3.52 17.41-2.5 30.88 6.88l12.52 8.72-7.5 3.98c-10.18 5.4-14.7 12.9-17.87 29.67-1.46 7.68-4.16 16.45-6.02 19.45-3.96 6.44-2.2 10.01 3.44 6.98 5.08-2.72 8.33-10.17 10.98-25.2 2.69-15.35 6.68-20.88 18.2-25.28l7-2.68 19.61 8.42c10.78 4.62 20.4 8.4 21.36 8.4.97 0 6.6 1.5 12.52 3.32l10.73 3.32-4.77 9.44c-9 17.76-9.55 40.7-1.4 57.53 6.58 13.58 14.96 20.78 17.26 14.82.46-1.2-1.76-6.48-4.94-11.77-8.27-13.73-9.67-19.18-8.83-34.45.6-10.94 1.73-15.3 6.1-23.89l5.36-10.52 9.98 1.04c5.5.58 12.85 1.04 16.35 1.04h6.34v12.28c0 10.94-.66 13.54-6.04 23.82-9.86 18.88-9.34 36.4 1.33 45.4 7.05 5.9 13.2 5.43 20.22-1.58zm-106.06-24.32c8.65-5.87 10.62-14.15 7.57-31.83-1.36-7.89-3.1-14.97-3.87-15.73-3-3-16.75 11.88-24.08 26.06-8.87 17.15 5.08 31.86 20.37 21.5zm208.4-.34c4.81-4.82 5.37-13.27 1.36-21.16-4.53-8.9-18.91-27.5-21.3-27.5-2.9 0-5.57 9.45-6.78 24-.76 9.19-.35 12.95 1.94 17.76 5.15 10.86 17.4 14.27 24.77 6.9z"/><g><path fill="#975b27" d="M511.8 253.42a39.7 39.7 0 0 1 9.1 24.24 39.77 39.77 0 0 1-9.38 26.47 42.16 42.16 0 0 1-8.41-26.76 42.1 42.1 0 0 1 8.69-23.95zm45.84 8.02a39.7 39.7 0 0 1 .27 25.88 39.77 39.77 0 0 1-17.87 21.67 42.16 42.16 0 0 1 1.26-28.02 42.1 42.1 0 0 1 16.34-19.53zm40.34 23.2a39.6 39.6 0 0 1-8.6 24.42 39.77 39.77 0 0 1-24.2 14.26 42.16 42.16 0 0 1 10.76-25.9 42.1 42.1 0 0 1 22.04-12.78zm29.98 35.6a39.7 39.7 0 0 1-16.44 20.01 39.77 39.77 0 0 1-27.62 5.1 42.16 42.16 0 0 1 18.97-20.64 42.1 42.1 0 0 1 25.09-4.46zm15.98 43.73a39.7 39.7 0 0 1-22.28 13.16 39.77 39.77 0 0 1-27.72-4.65 42.16 42.16 0 0 1 24.9-12.91 42.04 42.04 0 0 1 25.1 4.4zm.07 46.53a39.7 39.7 0 0 1-25.45 4.76 39.77 39.77 0 0 1-24.44-13.84 42.16 42.16 0 0 1 27.8-3.64 42.1 42.1 0 0 1 22.1 12.74zm-15.85 43.76a39.72 39.72 0 0 1-25.54-4.24 39.77 39.77 0 0 1-18.23-21.36 42.18 42.18 0 0 1 27.36 6.1 42.1 42.1 0 0 1 16.4 19.5zm-29.87 35.7a39.7 39.7 0 0 1-22.55-12.72 39.77 39.77 0 0 1-9.82-26.31 42.16 42.16 0 0 1 23.63 15.09 42.1 42.1 0 0 1 8.74 23.94zm-40.27 23.32a39.7 39.7 0 0 1-16.85-19.65 39.77 39.77 0 0 1-.23-28.1A42.16 42.16 0 0 1 558 487.82a42.11 42.11 0 0 1 .03 25.47zm-45.82 8.15a39.7 39.7 0 0 1-9.1-24.23 39.77 39.77 0 0 1 9.38-26.47 42.16 42.16 0 0 1 8.4 26.76 42.1 42.1 0 0 1-8.68 23.95zm-45.84-8.01a39.7 39.7 0 0 1-.27-25.88 39.77 39.77 0 0 1 17.87-21.67 42.16 42.16 0 0 1-1.26 28.01 42.1 42.1 0 0 1-16.34 19.54zm-40.34-23.2a39.6 39.6 0 0 1 8.6-24.42 39.77 39.77 0 0 1 24.2-14.26 42.16 42.16 0 0 1-10.76 25.9 42.1 42.1 0 0 1-22.04 12.78zm-29.98-35.6a39.7 39.7 0 0 1 16.44-20.01 39.77 39.77 0 0 1 27.62-5.12 42.16 42.16 0 0 1-18.97 20.66 42.1 42.1 0 0 1-25.09 4.46zm-15.98-43.71a39.7 39.7 0 0 1 22.28-13.18 39.77 39.77 0 0 1 27.72 4.64 42.16 42.16 0 0 1-24.9 12.92 42.04 42.04 0 0 1-25.1-4.4zm-.07-46.55a39.7 39.7 0 0 1 25.45-4.76 39.77 39.77 0 0 1 24.44 13.84 42.16 42.16 0 0 1-27.8 3.64 42.1 42.1 0 0 1-22.1-12.74zm15.85-43.76c8.68-1.5 17.82.03 25.54 4.24a39.77 39.77 0 0 1 18.23 21.36 42.16 42.16 0 0 1-27.36-6.1 42.1 42.1 0 0 1-16.4-19.5zm29.87-35.7a39.7 39.7 0 0 1 22.55 12.7 39.77 39.77 0 0 1 9.82 26.33 42.16 42.16 0 0 1-23.64-15.09 42.1 42.1 0 0 1-8.73-23.94zm40.27-23.33a39.7 39.7 0 0 1 16.85 19.66 39.77 39.77 0 0 1 .22 28.1A42.16 42.16 0 0 1 466 287.04a42.11 42.11 0 0 1-.02-25.48z"/><path fill="#573313" d="M512 295.33a91.71 92.1 0 0 0-91.71 92.1 91.71 92.1 0 0 0 91.71 92.1 91.71 92.1 0 0 0 91.71-92.1 91.71 92.1 0 0 0-91.71-92.1zm0 17.89a73.9 74.21 0 0 1 73.9 74.21 73.9 74.21 0 0 1-73.9 74.21 73.9 74.21 0 0 1-73.9-74.21 73.9 74.21 0 0 1 73.9-74.22z"/><path fill="#573313" d="M512 335.53a51.68 51.9 0 0 0-51.68 51.9 51.68 51.9 0 0 0 51.68 51.9 51.68 51.9 0 0 0 51.68-51.91 51.68 51.9 0 0 0-51.68-51.9zm-19.67 15.27a8.55 11.44 45.73 0 1 5.21 2.27 8.55 11.44 45.73 0 1-2.67 14.15 8.55 11.44 45.73 0 1-14.08 1.44 8.55 11.44 45.73 0 1 2.67-14.16 8.55 11.44 45.73 0 1 8.87-3.7zm-16.68 21.63a4.87 4.87 0 0 1 4.86 4.87 4.87 4.87 0 0 1-4.86 4.86 4.87 4.87 0 0 1-4.87-4.86 4.87 4.87 0 0 1 4.87-4.88z"/></g></svg>