<svg xmlns="http://www.w3.org/2000/svg" viewBox="0 0 512 512"><g fill="#975b27"><path d="M502.97 296.19c-4.27-3.11-5.07-4.03-18.86-21.84-5.44-7.02-11.63-15.88-13.78-19.7-2.13-3.81-4.9-7.95-6.16-9.2-2.08-2.08-2.26-2.8-2.26-8.51 0-3.44.33-6.25.74-6.25 1.57 0 9.3 6.84 12.85 11.35 3.4 4.34 8.45 13.7 12.65 23.5 2.44 5.68 9.53 17.26 14.96 24.45 3.07 4.08 4.5 6.66 4.17 7.57-.42 1.2-1 1.02-4.3-1.37zM4.82 297.48c0-.87 1.6-3.55 3.56-5.97 6.3-7.8 8.71-11.9 17.05-28.89 4.5-9.18 9.49-18.44 11.08-20.58 3.05-4.11 11.62-11.35 13.44-11.35.8 0 1 1.6.83 6.4-.17 4.56-.54 6.31-1.28 6.17-.56-.12-.94.08-.82.45.1.36-1.13 2.68-2.77 5.15-1.63 2.46-4.49 7.12-6.34 10.33a123.8 123.8 0 0 1-8.55 12.37c-2.86 3.59-6.29 8-7.64 9.8-4.22 5.65-9.66 11.1-10.54 10.55-.47-.28-.62-.13-.32.34.54.89-5.43 6.8-6.88 6.8-.45 0-.82-.7-.82-1.57zm427.06 34.44c.76-1.46 2.74-4.91 4.41-7.67 7.71-12.74 13.68-28.35 19.07-49.79 2.2-8.78 4.26-18.14 4.56-20.81.67-6 1.14-5.72 6.84 4.15 4.42 7.67 14.45 21.31 24.22 32.94l5.8 6.91-2.16 1.73c-3.5 2.8-20.8 11.92-27.44 14.48-6 2.3-6.1 2.31-6.1.62 0-1.62 6.79-8.84 8.31-8.84.38 0 2.75-.77 5.26-1.7 5.24-1.97 7.02-4.46 7.02-9.83 0-4.95-1.54-7.22-10.47-15.53-8.45-7.87-11.25-9.25-10.8-5.32.2 1.57 2.08 3.79 6.45 7.58C474.07 287.1 477 291 477 294.38c0 2.42-2.3 5.03-3.7 4.19-.38-.25-.7-.08-.7.37 0 .44-1.08 1.04-2.4 1.34-7.13 1.56-14.4 9.83-13.92 15.8.34 4.02 2.64 5.33 7.53 4.26 4.03-.9 16.52-6.84 28.05-13.38 8.55-4.84 9.96-5.3 10.65-3.52.25.67-1.76 2.75-5.07 5.26-19.36 14.68-37.4 21.95-62.98 25.35l-3.95.54zm-360.35 1.62c-3.85-.4-10.25-1.64-14.23-2.78-12.64-3.6-33.68-15-43.84-23.78-2.46-2.14-3.05-3.1-2.35-3.81 1.09-1.12 3.66.07 14.92 6.83 9.2 5.53 21.68 11.3 24.48 11.3 1.21 0 3.07-.93 4.26-2.11 1.78-1.79 2.02-2.58 1.55-5.15-.92-5.1-4.3-8.44-12.65-12.51-5.83-2.85-7.72-4.19-8.12-5.73-.84-3.28 2.81-8.93 9.22-14.3 6.4-5.34 7.23-6.41 6.5-8.31-.98-2.55-3.35-1.22-11.23 6.3-8.02 7.66-9.68 10.18-9.68 14.72 0 5.47 3.43 8.84 12.44 12.21 5.02 1.87 6.73 3.33 8.08 6.88 2.03 5.34-4.56 2.95-24.87-9.06-11.6-6.87-11.12-5.88-5.8-11.77 1.44-1.59 4.55-5.48 6.91-8.66 2.37-3.16 6.05-7.8 8.17-10.29 4.63-5.4 7.69-9.95 11.92-17.7 1.74-3.17 3.28-5.92 3.44-6.11.67-.8 1.17.85 2.39 7.82C57.4 282.56 66.9 309.2 77.46 326c2.63 4.18 4.78 7.8 4.78 8.03 0 .51-1.42.45-10.71-.5zM237.54 496.79c-4.04-.49-4.08-.52-7.21-6.26-1.74-3.17-4.65-10.43-6.46-16.13-4.8-15.08-8.63-22.48-15.34-29.58-6.5-6.89-10.63-9.84-25.39-18.08-5.87-3.28-11.54-6.65-12.59-7.47-1.87-1.47-2.02-1.45-7.11.94-9.3 4.34-20.2 4.66-28.8.86-3.39-1.5-3.8-1.95-3.36-3.69.75-3.03-1.06-8.48-3.9-11.74-2.97-3.37-6.23-5.15-14.26-7.76-8.1-2.64-10.94-4.23-15.56-8.76-5.64-5.52-8.22-11.44-8.3-19.1-.04-4.95-.33-6.2-1.56-6.88-2.3-1.29-3.07.17-3.1 5.76-.09 16.99 10.3 29.08 29.47 34.35 4.86 1.34 11 5.33 11 7.16 0 1.56-17.02.26-22.97-1.77-14.82-5.04-23.7-15.12-26.94-30.6-2.39-11.4 1.22-25.33 8.97-34.48 1.26-1.49 2.42-2.57 2.57-2.4.15.17 3.19 4.2 6.75 8.95 7.63 10.21 30.73 33.67 40.67 41.34 15.82 12.17 30.93 20.11 50.8 26.64 7.45 2.46 16.21 5.86 19.46 7.56 8.05 4.22 17.46 13.37 25.1 24.4 13.18 19.04 23.01 24.48 34.55 19.1 5.64-2.62 11.13-7.84 17.1-16.26 14.52-20.48 22.68-27 41.59-33.2 19.55-6.4 33.39-12.9 46.53-21.86 17.6-11.98 32.9-26.59 48.7-46.47l8.12-10.22 1.93 1.81c2.97 2.78 9.03 15.98 9.9 21.58 2.55 16.32-6.48 34.2-20.76 41.13-5.72 2.78-12.68 4.4-21.26 4.98-6.4.43-7.12.34-6.93-.92.3-2.14 3.22-4.08 9.75-6.5 14.57-5.41 21.5-10.27 25.34-17.74 2.23-4.35 4.1-12.34 4.1-17.52 0-4.86-.68-5.91-3.3-5.08-1.41.45-1.64 1.26-1.64 5.77 0 7.67-3.3 16.06-8.17 20.8-4.34 4.2-7.24 5.8-15.31 8.43-13.08 4.25-16.68 7.6-17.63 16.45-.48 4.5-.54 4.58-4.6 6.6-3.14 1.56-5.76 2.12-11.05 2.35-7.4.34-10.93-.4-18.05-3.75l-4.37-2.06-1.8 1.65c-.98.9-6.62 4.35-12.5 7.64-14.65 8.22-18.88 11.2-25.22 17.78-6.63 6.89-9.83 13.04-15.15 29.11-4.07 12.27-7.92 21.7-9.2 22.5-1.52.93-20.84 1.63-20.84.75 0-.48 1.57-2.02 3.5-3.44 9.8-7.18 19.72-19.98 17.33-22.37-1.07-1.07-1.56-.6-7.66 7.3-3.3 4.28-11.03 11.02-14.6 12.75-1.6.77-2.6.3-7.82-3.72-3.3-2.54-7.46-6.48-9.27-8.78-3.09-3.92-6.19-5.47-6.19-3.1 0 3.3 10.11 14.7 16.26 18.3 4.47 2.63 3.47 3.71-3.29 3.56-3.29-.07-7.8-.34-10.03-.61zM366.3 92.95c3.02-7.76 3.71-8.89 6.17-10.16 4.6-2.38 8.93-.53 8.92 3.84 0 5.23-5.67 9.76-13.7 10.95l-3.4.5zm-222.18 4.31c-7.3-1.23-11.31-4.44-12.01-9.6-.57-4.24 1.68-6.47 5.75-5.7 3.7.68 5.91 3.24 7.5 8.66.72 2.45 1.92 5.13 2.68 5.96.75.84 1.03 1.47.62 1.42-.42-.05-2.45-.38-4.53-.74zM391.04 120.5l-4.78-1.44 5.58-2.86c4.73-2.43 6.41-2.86 10.95-2.83 2.95.01 6.82.31 8.59.67l3.23.66-5.13 3.37c-6.13 4.02-11.01 4.67-18.44 2.43zM104.32 118.55c-5.43-3.26-5.61-3.47-3.7-4.22 1.09-.44 4.96-.84 8.58-.89 5.92-.07 7.17.2 12.3 2.73l5.7 2.8-6.12 1.47c-8.85 2.13-10.33 1.97-16.77-1.9zm300.14 43.17c.01-2.37 3.85-9.9 5.48-10.73.84-.44 2.85-1.03 4.48-1.33 3.83-.69 5.13.79 5.13 5.85 0 3.1-.4 4.14-2.24 5.72-1.85 1.6-3.17 1.93-7.55 1.93-4.5 0-5.31-.22-5.3-1.44zm-301.44 1.64c-4.26-.51-5.56-1.05-7.7-3.19-2.72-2.71-3.01-7.54-.58-9.73 2.08-1.88 7.41-1.09 9.8 1.48 1.66 1.75 4.25 7.88 4.25 10.01 0 1.15-2.62 1.8-5.77 1.43z"/><path d="M416.53 280.92c-1.3-.4-4.04-2.03-6.11-3.64-2.07-1.62-4.36-2.95-5.08-2.96-2.43-.05.83-1.38 5.94-2.43 6.79-1.39 10.44-.49 17.52 4.3 3.38 2.28 6.06 4.24 5.93 4.34-.78.64-16.3.98-18.21.4zm-333.26.26-6.17-.33 6.86-4.47c9.04-5.88 11.49-6.29 21.8-3.59l3.13.81-2.93 2c-1.61 1.08-3.98 2.76-5.25 3.7-2.58 1.9-7.4 2.43-17.44 1.88zM97 319.33c5.65-9.74 10.16-12.03 21.32-10.84 4.51.49 5.22.77 4.41 1.75-.53.63-1.22 1.16-1.55 1.16-.32 0-2.2 1.48-4.16 3.3-3.94 3.63-6.7 4.58-15.01 5.18-4 .28-5.4.13-5.01-.55zm313 .72c-6.7-.97-7.56-1.32-12.59-5.2-2.95-2.28-5.83-4.32-6.37-4.52-2.14-.76.43-1.64 5.97-2.03 7.45-.54 12.32 1.19 15.43 5.44a78.67 78.67 0 0 0 4.26 5.28c1.13 1.24 1.71 2.22 1.28 2.18zm-35.75 23.52c-1.42-.87-2.81-2.34-3.08-3.3l-.99-3.46c-.48-1.66-.29-1.74 3-1.3 4.28.58 6.46 2.6 7.1 6.62.46 2.78.34 3.04-1.46 3.04-1.08 0-3.13-.73-4.57-1.6zm-241.93-.26c1.4-4.52 2.08-5.55 4.4-6.75 3.21-1.66 5.83-1.65 5.83.04 0 2.86-2.64 6.82-5.13 7.69-4.22 1.47-5.78 1.17-5.1-.98zm227.47 34.57a242.18 242.18 0 0 0-6-5.03c-4.97-4.02-5.62-6.12-5.4-17.4l.11-5.76 1.82 2.47c1 1.36 3.59 4.2 5.74 6.3 2.16 2.08 4.48 5.14 5.16 6.78 1.13 2.7 2.76 15.37 1.97 15.32-.19-.01-1.71-1.22-3.4-2.69zm-210.3.02c.22-1.47.64-4.52.94-6.77.64-5.05 2.68-9.13 6.16-12.38a48.62 48.62 0 0 0 4.94-5.58l2.3-3.12.59 5.42c1.1 10.4-.8 15.46-7.15 18.92-2.17 1.17-4.66 3.05-5.54 4.16-2.13 2.73-2.74 2.55-2.24-.65z"/><path d="M255.9 126.71a19.85 19.85 0 0 1 4.55 12.12c.12 4.78-1.59 9.6-4.7 13.25a21.08 21.08 0 0 1-4.19-13.4 21.04 21.04 0 0 1 4.34-11.97zm22.93 4a19.85 19.85 0 0 1 .13 12.95 19.88 19.88 0 0 1-8.94 10.84 21.08 21.08 0 0 1 .63-14c1.62-4 4.52-7.47 8.18-9.78zM299 142.34a19.86 19.86 0 0 1-4.3 12.2 19.88 19.88 0 0 1-12.1 7.13 21.08 21.08 0 0 1 5.37-12.95 21.05 21.05 0 0 1 11.03-6.38zm14.98 17.8a19.85 19.85 0 0 1-8.22 10 19.88 19.88 0 0 1-13.8 2.56 21.08 21.08 0 0 1 9.48-10.34 21.04 21.04 0 0 1 12.54-2.22zm8 21.85a19.9 19.9 0 0 1-11.16 6.6c-4.7.94-9.72.1-13.84-2.33a21.08 21.08 0 0 1 12.44-6.46c4.28-.59 8.72.2 12.55 2.2zm.03 23.27a19.92 19.92 0 0 1-12.73 2.38 19.88 19.88 0 0 1-12.22-6.92 21.08 21.08 0 0 1 13.9-1.81 21.04 21.04 0 0 1 11.05 6.35zm-7.93 21.88a19.87 19.87 0 0 1-12.77-2.11 19.88 19.88 0 0 1-9.12-10.69c4.74-.58 9.66.51 13.69 3.05a21.04 21.04 0 0 1 8.2 9.75zm-14.93 17.85a19.85 19.85 0 0 1-11.28-6.36 19.88 19.88 0 0 1-4.91-13.16 21.08 21.08 0 0 1 11.82 7.55 21.13 21.13 0 0 1 4.37 11.97zM279 256.65a19.85 19.85 0 0 1-8.42-9.84 19.88 19.88 0 0 1-.12-14.04 21.08 21.08 0 0 1 8.53 11.14c1.32 4.1 1.33 8.63.01 12.74zm-22.9 4.07a19.85 19.85 0 0 1-4.56-12.12 19.88 19.88 0 0 1 4.7-13.24 21.08 21.08 0 0 1 4.2 13.38 21.05 21.05 0 0 1-4.35 11.98zm-22.93-4a19.85 19.85 0 0 1-.14-12.95 19.88 19.88 0 0 1 8.95-10.84 21.08 21.08 0 0 1-.63 14.02 21.05 21.05 0 0 1-8.18 9.76zM213 245.1a19.86 19.86 0 0 1 4.3-12.2 19.88 19.88 0 0 1 12.1-7.13 21.08 21.08 0 0 1-5.38 12.96 21.05 21.05 0 0 1-11.02 6.38zm-14.98-17.8a19.85 19.85 0 0 1 8.21-10 19.88 19.88 0 0 1 13.81-2.55 21.08 21.08 0 0 1-9.48 10.33 21.05 21.05 0 0 1-12.54 2.23zm-8-21.84a19.81 19.81 0 0 1 11.15-6.6c4.7-.94 9.72-.1 13.85 2.33a21.08 21.08 0 0 1-12.45 6.45c-4.27.59-8.72-.18-12.55-2.18zm-.03-23.27a19.82 19.82 0 0 1 12.72-2.38 19.88 19.88 0 0 1 12.23 6.91 21.08 21.08 0 0 1-13.91 1.82 21.05 21.05 0 0 1-11.04-6.35zm7.93-21.9a19.87 19.87 0 0 1 12.77 2.13 19.88 19.88 0 0 1 9.12 10.68c-4.74.59-9.66-.5-13.7-3.04a21.04 21.04 0 0 1-8.2-9.76zm14.93-17.84c4.32.78 8.36 3.06 11.27 6.36a19.88 19.88 0 0 1 4.91 13.16 21.08 21.08 0 0 1-11.81-7.55 21.1 21.1 0 0 1-4.37-11.97zm20.13-11.66a19.85 19.85 0 0 1 8.43 9.83 19.88 19.88 0 0 1 .11 14.05 21.08 21.08 0 0 1-8.52-11.14 21.06 21.06 0 0 1-.02-12.75z"/></g><g fill="#573313"><path d="M460.66 197.15c-3.34-33.67-13.45-62.72-31.93-91.74-12.69-19.95-35.63-46.57-53.71-62.31-4.03-3.5-5.51-5.29-4.9-5.9.6-.6 4.71 1.29 13.58 6.21 29.05 16.15 50.14 32.75 68.93 54.28 13.93 15.95 16.96 20.72 18.6 29.24 4.16 21.75 3.93 39.87-.68 56.2-1.97 6.96-6.96 18.1-8.56 19.1-.44.27-1.02-1.93-1.34-5.08zm-411.53 3.72c-3.95-6.14-8.05-18.38-9.72-28.96-1.6-10.17-1.06-30.07 1.13-42.3l1.95-10.9 7.88-9.75c20.08-24.82 33.88-37.64 57-52.96 12.27-8.13 33.07-19.66 35.47-19.66.2 0 .34.52.34 1.16 0 .64-1.94 2.7-4.32 4.58-7.5 5.92-24.43 23.1-33.3 33.78-31.52 37.94-48.02 74.1-53.32 116.82-.64 5.13-1.32 9.5-1.53 9.7-.2.2-.9-.48-1.58-1.51z"/><path d="M504.04 283.35c-3.02-4.08-8.06-12.89-12.22-21.36-8.41-17.07-11.32-21.81-17.19-27.97l-4.39-4.6 4.54-5.33c9.81-11.53 16.73-23.87 19.65-35.1 1.8-6.89 1.66-8.7-.6-8.39-1.51.23-2.02 1.12-2.9 5.22-1.62 7.44-9.14 22.08-15.66 30.5-7.73 9.96-8.47 10.58-11.2 9.34-2.1-.96-2.17-1.24-2.17-7.9 0-6.67.12-7.1 3.19-11.6a68.28 68.28 0 0 0 9.42-19.56c3.82-12.14 5.41-30.4 3.89-44.7-.55-5.14-.82-9.51-.6-9.73.22-.22 2.3 2.93 4.64 7.01a229.13 229.13 0 0 1 27.7 81.8c1.86 13.66 2.44 39.41 1.2 53.35-1.56 17.7-1.2 17.26-7.3 9.02zm-2.77-47.87c1.56-1.57 1.2-2.12-2.1-3.17-1.7-.54-4.86-2.45-7.03-4.26-4.01-3.32-6.36-3.63-6.36-.84 0 .94 2.16 2.93 5.86 5.38 6.05 4 7.94 4.58 9.63 2.88zM2.01 286.71c-6.2-46.78 2.05-96.22 23.02-137.95 9.73-19.36 9.35-19.33 8.85-.78-.37 13.55-.2 16.93 1.35 25.81.98 5.62 2.54 12.49 3.46 15.24 2.05 6.17 7.57 16.64 10.26 19.48 1.77 1.87 2 2.84 2 8.83 0 6.54-.07 6.76-2.31 7.91-2.3 1.2-2.32 1.19-8.23-5.53-11.25-12.79-15.97-21.94-19.47-37.82-.33-1.54-1.02-2.26-2.13-2.26-1.35 0-1.63.56-1.63 3.2 0 4.37 2.8 13.17 6.67 20.94 3.75 7.5 5.7 10.28 13.2 18.75l5.54 6.24-5.71 5.95c-5.2 5.4-6.47 7.5-14.04 22.98-8.1 16.58-13.17 25.23-17.94 30.57l-2.32 2.6zm14.59-51.59c3.85-1.94 9.64-6.82 9.64-8.11 0-2.67-3.61-1.85-7.42 1.68a20.59 20.59 0 0 1-5.09 3.19c-3.3 1.38-4.34 2.48-3.55 3.76.75 1.22 3.44 1 6.42-.52zM393.46 424.2c-2.54-.3-5.04-.8-5.56-1.13-.52-.32-.94-2.23-.94-4.24v-3.65l8.03-.01c9.7-.02 16.8-1.58 24.5-5.38 17.67-8.74 27.07-29.8 22.1-49.54-.75-3-3.16-8.97-5.35-13.28-2.2-4.31-3.9-7.9-3.78-8 .11-.1 3.07-.35 6.57-.57 7.13-.43 7.41-.28 10.4 5.68 8.1 16.1 6.38 38.55-4.14 54.35-4.48 6.72-13.75 15.38-20.4 19.03-9.16 5.05-22.13 7.83-31.43 6.74zm-285.28.01a55.5 55.5 0 0 1-9.47-2c-4.2-1.37-12.23-5.19-13.17-6.26a57.57 57.57 0 0 0-4.24-3.07c-8-5.45-16.43-16.68-20.11-26.83-5.12-14.09-4.36-28.45 2.22-42.32l2.45-5.14h6.95c4.75 0 6.96.3 6.96.95 0 .53-1.44 3.59-3.2 6.8-6.47 11.8-8.33 23.94-5.4 35.26 5.62 21.64 22.06 33.7 46.27 33.91l8.45.08v3.94c0 2.41-.4 4.06-1.03 4.27-2.03.68-11.82.92-16.68.41z"/><path d="M305.43 492c0-.44 1.48-5.88 3.29-12.07 3.73-12.76 6.9-19.61 11.35-24.56 2.92-3.24 12.55-10.8 13.08-10.27.35.34-6.66 17.7-8.82 21.85-1.89 3.63-1.62 5.05.96 5.05 2.28 0 6.47-9.22 13.8-30.38 3.2-9.24 6.03-17 6.28-17.25s2.76.4 5.58 1.43c9.19 3.35 21.66 3.16 28.8-.46l2.27-1.14v6.52c0 7.19-2.05 15.2-5.54 21.67-2.2 4.09-2.04 6.73.39 6.3 3.63-.68 9.68-18.05 10.02-28.79.07-2.14.09-2.14 4.39-1.34 2.38.44 7.52.6 11.4.35 25.54-1.59 48.37-21.6 55.18-48.32.67-2.64 1.12-8.32 1.09-13.6-.08-10.27-1.53-16.64-5.77-25.18l-2.69-5.42 9.01-2.73c14.92-4.52 31.03-12.91 41.42-21.57 2.67-2.22 5-3.87 5.2-3.68.84.83-4.28 18.2-8.47 28.86-24.68 62.72-70.62 110.6-132.09 137.72-19.76 8.72-60.13 20.14-60.13 17.01zm51.84-27.5c1-2.74 1.7-5.1 1.55-5.25a5.94 5.94 0 0 0-1.84-.55c-1.21-.22-1.83.53-2.79 3.42a51.24 51.24 0 0 1-1.4 3.92c-.09.12-1.92-.56-4.09-1.52-2.9-1.28-4.16-1.49-4.84-.81-1.53 1.53.42 3.55 5.29 5.52 2.82 1.14 4.8 1.51 5.38 1.04.5-.42 1.74-3.01 2.74-5.76zm-9.96-9.24c.67-.81.6-1.5-.26-2.68-1.1-1.49-1.25-1.5-2.6-.18-1.17 1.16-1.23 1.62-.35 2.68 1.3 1.56 2.03 1.6 3.21.17zm21.15-13.29c.77-2.02 1.18-4.24.92-4.92-.73-1.93-3.03-.57-3.57 2.12-.26 1.3-.6 2.36-.76 2.36-.17 0-2.3-.98-4.74-2.18-4.45-2.18-7.12-2.19-7.12-.02 0 1.18 10 6.19 12.49 6.27.89.03 1.88-1.25 2.78-3.63zm105.67-64.93c.5-.6.74-2.36.54-3.92-1.7-13.39-2.4-17.13-4.16-22.3-1.1-3.27-2.01-6.38-2.01-6.92s2.31-1.8 5.14-2.82c6.17-2.2 10.3-4.77 15.6-9.73 3.76-3.52 5.17-6.76 2.92-6.76-.57 0-3.07 1.67-5.56 3.73-5.64 4.66-14.48 9.17-19.43 9.9-2.06.32-3.93 1.03-4.14 1.58-.22.56 1.07 5.42 2.85 10.81a90.5 90.5 0 0 1 4.11 17.83c1.06 9.8 1.83 11.38 4.14 8.6zm6.7-24.86c1.47-1.76.38-3.88-1.83-3.56-2.1.3-3 3-1.32 4.06 1.54.98 2 .91 3.16-.5zM195.49 490.53c-47.12-11.05-94.3-36.38-124.24-66.7-25.48-25.81-46.2-58.24-57.62-90.19-4.17-11.65-7.57-23.72-6.89-24.42.26-.25 2.62 1.2 5.25 3.22a142.6 142.6 0 0 0 41.61 22.01l8 2.66-1.91 3.82c-4.7 9.4-5.74 13.92-5.8 25.24-.08 15.56 2.8 24.86 11.48 37.06 2.97 4.2 15.23 16.74 15.23 15.6 0-.2 1.51.58 3.35 1.74 9.3 5.86 22.93 9.15 34.88 8.4l6.9-.42.58 5.39c1.22 11.37 6.4 24.9 9.54 24.9 2.67 0 2.66-2.02-.03-7.33a47.56 47.56 0 0 1-4.97-21.25l-.01-5.93 3.91 1.8c3.31 1.54 5.37 1.81 13.38 1.81 8.35 0 10.08-.25 14.55-2.14l5.08-2.14 3.3 9.55a612.71 612.71 0 0 1 5.03 15.16c2.58 8.28 9.25 23.64 10.27 23.62.5 0 1.41-.33 2.03-.74 1.32-.83 1.43-.46-4.81-15.63-2.31-5.6-4.06-10.33-3.88-10.51.81-.82 10.94 6.99 13.86 10.69 4.87 6.15 6.37 9.54 10.62 23.82l3.84 12.97-2.15-.07c-1.17-.03-5.85-.93-10.38-2zm-31.1-21.6c3.41-1.48 5.16-2.7 5.16-3.64 0-1.97-1.63-2.3-4.84-1-3.94 1.6-4.1 1.52-5.87-2.58-1.14-2.66-2.06-3.7-3.27-3.7-2.07 0-2.1 1.16-.1 6.26.87 2.21 1.79 4.67 2.04 5.47.59 1.87.81 1.84 6.9-.8zm3.86-13.07c1.26-.49 1.78-2.86.84-3.81-1.14-1.13-3.66.49-3.66 2.35 0 2 .57 2.31 2.82 1.46zm-14.67-12.39c6.65-2.85 8.25-4.55 4.76-5.06-.88-.13-3.4.71-5.6 1.89-2.2 1.16-4.06 2.01-4.16 1.88a53.6 53.6 0 0 1-1.23-2.91c-1-2.53-2.74-3.49-3.65-2.01-.46.74 1.84 9.22 2.5 9.22.23 0 3.55-1.35 7.38-3zM42.28 371.26c.73-7.7 2.25-14.34 5.3-23.14 1.36-3.91 2.26-7.63 2.03-8.27-.25-.63-1.99-1.4-3.88-1.7-5.3-.87-14.4-5.43-20.22-10.12-2.9-2.33-5.58-4.03-5.97-3.79-3.85 2.38 7.71 12.14 19.48 16.43l5.88 2.15-2.35 6.62c-3.85 10.92-5.9 25.57-3.85 27.62 1.9 1.91 3.03.1 3.58-5.8zm-6.57-20.32c0-1.5-.5-2.13-1.86-2.32-1.11-.17-2.05.25-2.35 1.02-.82 2.14.33 3.9 2.35 3.62 1.36-.19 1.86-.81 1.86-2.32z"/><path d="m218.53 494.52-3.43-.73c-1.84-.39-3.33-4.11-7.72-19.32-4.26-14.78-12.9-26.69-24.14-33.26-5.06-2.96-5.49-3.44-7.46-8.56-1.15-2.98-2-5.5-1.9-5.61.2-.22 13.46 7.2 20.3 11.36 6.35 3.87 14.84 12.63 18 18.56 1.5 2.79 4.73 11.03 7.2 18.3 2.47 7.29 5.25 14.71 6.17 16.51l1.68 3.29-3.53-.1a38.73 38.73 0 0 1-5.16-.44zm67.95.5c0-.3 1.1-3.2 2.43-6.45a231.28 231.28 0 0 0 5.43-15.55c6.55-21.07 14.06-29.65 36.46-41.66 9.34-5.01 8.95-5.22 5.82 3.17-1.35 3.63-2.12 4.44-6.46 6.8-6.08 3.34-13.86 10.45-17.32 15.85-3.24 5.04-5.04 9.72-9.2 23.88-1.81 6.12-3.72 11.55-4.25 12.07-1.06 1.06-12.9 2.8-12.9 1.9zM255.06 39.86c-1.29-3.85-4.8-8.09-8.2-9.9-1.4-.72-1.26-.97 1.42-2.62 3.7-2.3 5.84-5.26 7.06-9.78.94-3.48 2.51-4.05 2.51-.92 0 3.19 3.36 8.23 7 10.55l3.62 2.3-2.81 1.33c-2.97 1.41-7.8 7.31-7.81 9.54a5.5 5.5 0 0 1-.73 2.45c-.5.8-1.1-.05-2.06-2.95zm29.68 12c-1.08-3.03-2.22-4.56-4.32-5.8l-2.86-1.7 3.31-2.83c1.88-1.61 3.62-3.98 4-5.46.82-3.18 1.93-3.05 3.09.38.83 2.46 4.02 5.87 6.28 6.69.7.25-.13 1.46-2.39 3.42-2.34 2.05-3.63 3.94-4 5.87-.78 4.18-1.47 4.04-3.11-.57zm-58.63 3c-2.08-5.53-2.88-6.9-5.05-8.7l-2.42-2 2.64-2.5a14.54 14.54 0 0 0 3.6-6.07c1.07-3.93 1.8-3.73 3.28.9a14.8 14.8 0 0 0 3.7 5.45l2.72 2.39-2.75 2.2a12.04 12.04 0 0 0-3.93 6.09c-.96 3.2-1.28 3.6-1.79 2.24zm91.13 12.4c-1.24-5.53-3.7-9.3-7.82-11.98-2.84-1.84-3-2.13-1.62-2.88 3.89-2.13 8.49-7.67 9.49-11.4 1.22-4.55 2.23-4.58 3.55-.08 1.43 4.82 3.52 7.57 7.55 9.94l3.6 2.11-3.12 2.26c-4.99 3.6-7.4 7.04-8.42 11.97-.52 2.5-1.23 4.55-1.58 4.55-.34 0-1.09-2.01-1.63-4.49zm-124.06 2.25c-1.64-7.59-6.55-15.06-9.91-15.06-2.08 0-1.28-1.36 2.24-3.8 3.37-2.33 7.26-8.78 7.27-12.06.02-2.45 1.5-1.58 2.1 1.24.98 4.63 3.92 8.92 7.58 11.07 1.93 1.13 3.5 2.3 3.5 2.6 0 .3-1.14 1.05-2.55 1.67-3.23 1.44-7.1 7.46-7.8 12.16-.65 4.34-1.76 5.34-2.43 2.18zm156.97 3.36c-2.26-2.88-2.15-5.7.32-8.16 4.04-4.05 10.33-1.83 10.33 3.64 0 6.12-7.04 9.1-10.65 4.52zM156 74.21c-2.08-.84-3.56-3.23-3.56-5.74 0-2.53 3.6-5.78 6.41-5.78 5.4 0 8 7.31 3.77 10.64-2.33 1.83-3.78 2.02-6.62.88zM254.56 103.04a21.63 21.63 0 0 0-15.45-16.15c-4.72-1.38-4.98-2.3-.89-3.1 7.01-1.4 14.26-8.86 16.3-16.75.57-2.18 1.17-4.44 1.35-5.03.62-2.05 1.88-.1 2.8 4.33 1.56 7.52 7.32 13.84 15.4 16.92 2.18.82 3.8 1.8 3.6 2.2-.2.38-1.9 1.08-3.79 1.57-7.26 1.84-12.7 7.4-15.03 15.34-.78 2.63-1.83 4.78-2.35 4.78s-1.4-1.84-1.93-4.1zM283.21 119.51c-1.42-3.31-3.49-5.3-6.37-6.19-1.97-.6-1.94-.64 1.1-2.2 2.21-1.14 3.59-2.67 4.74-5.26 1.67-3.78 3.18-4.77 3.18-2.1 0 2.31 3.2 5.9 6.51 7.32l2.95 1.24-3.29 1.42c-3.58 1.54-5.26 3.17-6.67 6.5l-.9 2.15zm-55.26-.7a8.8 8.8 0 0 0-4.6-4.8l-3.14-1.5 2.97-1.65a11.34 11.34 0 0 0 4.59-5.15c.9-1.93 1.83-3.5 2.06-3.5.25 0 1.18 1.54 2.09 3.43a10.8 10.8 0 0 0 4.83 5.07l3.18 1.65-2.74.9c-2.45.8-3.98 2.45-6.94 7.47-.71 1.21-1.04.93-2.3-1.92zM424.65 221.99c-1.74-4.55-6.23-8.11-11.32-8.97-3.75-.65-3.78-.62 2.38-2.91 2.6-.97 8.5-6.23 8.5-7.58 0-.4.59-2.1 1.31-3.77l1.3-3.07 1.62 4.27c1.97 5.2 6.03 8.97 11.03 10.23 3.9.98 4.95 2.37 1.83 2.4-2.64.02-8.13 2.71-10.25 5.03-1 1.09-2.4 3.36-3.1 5.05-.71 1.7-1.42 3.08-1.57 3.08-.16 0-.94-1.7-1.73-3.77zm-340.39-.31c-2.22-4.85-5.5-7.4-11.21-8.72l-4.2-.98 3.3-.93c6.93-1.96 11.3-6.27 12.43-12.28.69-3.6 1.72-3.37 2.8.63 1.53 5.68 5.5 9.17 13.58 11.95 1.37.47 1.07.75-1.7 1.6-6.78 2.05-11.88 6.78-11.88 11 0 2.9-1.11 2.1-3.12-2.27zM432 250.08c-1.1-1.11-2.02-2.98-2.02-4.15 0-2.97 3.43-6.18 6.59-6.18 3.16 0 6.59 3.2 6.59 6.18 0 2.96-3.43 6.17-6.6 6.17-1.6 0-3.29-.75-4.56-2.02zm-360.08.74c-1.37-.95-1.84-2.1-1.84-4.53 0-4 2.26-6.53 5.83-6.53 3.53 0 5.39 1.2 6.42 4.16 2.13 6.09-4.92 10.75-10.41 6.9zM315.5 393.76c-1.09-1.1-1.64-2.75-1.64-4.95 0-4.23 2.22-6.59 6.2-6.59 3.78 0 6.97 3.02 6.97 6.6 0 5.55-7.63 8.83-11.53 4.94zm-126.22.61c-3.4-2.58-3.25-9.46.25-11.34a7.64 7.64 0 0 1 8.75 1.32c4.06 4.05.88 11.06-5.01 11.06-1.44 0-3.25-.47-4-1.04z"/><path d="M253.97 448.34c-4.03-1.11-5.87-2.6-7.42-6.02-1.4-3.07-1.56-5.6-1.58-23.75l-.02-20.31-13.09-.28c-16.75-.36-16.55-.22-16.55-11.08 0-11.26.92-11.82 19.55-11.83l10.1-.01v-14.7l-5.56-.54c-31.83-3.14-61.21-16.57-83.61-38.2-26.56-25.67-40.9-57.06-42.33-92.74-1.26-31.02 6.4-59.5 22.56-84.01 18.01-27.3 43.1-47.14 74.57-58.95 6.74-2.52 7.33-2.61 8.6-1.34 1.66 1.66 1.95 1.38-5.22 4.97-18.57 9.3-36.12 30.45-45.14 54.42-4.87 12.94-7.29 34.93-5.45 49.56 1.96 15.51 8.24 31.77 17.91 46.35 12.03 18.13 32.9 32.08 55.03 36.78 9.08 1.92 28.8 1.96 38.58.06 32.52-6.28 57.73-28.86 69.51-62.26 6.9-19.55 6.9-44.93.03-66.7-7.83-24.77-26.7-48.34-46.83-58.5-5.51-2.78-6.17-3.52-4.44-4.96 1.04-.86 2.51-.57 8.43 1.66 10.56 3.97 27.01 12.54 35.32 18.37 10.6 7.45 32.44 29.47 38.9 39.21 9.82 14.86 17.24 33.53 20.82 52.4 2.72 14.32 2.73 38.74 0 52.15-7.2 35.67-25.9 65.14-54.5 85.87-18.6 13.48-44.62 23.36-66.1 25.1l-7.2.58v15.42l10.5.04c16.45.08 18.29 1.32 18.3 12.42.01 4.98-.31 6.7-1.55 8.24-1.53 1.88-2.01 1.95-14.62 2.12l-13.04.17-.42 20.83c-.36 17.86-.62 21.2-1.86 23.5-2.4 4.36-8 7.1-12.18 5.95zm7.8-109.92c4.97-4.97 5-11.18.13-21.63-2.42-5.16-3.02-7.5-3.17-12.15l-.19-5.76 7.65-.74c8.67-.83 8.31-1.01 12.2 6.37 2.46 4.7 3.44 13.29 2.09 18.27-.5 1.82-2.2 5.48-3.8 8.13-3.05 5.07-3.48 6.64-2.02 7.54 1.44.88 4.76-2.9 7.6-8.64 2.4-4.9 2.64-6.04 2.64-13.21 0-7.33-.2-8.25-3.02-14.16l-3.02-6.31 5.9-1.32c3.25-.72 10.16-3.16 15.37-5.41 5.21-2.26 9.94-4.1 10.5-4.11.58 0 2.73.79 4.77 1.75 4.74 2.23 7.35 6.6 8.52 14.29.84 5.59 2.47 8.88 5.26 10.64.98.62 1.65.6 2.32-.08.72-.7.5-1.56-.84-3.46-.98-1.39-2.15-4.83-2.6-7.68a67.7 67.7 0 0 0-1.63-7.73c-1.06-3.31-6.03-8.27-9.55-9.54-1.51-.55-2.75-1.2-2.75-1.44 0-.25 3.1-2.4 6.9-4.78l6.89-4.33 4.33.83c4.89.92 8.35 2.83 11.89 6.53l2.43 2.53h-2.43c-3.92.03-4.87 1.1-4.67 5.37.24 5.57 2.99 9.95 7.26 11.58 5.78 2.2 9.4.32 9.4-4.9 0-2.46-.75-4.52-2.73-7.52-1.51-2.26-3.74-5.7-4.96-7.63-2.61-4.12-9.53-8.92-14.04-9.73l-3.22-.59 4.45-4.05 4.44-4.07 7.1.27c7.07.26 7.12.29 10.9 3.77 4.41 4.07 8.38 4.8 13.89 2.58 6.87-2.78-.06-12.12-9.58-12.91-3.63-.3-4.63-.08-5.96 1.35-1.41 1.52-2.22 1.65-7.44 1.21l-5.87-.5 2.77-4.3c1.5-2.37 3.75-6.11 4.95-8.33 3.21-5.86 6.7-9.16 11.29-10.67 3.8-1.27 4.25-1.26 7.29.11 9.9 4.46 19.57-2 12.24-8.18-5.06-4.24-12.96-3.77-14.34.86-.63 2.12-1.27 2.64-3.7 2.99-1.62.23-3.66.7-4.53 1.06-1.34.52-1.48.37-.92-.96.35-.86 1.7-5.42 2.98-10.12 1.3-4.7 2.9-9.39 3.6-10.43.67-1.05 3.1-2.92 5.39-4.17 2.29-1.24 4.9-3.45 5.78-4.9 1.98-3.18 2.16-9.32.38-12.76-1.22-2.37-6.5-5.74-9-5.74-1.85 0-1.65-5.1.35-9 3.81-7.48 2.7-13.66-3.4-18.88-1.86-1.59-3.92-4.18-4.57-5.74-1.07-2.55-1.32-2.71-2.45-1.58-2.17 2.18-.6 6.31 4.04 10.64 3.67 3.42 4.12 4.22 4.08 7.18a22.42 22.42 0 0 1-1.74 7.17 22.17 22.17 0 0 0-1.7 8.92v5.08h2.83c3.9 0 6.73 1.71 8.3 5 2.2 4.65.27 8.11-6.43 11.52-4.75 2.4-6.6 5.24-8.47 12.96a99.42 99.42 0 0 1-28.46 49.48c-15.2 14.45-32.84 23.86-52.77 28.13-9.61 2.06-32.97 2.1-42.46.07-19.1-4.1-36-12.86-51.06-26.5-11.78-10.64-24.38-32.3-28.7-49.36-2.59-10.17-4.24-12.7-10.28-15.76-4.3-2.18-5.68-3.99-5.68-7.38 0-4.82 2.98-7.76 7.92-7.8 3.14-.02 3.43-.22 3.91-2.6 1-5.02.54-8.13-1.75-11.59-2.77-4.19-3.08-9.47-.7-12.1.87-.96 2.02-1.74 2.54-1.74 2.1 0 4.62-3.9 4.79-7.42.22-4.7-1.48-5.2-3.19-.92a10.34 10.34 0 0 1-4.07 4.95c-6.2 3.65-7.45 10.22-3.49 18.3 1.25 2.54 2.27 5.55 2.27 6.7 0 1.74-.49 2.18-2.85 2.63-6.14 1.15-10.36 7.6-9.17 13.98.73 3.83 3.2 6.64 8.3 9.39 4.46 2.41 4.07 1.67 8.91 17.05 1.14 3.62 2.34 7.24 2.65 8.04.5 1.29.32 1.35-1.62.62a17.07 17.07 0 0 0-5.03-.84c-2.46 0-2.84-.27-2.84-2 0-1.2-.91-2.71-2.26-3.79-1.88-1.47-3.05-1.72-6.73-1.42-3.76.3-4.84.79-6.84 3.03-2.83 3.17-2.72 5.44.36 7.73 2.78 2.07 8.33 2.2 12.2.26 3.1-1.54 5.44-1.29 11.05 1.2 2.71 1.2 4.2 2.7 6.65 6.7 1.74 2.85 4.78 7.48 6.76 10.28l3.6 5.12-6.83.24c-4.91.17-7.08-.07-7.7-.85-1.45-1.84-7.41-2.16-11.48-.6-6.01 2.29-9.85 8.48-6.8 10.97 1.79 1.48 8.07 2.78 10.64 2.22 1.37-.3 3.98-2.1 5.8-3.97l3.31-3.41 7.93-.27 7.93-.27 3.53 3.62 3.53 3.62-4.97 1.4c-5.74 1.59-10.2 5.47-13.62 11.84a126.67 126.67 0 0 1-3.7 6.41 18.37 18.37 0 0 0-2.1 5.83c-.73 4.53.88 6.12 6.16 6.12 6.2 0 8.8-2.77 10.63-11.25.96-4.44.15-5.6-3.94-5.6-1.85 0-3.34-.29-3.34-.63 0-1.73 7.3-7.97 10.3-8.8 6.39-1.75 8.7-1.23 15.43 3.44l6.26 4.36-3.74 2c-5.1 2.7-7.36 6.45-8.95 14.84-.72 3.84-2.07 8.21-3 9.72-1.98 3.22-1.1 5 1.72 3.5 2.54-1.36 4.16-5.1 5.48-12.61 1.35-7.67 3.34-10.44 9.1-12.64l3.51-1.34 9.8 4.2c5.39 2.32 10.2 4.21 10.68 4.21.49 0 3.3.76 6.25 1.66l5.38 1.66-2.4 4.73c-4.49 8.87-4.76 20.33-.69 28.75 3.29 6.79 7.49 10.4 8.64 7.41.22-.59-.9-3.24-2.48-5.87-4.13-6.87-4.83-9.6-4.4-17.23.3-5.48.85-7.66 3.04-11.96l2.68-5.25 4.99.52c2.75.3 6.43.53 8.17.53H254v6.13c0 5.47-.33 6.77-3.02 11.91-4.93 9.44-4.67 18.2.67 22.7 3.52 2.95 6.6 2.71 10.11-.8zm-53.04-12.16c4.34-2.93 5.32-7.07 3.8-15.92-.68-3.94-1.56-7.47-1.94-7.87-1.5-1.49-8.38 5.96-12.04 13.05-4.44 8.56 2.54 15.92 10.18 10.74zm104.2-.16c2.42-2.42 2.69-6.64.68-10.58-2.26-4.46-9.45-13.76-10.64-13.76-1.45 0-2.8 4.72-3.4 12-.37 4.6-.17 6.48.98 8.89 2.57 5.42 8.7 7.13 12.39 3.44z"/><path d="M256 147.67a45.85 46.05 0 0 0-45.85 46.05A45.85 46.05 0 0 0 256 239.76a45.85 46.05 0 0 0 45.85-46.04A45.85 46.05 0 0 0 256 147.67zm0 8.94a36.95 37.1 0 0 1 36.95 37.11 36.95 37.1 0 0 1-36.95 37.1 36.95 37.1 0 0 1-36.95-37.1 36.95 37.1 0 0 1 36.95-37.1z"/><path d="M256 167.77a25.84 25.95 0 0 0-25.84 25.95A25.84 25.95 0 0 0 256 219.67a25.84 25.95 0 0 0 25.85-25.95A25.84 25.95 0 0 0 256 167.77zm-9.83 7.63a4.28 5.72 45.73 0 1 2.6 1.14 4.28 5.72 45.73 0 1-1.33 7.08 4.28 5.72 45.73 0 1-7.04.71 4.28 5.72 45.73 0 1 1.34-7.08 4.28 5.72 45.73 0 1 4.43-1.85zm-8.34 10.82a2.43 2.43 0 0 1 2.43 2.43 2.43 2.43 0 0 1-2.43 2.43 2.43 2.43 0 0 1-2.43-2.43 2.43 2.43 0 0 1 2.43-2.43z"/></g></svg>