<svg xmlns="http://www.w3.org/2000/svg" viewBox="0 0 1024 1024"><g><path fill="#f2e9e6" d="M0 0h1024v1024H0z"/><path fill="#573313" d="M238.66 800.4v2.65q-4.24.13-6.5 1.05-2.24.8-3.04 3.18-.66 2.25-.66 7.15v65.68q0 4.77.8 7.15.8 2.38 2.9 3.18 2.26.8 6.5 1.06v2.65q-3.45-.27-8.74-.27-5.3-.13-10.73-.13-5.96 0-11.25.13-5.17 0-8.34.27v-2.65q4.5-.27 6.75-1.06 2.38-.8 3.18-3.18.8-2.38.8-7.15v-72.03l.92.13-32.84 86.33h-2.12l-34.96-85.67v65.68q0 6.35.8 9.93.8 3.44 3.44 5.03 2.78 1.46 8.34 1.99v2.65q-2.51-.27-6.49-.27-3.97-.13-7.54-.13-3.18 0-6.5.13-3.17 0-5.29.27v-2.65q4.37-.53 6.49-1.99 2.25-1.45 2.91-4.77.8-3.3.8-9.13v-61.18q0-4.9-.8-7.15-.66-2.38-2.91-3.18-2.12-.92-6.49-1.05v-2.65q2.12.13 5.3.26 3.3.13 6.49.13 4.9 0 9.53-.13 4.64-.13 8.21-.26l28.47 71.1-2.91 2.39 27.67-73.1h8.34q5.43 0 10.73-.13 5.3-.13 8.74-.26zm51.64-.4 32.18 83.02q1.98 4.77 4.23 6.62 2.39 1.73 4.37 1.86v2.65q-3.44-.27-8.34-.27-4.77-.13-9.8-.13-5.82 0-10.86.13-5.03 0-8.2.27v-2.65q6.75-.27 8.6-2.25 1.86-2.12-.8-8.87l-23.3-62.9 2.39-2.91-21.2 54.95q-2.5 6.62-3.04 10.86-.53 4.23.67 6.62 1.19 2.38 3.97 3.44 2.78.93 6.88 1.06v2.65q-4.23-.27-8.2-.27-3.98-.13-7.95-.13-2.91 0-5.56.13-2.52 0-4.5.27v-2.65q2.9-.66 5.69-3.44 2.91-2.79 5.56-9.67L283.41 800q1.6.13 3.45.13t3.44-.13zm11.52 56.01v2.65h-39.46l1.32-2.65zM443.1 800.4v2.65q-4.24.13-6.5 1.05-2.24.8-3.04 3.18-.66 2.25-.66 7.15v65.68q0 4.77.8 7.15.79 2.38 2.9 3.18 2.26.8 6.5 1.06v2.65q-3.45-.27-8.74-.27-5.3-.13-10.73-.13-5.96 0-11.26.13-5.16 0-8.34.27v-2.65q4.5-.27 6.76-1.06 2.38-.8 3.17-3.18.8-2.38.8-7.15v-72.03l.93.13-32.84 86.33h-2.12l-34.96-85.67v65.68q0 6.35.8 9.93.79 3.44 3.44 5.03 2.78 1.46 8.34 1.99v2.65q-2.52-.27-6.49-.27-3.97-.13-7.55-.13-3.17 0-6.48.13-3.18 0-5.3.27v-2.65q4.37-.53 6.49-1.99 2.25-1.45 2.91-4.77.8-3.3.8-9.13v-61.18q0-4.9-.8-7.15-.66-2.38-2.91-3.18-2.12-.92-6.5-1.05v-2.65q2.13.13 5.3.26 3.32.13 6.5.13 4.9 0 9.53-.13 4.63-.13 8.2-.26l28.48 71.1-2.92 2.39 27.68-73.1h8.34q5.43 0 10.73-.13 5.3-.13 8.74-.26zm51.64-.4 32.17 83.02q1.99 4.77 4.24 6.62 2.38 1.73 4.37 1.86v2.65q-3.44-.27-8.34-.27-4.77-.13-9.8-.13-5.83 0-10.86.13-5.03 0-8.2.27v-2.65q6.74-.27 8.6-2.25 1.85-2.12-.8-8.87l-23.3-62.9 2.38-2.91-21.18 54.95q-2.52 6.62-3.05 10.86-.53 4.23.66 6.62 1.2 2.38 3.98 3.44 2.78.93 6.88 1.06v2.65q-4.24-.27-8.2-.27-3.98-.13-7.95-.13-2.92 0-5.56.13-2.52 0-4.5.27v-2.65q2.9-.66 5.69-3.44 2.91-2.79 5.56-9.67L487.86 800q1.59.13 3.44.13 1.86 0 3.45-.13zm11.52 56.01v2.65H466.8l1.32-2.65zm113.87-55.61v2.65q-4.37.79-8.87 3.3-4.5 2.52-9.27 8.22l-25.02 30.72 5.95-9.54 31.65 47.67q2.12 3.05 4.37 4.9 2.25 1.85 5.83 3.18v2.65q-4.1-.27-9.4-.27-5.3-.13-9.67-.13-2.52 0-6.36.13-3.7 0-9.4.27v-2.65q5.3-.27 6.36-1.46 1.06-1.32-.93-4.5l-19.33-30.46q-2.12-3.44-3.84-5.16-1.59-1.72-3.31-2.25-1.72-.66-4.24-.8v-2.64q5.56-.27 9.93-2.92t8.74-7.8l9.4-11.8q4.9-5.82 5.96-9.93 1.06-4.1-1.19-6.35t-7.55-2.38v-2.65l5.83.26q2.91 0 5.82.13h6.36q3.84 0 6.89-.13 3.04-.13 5.3-.26zm-44.75 0v2.65q-4.24.13-6.5 1.05-2.11.8-2.9 3.18-.8 2.25-.8 7.15v65.68q0 4.77.8 7.15.79 2.38 2.9 3.18 2.26.8 6.5 1.06v2.65q-3.31-.27-8.48-.27-5.16-.13-10.46-.13-5.96 0-11.12.13-5.17 0-8.48.27v-2.65q4.37-.27 6.5-1.06 2.24-.8 2.9-3.18.8-2.38.8-7.15v-65.68q0-4.9-.8-7.15-.66-2.38-2.9-3.18-2.13-.92-6.5-1.05v-2.65q3.31.13 8.48.26 5.16.13 11.12.13 5.3 0 10.46-.13 5.17-.13 8.48-.26zm136.78 0v2.65q-4.24.4-6.49 1.98-2.12 1.46-2.91 4.77-.8 3.18-.8 9.14v36.67q0 8.88-1.19 15.9-1.06 7.01-4.23 12.18-3.31 5.56-9.94 9-6.48 3.31-15.89 3.31-6.35 0-12.57-1.46-6.1-1.45-10.73-5.43-4.1-3.44-6.49-7.8-2.25-4.38-3.04-10.47-.8-6.22-.8-14.83v-41.58q0-4.9-.8-7.15-.65-2.38-2.9-3.18-2.12-.92-6.5-1.05v-2.65q3.32.13 8.48.26t11.12.13q5.43 0 10.73-.13 5.3-.13 8.74-.26v2.65q-4.5.13-6.89 1.05-2.25.8-3.04 3.18-.8 2.25-.8 7.15v47.94q0 6.62.8 12.05.92 5.3 2.91 9.13 2.12 3.84 5.83 5.83 3.84 1.99 9.66 1.99 9.67 0 14.97-4.37 5.3-4.37 7.41-12.19 2.12-7.8 2.12-17.74v-37.08q0-6.48-.93-9.93-.92-3.44-3.7-5.03-2.65-1.59-7.95-1.98v-2.65q2.52.13 6.49.26 4.1.13 7.55.13 3.3 0 6.48-.13 3.31-.13 5.3-.26zm93.48 0v2.65q-4.23.4-6.48 1.98-2.25 1.46-3.05 4.77-.66 3.18-.66 9.14v75.6q-1.2-.13-2.65-.13-1.32 0-2.91.13l-56.8-77.2v57.2q0 6.36.79 9.94.8 3.44 3.44 5.03 2.78 1.46 8.34 1.99v2.65q-2.51-.27-6.49-.27-3.97-.13-7.54-.13-3.18 0-6.5.13-3.17 0-5.29.27v-2.65q4.37-.53 6.49-1.99 2.25-1.45 2.91-4.77.8-3.3.8-9.13v-61.18q0-4.9-.8-7.15-.66-2.38-2.91-3.18-2.12-.92-6.49-1.05v-2.65q2.12.13 5.3.26 3.3.13 6.49.13 3.04 0 5.95-.13 2.92-.13 5.17-.26l49.65 66.07V820q0-6.48-.8-9.93-.79-3.44-3.43-5.03-2.65-1.59-8.35-1.98v-2.65q2.52.13 6.5.26 4.1.13 7.54.13 3.31 0 6.49-.13 3.3-.13 5.3-.26zm49.47-.4 32.18 83.02q1.99 4.77 4.24 6.62 2.38 1.73 4.37 1.86v2.65q-3.44-.27-8.34-.27-4.77-.13-9.8-.13-5.83 0-10.86.13-5.03 0-8.21.27v-2.65q6.75-.27 8.6-2.25 1.86-2.12-.79-8.87l-23.3-62.9 2.38-2.91-21.19 54.95q-2.51 6.62-3.04 10.86-.53 4.23.66 6.62 1.2 2.38 3.97 3.44 2.78.93 6.89 1.06v2.65q-4.24-.27-8.21-.27-3.97-.13-7.95-.13-2.9 0-5.56.13-2.51 0-4.5.27v-2.65q2.91-.66 5.7-3.44 2.9-2.79 5.56-9.67L848.24 800q1.59.13 3.44.13 1.86 0 3.44-.13zm11.52 56.01v2.65H827.2l1.32-2.65z"/><g><g><path fill="#573313" d="M756.15 345.79c-3.99-40.16-16.05-74.82-38.09-109.44-15.14-23.8-42.51-55.56-64.08-74.34-4.8-4.18-6.57-6.3-5.85-7.03.72-.71 5.63 1.53 16.21 7.41 34.65 19.26 59.81 39.07 82.23 64.75 16.62 19.03 20.23 24.72 22.18 34.88 4.97 25.95 4.7 47.57-.8 67.05-2.35 8.3-8.31 21.6-10.21 22.78-.53.33-1.22-2.3-1.6-6.06zM265.21 350.23c-4.71-7.32-9.61-21.93-11.6-34.55-1.9-12.13-1.26-35.87 1.35-50.46l2.33-13 9.4-11.64c23.95-29.6 40.42-44.9 68-63.17 14.63-9.7 39.45-23.46 42.31-23.46.23 0 .41.62.41 1.39 0 .76-2.32 3.22-5.16 5.46-8.94 7.06-29.14 27.55-39.73 40.3-37.59 45.26-57.28 88.4-63.6 139.36-.76 6.12-1.58 11.33-1.83 11.57-.24.24-1.08-.57-1.88-1.8z"/><path fill="#573313" d="M807.9 448.62c-3.6-4.86-9.61-15.37-14.58-25.47-10.03-20.37-13.5-26.03-20.5-33.37l-5.24-5.5 5.41-6.35c11.71-13.75 19.96-28.48 23.45-41.88 2.14-8.21 1.98-10.38-.72-10-1.8.27-2.41 1.34-3.47 6.22-1.92 8.88-10.89 26.35-18.67 36.38-9.22 11.89-10.11 12.63-13.36 11.15-2.5-1.14-2.59-1.47-2.59-9.43 0-7.95.14-8.45 3.8-13.84a81.46 81.46 0 0 0 11.24-23.32c4.56-14.49 6.46-36.26 4.64-53.34-.65-6.12-.97-11.34-.71-11.6.26-.26 2.74 3.5 5.53 8.37a273.35 273.35 0 0 1 33.05 97.58c2.22 16.3 2.91 47.02 1.44 63.64-1.87 21.12-1.45 20.6-8.72 10.76zm-3.3-57.1c1.86-1.87 1.43-2.53-2.51-3.78-2.03-.65-5.8-2.93-8.39-5.08-4.78-3.97-7.58-4.34-7.58-1.01 0 1.13 2.57 3.5 6.99 6.42 7.22 4.78 9.47 5.46 11.49 3.44zM209 452.64c-7.4-55.81 2.44-114.79 27.46-164.58 11.6-23.09 11.15-23.05 10.55-.93-.44 16.17-.23 20.2 1.62 30.8 1.17 6.7 3.02 14.89 4.12 18.18 2.45 7.36 9.03 19.85 12.24 23.23 2.12 2.23 2.38 3.39 2.38 10.54 0 7.8-.08 8.06-2.75 9.44-2.74 1.42-2.76 1.41-9.81-6.6-13.43-15.26-19.06-26.18-23.23-45.12-.4-1.84-1.22-2.7-2.54-2.7-1.61 0-1.95.67-1.95 3.83 0 5.2 3.35 15.7 7.96 24.97 4.47 8.96 6.8 12.27 15.75 22.37l6.6 7.44-6.81 7.1c-6.2 6.44-7.72 8.94-16.75 27.42-9.65 19.77-15.71 30.09-21.4 36.46l-2.77 3.1zm17.4-61.55c4.59-2.32 11.5-8.14 11.5-9.68 0-3.18-4.31-2.2-8.85 2.01a24.56 24.56 0 0 1-6.07 3.8c-3.94 1.65-5.18 2.96-4.24 4.49.9 1.45 4.1 1.2 7.66-.62z"/><path fill="#975b27" d="M806.63 463.94c-5.1-3.71-6.05-4.8-22.5-26.05-6.49-8.37-13.88-18.95-16.44-23.5-2.55-4.55-5.86-9.49-7.35-10.98-2.48-2.48-2.7-3.34-2.7-10.15 0-4.1.4-7.45.89-7.45 1.87 0 11.1 8.15 15.32 13.54 4.07 5.17 10.08 16.34 15.1 28.04 2.91 6.77 11.36 20.58 17.84 29.16 3.67 4.86 5.37 7.94 4.98 9.03-.51 1.44-1.2 1.22-5.14-1.64zM212.35 465.48c0-1.03 1.91-4.23 4.24-7.12 7.51-9.3 10.4-14.19 20.34-34.46 5.37-10.95 11.32-22 13.22-24.56 3.64-4.9 13.87-13.53 16.03-13.53.96 0 1.2 1.9.99 7.62-.2 5.45-.64 7.54-1.52 7.37-.67-.14-1.12.1-.98.54.13.43-1.35 3.19-3.3 6.14-1.95 2.94-5.36 8.49-7.57 12.32a147.69 147.69 0 0 1-10.2 14.76c-3.41 4.28-7.5 9.54-9.11 11.7-5.03 6.73-11.53 13.23-12.58 12.58-.56-.34-.73-.16-.38.4.65 1.06-6.47 8.12-8.2 8.12-.54 0-.98-.84-.98-1.88zM721.82 506.57c.9-1.74 3.27-5.86 5.26-9.15 9.2-15.2 16.32-33.82 22.75-59.4 2.63-10.47 5.08-21.64 5.44-24.83.8-7.15 1.36-6.82 8.16 4.96 5.27 9.14 17.24 25.42 28.89 39.29l6.93 8.25-2.59 2.06c-4.17 3.33-24.82 14.22-32.73 17.27-7.15 2.75-7.28 2.76-7.28.74 0-1.93 8.1-10.54 9.92-10.54.45 0 3.27-.92 6.27-2.04 6.25-2.34 8.37-5.31 8.37-11.72 0-5.9-1.83-8.61-12.49-18.53-10.08-9.38-13.42-11.03-12.87-6.34.22 1.87 2.47 4.52 7.68 9.04 8.62 7.48 12.11 12.14 12.11 16.16 0 2.88-2.75 6-4.4 4.99-.46-.29-.84-.09-.84.44s-1.29 1.25-2.87 1.6c-8.5 1.86-17.18 11.73-16.6 18.85.4 4.8 3.15 6.36 8.98 5.08 4.8-1.06 19.7-8.16 33.46-15.96 10.2-5.77 11.88-6.33 12.7-4.2.3.8-2.09 3.28-6.04 6.28-23.1 17.51-44.63 26.18-75.13 30.24l-4.72.64zM291.93 508.5c-4.59-.47-12.23-1.96-16.97-3.31-15.08-4.29-40.19-17.91-52.3-28.38-2.94-2.55-3.64-3.69-2.81-4.54 1.3-1.33 4.37.09 17.8 8.15 10.97 6.6 25.86 13.47 29.2 13.47 1.45 0 3.67-1.1 5.09-2.51 2.12-2.13 2.4-3.07 1.85-6.14-1.1-6.09-5.13-10.07-15.1-14.93-6.95-3.39-9.21-4.99-9.68-6.83-1-3.91 3.35-10.66 11-17.05 7.62-6.38 8.62-7.66 7.75-9.93-1.17-3.04-4-1.45-13.4 7.53-9.57 9.13-11.55 12.14-11.55 17.55 0 6.53 4.1 10.55 14.85 14.57 5.98 2.23 8.03 3.97 9.63 8.2 2.43 6.38-5.44 3.52-29.66-10.8-13.85-8.2-13.27-7.02-6.93-14.04 1.72-1.9 5.43-6.54 8.25-10.33 2.83-3.78 7.22-9.3 9.75-12.28 5.52-6.45 9.17-11.87 14.22-21.12 2.07-3.78 3.91-7.06 4.1-7.29.8-.94 1.4 1.02 2.85 9.33 5.2 29.86 16.54 61.64 29.14 81.69 3.13 4.98 5.7 9.3 5.7 9.58 0 .61-1.7.53-12.78-.6z"/><path fill="#573313" d="M675.98 616.65c-3.03-.35-6.01-.96-6.63-1.34-.62-.38-1.12-2.66-1.12-5.06v-4.36l9.58-.01c11.56-.02 20.05-1.88 29.22-6.42 21.09-10.42 32.3-35.54 26.37-59.1-.9-3.57-3.77-10.7-6.38-15.84-2.62-5.14-4.65-9.43-4.51-9.55.13-.1 3.66-.41 7.84-.67 8.5-.52 8.84-.34 12.41 6.78 9.65 19.2 7.6 45.98-4.95 64.83-5.34 8.02-16.4 18.35-24.33 22.7-10.93 6.03-26.4 9.34-37.5 8.04zM335.65 616.67a66.22 66.22 0 0 1-11.3-2.39c-5-1.63-14.58-6.19-15.71-7.47-.27-.3-2.55-1.95-5.06-3.66-9.54-6.5-19.6-19.9-23.99-32.01-6.1-16.8-5.2-33.94 2.65-50.48l2.92-6.14h8.3c5.66 0 8.3.36 8.3 1.14 0 .63-1.72 4.28-3.82 8.1-7.72 14.09-9.94 28.57-6.44 42.07 6.7 25.82 26.32 40.21 55.2 40.46l10.08.1v4.69c0 2.88-.48 4.85-1.23 5.1-2.42.81-14.1 1.1-19.9.49z"/><path fill="#573313" d="M570.96 697.54c0-.53 1.77-7.01 3.93-14.4 4.45-15.22 8.23-23.4 13.54-29.3 3.49-3.87 14.97-12.89 15.61-12.25.41.41-7.95 21.12-10.53 26.07-2.25 4.32-1.93 6.02 1.15 6.02 2.72 0 7.72-11 16.47-36.24 3.81-11.02 7.18-20.28 7.48-20.58.3-.3 3.3.47 6.66 1.7 10.96 4 25.84 3.77 34.36-.55l2.7-1.36v7.78c0 8.58-2.44 18.14-6.6 25.86-2.63 4.87-2.44 8.03.46 7.5 4.33-.8 11.55-21.52 11.96-34.33.08-2.56.1-2.56 5.23-1.6 2.84.52 8.97.71 13.61.42 30.46-1.9 57.7-25.77 65.82-57.65.8-3.15 1.34-9.92 1.3-16.22-.09-12.26-1.83-19.86-6.88-30.04l-3.21-6.47 10.75-3.26c17.79-5.39 37.02-15.4 49.41-25.73 3.18-2.65 5.97-4.62 6.2-4.39 1 .99-5.1 21.72-10.1 34.43-29.45 74.82-84.25 131.95-157.58 164.3-23.58 10.4-71.74 24.02-71.74 20.29zm61.85-32.8c1.2-3.28 2.03-6.1 1.85-6.27a7.09 7.09 0 0 0-2.2-.66c-1.44-.26-2.18.64-3.32 4.08a61.13 61.13 0 0 1-1.67 4.68c-.11.14-2.3-.67-4.88-1.81-3.46-1.53-4.97-1.78-5.78-.97-1.82 1.82.5 4.24 6.31 6.58 3.37 1.36 5.72 1.81 6.42 1.24.6-.5 2.08-3.59 3.27-6.87zm-11.88-11.03c.8-.97.72-1.8-.31-3.2-1.32-1.77-1.5-1.78-3.1-.21-1.4 1.38-1.47 1.93-.42 3.2 1.54 1.86 2.42 1.9 3.83.2zm25.23-15.85c.92-2.41 1.41-5.06 1.1-5.88-.88-2.3-3.62-.68-4.26 2.53-.31 1.55-.72 2.82-.91 2.82-.2 0-2.74-1.17-5.66-2.6-5.3-2.6-8.49-2.61-8.49-.02 0 1.4 11.93 7.38 14.9 7.48 1.06.03 2.24-1.5 3.32-4.33zm126.06-77.47c.59-.71.88-2.81.64-4.67-2.03-15.97-2.86-20.44-4.96-26.61-1.32-3.9-2.4-7.6-2.4-8.25 0-.64 2.76-2.15 6.13-3.36 7.37-2.62 12.3-5.7 18.62-11.61 4.48-4.2 6.16-8.07 3.48-8.07-.68 0-3.66 2-6.63 4.45-6.73 5.56-17.28 10.94-23.18 11.82-2.46.37-4.69 1.22-4.94 1.88-.26.67 1.27 6.47 3.4 12.9 2.49 7.52 4.23 15.1 4.9 21.26 1.27 11.69 2.18 13.58 4.94 10.26zm8-29.65c1.75-2.1.45-4.63-2.19-4.25-2.51.35-3.57 3.58-1.58 4.84 1.84 1.17 2.38 1.09 3.77-.59zM439.8 695.78c-56.22-13.18-112.49-43.39-148.21-79.57-30.4-30.79-55.12-69.47-68.75-107.59-4.97-13.9-9.03-28.3-8.21-29.13.3-.3 3.12 1.43 6.26 3.84a170.11 170.11 0 0 0 49.64 26.26l9.54 3.17-2.28 4.56c-5.6 11.2-6.85 16.6-6.91 30.11-.1 18.56 3.33 29.65 13.69 44.21 3.54 5 18.17 19.97 18.17 18.6 0-.24 1.8.7 4 2.08 11.1 7 27.35 10.92 41.6 10.03l8.23-.51.7 6.43c1.45 13.57 7.63 29.7 11.38 29.7 3.18 0 3.17-2.4-.03-8.74a56.74 56.74 0 0 1-5.93-25.35l-.02-7.07 4.67 2.15c3.95 1.83 6.4 2.16 15.96 2.16 9.96 0 12.02-.3 17.36-2.56l6.06-2.55 3.93 11.4c2.17 6.26 4.87 14.4 6.01 18.08 3.07 9.88 11.03 28.2 12.25 28.18.59-.01 1.68-.4 2.42-.88 1.57-1 1.71-.55-5.74-18.65-2.76-6.69-4.84-12.33-4.63-12.54.97-.98 13.05 8.34 16.54 12.75 5.8 7.34 7.6 11.38 12.66 28.42l4.59 15.47-2.57-.08c-1.4-.04-6.98-1.11-12.38-2.38zm-37.1-25.76c4.07-1.77 6.15-3.23 6.15-4.34 0-2.36-1.94-2.76-5.77-1.2-4.7 1.9-4.9 1.82-7-3.08-1.36-3.17-2.46-4.42-3.9-4.42-2.48 0-2.5 1.39-.12 7.48 1.03 2.64 2.13 5.57 2.43 6.52.7 2.23.97 2.2 8.22-.96zm4.6-15.6c1.5-.58 2.13-3.41 1-4.54-1.35-1.35-4.36.58-4.36 2.8 0 2.4.68 2.76 3.36 1.74zm-17.5-14.77c7.94-3.4 9.84-5.43 5.68-6.04-1.05-.16-4.05.85-6.68 2.25-2.62 1.39-4.85 2.4-4.96 2.25-.1-.16-.77-1.73-1.47-3.48-1.2-3.02-3.27-4.16-4.36-2.4-.54.89 2.2 11 2.99 11 .27 0 4.23-1.61 8.8-3.58zM257.04 553.5c.87-9.18 2.68-17.11 6.32-27.6 1.62-4.67 2.7-9.11 2.42-9.87-.3-.75-2.37-1.67-4.63-2.04-6.31-1.03-17.18-6.47-24.12-12.06-3.45-2.78-6.66-4.81-7.12-4.52-4.6 2.84 9.2 14.48 23.24 19.6l7.01 2.56-2.8 7.9c-4.6 13.03-7.05 30.5-4.6 32.95 2.28 2.28 3.62.11 4.28-6.92zm-7.84-24.24c0-1.8-.6-2.54-2.22-2.77-1.33-.2-2.45.3-2.8 1.22-.98 2.55.39 4.66 2.8 4.32 1.62-.23 2.22-.97 2.22-2.77z"/><path fill="#573313" d="m467.3 700.55-4.09-.87c-2.2-.47-3.98-4.91-9.21-23.05-5.09-17.63-15.4-31.84-28.8-39.68-6.04-3.53-6.55-4.11-8.9-10.21-1.38-3.56-2.4-6.57-2.28-6.7.26-.26 16.07 8.59 24.22 13.56 7.58 4.61 17.71 15.06 21.48 22.14 1.78 3.32 5.64 13.15 8.59 21.83 2.95 8.69 6.26 17.55 7.36 19.7l2 3.92-4.2-.11a46.2 46.2 0 0 1-6.16-.53zM548.36 701.15c0-.37 1.3-3.83 2.9-7.7 1.6-3.86 4.5-12.2 6.48-18.55 7.81-25.14 16.77-35.38 43.49-49.7 11.14-5.98 10.68-6.23 6.94 3.78-1.61 4.33-2.53 5.3-7.7 8.12-7.26 3.98-16.54 12.46-20.67 18.9-3.86 6.01-6.01 11.6-10.98 28.49-2.15 7.3-4.43 13.78-5.06 14.4-1.27 1.26-15.4 3.33-15.4 2.26z"/><path fill="#975b27" d="M489.97 703.25c-4.82-.58-4.86-.62-8.6-7.46-2.07-3.79-5.54-12.45-7.7-19.25-5.73-17.99-10.3-26.82-18.3-35.29-7.75-8.21-12.68-11.73-30.29-21.57-7-3.91-13.77-7.93-15.02-8.91-2.23-1.75-2.41-1.73-8.49 1.12-11.08 5.18-24.09 5.57-34.35 1.03-4.04-1.78-4.53-2.32-4.01-4.4.9-3.62-1.26-10.12-4.66-14-3.54-4.03-7.42-6.15-17-9.26-9.67-3.15-13.06-5.05-18.57-10.45-6.73-6.59-9.8-13.65-9.89-22.8-.06-5.9-.4-7.38-1.87-8.2-2.74-1.53-3.66.2-3.7 6.88-.1 20.26 12.28 34.69 35.16 40.97 5.8 1.6 13.12 6.36 13.12 8.55 0 1.86-20.3.3-27.4-2.12-17.68-6.01-28.27-18.04-32.14-36.5-2.85-13.61 1.46-30.22 10.7-41.13 1.5-1.78 2.89-3.07 3.07-2.87.18.2 3.8 5.01 8.05 10.68 9.1 12.18 36.66 40.17 48.52 49.31 18.87 14.53 36.9 24 60.6 31.79 8.89 2.93 19.34 6.99 23.22 9.02 9.6 5.03 20.83 15.95 29.94 29.11 15.72 22.71 27.45 29.2 41.22 22.78 6.73-3.13 13.27-9.35 20.4-19.4 17.32-24.43 27.05-32.2 49.61-39.6 23.32-7.64 39.83-15.4 55.51-26.08 20.99-14.3 39.24-31.72 58.1-55.44l9.68-12.19 2.31 2.16c3.54 3.31 10.77 19.06 11.81 25.74 3.04 19.47-7.73 40.8-24.77 49.07-6.82 3.31-15.12 5.25-25.36 5.94-7.63.51-8.49.4-8.27-1.1.37-2.55 3.84-4.86 11.63-7.76 17.39-6.45 25.66-12.24 30.23-21.16 2.66-5.19 4.9-14.72 4.9-20.9 0-5.8-.82-7.05-3.95-6.06-1.68.54-1.95 1.5-1.95 6.89 0 9.15-3.93 19.15-9.75 24.8-5.17 5.03-8.63 6.94-18.26 10.07-15.6 5.07-19.9 9.07-21.03 19.62-.57 5.36-.65 5.46-5.5 7.87-3.74 1.87-6.86 2.53-13.17 2.81-8.84.4-13.04-.48-21.53-4.47l-5.22-2.46-2.14 1.96c-1.18 1.09-7.9 5.19-14.92 9.12-17.48 9.8-22.52 13.35-30.08 21.21-7.91 8.22-11.73 15.56-18.08 34.73-4.85 14.64-9.45 25.88-10.97 26.83-1.82 1.12-24.87 1.96-24.87.9 0-.57 1.88-2.41 4.18-4.1 11.7-8.56 23.53-23.83 20.67-26.69-1.27-1.27-1.85-.72-9.13 8.72-3.94 5.1-13.16 13.14-17.42 15.2-1.92.92-3.1.35-9.33-4.44-3.93-3.02-8.9-7.73-11.06-10.47-3.68-4.68-7.38-6.53-7.38-3.69 0 3.94 12.06 17.52 19.4 21.83 5.33 3.13 4.14 4.42-3.93 4.24-3.92-.08-9.3-.41-11.97-.73z"/></g><g><path fill="#573313" d="M510.87 158.15c-1.53-4.59-5.73-9.65-9.78-11.8-1.66-.87-1.5-1.17 1.7-3.14 4.41-2.73 6.96-6.27 8.42-11.66 1.12-4.16 3-4.84 3-1.1 0 3.8 4 9.82 8.34 12.58l4.32 2.74-3.35 1.6c-3.54 1.68-9.3 8.72-9.32 11.38-.01.87-.4 2.18-.87 2.92-.6.95-1.32-.06-2.46-3.52zM546.28 172.46c-1.28-3.61-2.64-5.44-5.15-6.92l-3.41-2.02 3.95-3.38c2.24-1.92 4.31-4.75 4.77-6.51.98-3.8 2.3-3.64 3.68.45.99 2.94 4.8 7 7.5 7.98.84.3-.16 1.74-2.85 4.08-2.8 2.45-4.34 4.7-4.77 7.01-.94 4.98-1.76 4.82-3.72-.69zM476.34 176.04c-2.48-6.59-3.44-8.23-6.03-10.38l-2.88-2.39 3.15-2.97a17.35 17.35 0 0 0 4.3-7.25c1.27-4.68 2.14-4.44 3.9 1.08.64 2 2.63 4.92 4.41 6.5l3.25 2.85-3.28 2.62a14.36 14.36 0 0 0-4.68 7.27c-1.15 3.82-1.53 4.3-2.14 2.67zM585.05 190.84c-1.48-6.6-4.42-11.1-9.32-14.29-3.39-2.2-3.58-2.54-1.94-3.44 4.64-2.54 10.13-9.15 11.32-13.6 1.46-5.43 2.66-5.46 4.24-.1 1.7 5.75 4.2 9.04 9.01 11.86l4.3 2.52-3.73 2.7c-5.95 4.3-8.83 8.4-10.05 14.28-.62 2.98-1.46 5.42-1.88 5.42-.41 0-1.3-2.4-1.95-5.35zM437.05 193.52c-1.95-9.05-7.81-17.97-11.82-17.97-2.48 0-1.52-1.62 2.68-4.53 4.01-2.78 8.65-10.47 8.67-14.38.02-2.93 1.79-1.89 2.5 1.47 1.17 5.53 4.68 10.65 9.05 13.21 2.3 1.35 4.18 2.75 4.18 3.1 0 .36-1.37 1.26-3.05 2-3.85 1.71-8.46 8.89-9.3 14.5-.78 5.18-2.1 6.37-2.91 2.6zM624.32 197.53c-2.7-3.44-2.57-6.8.38-9.74 4.82-4.83 12.32-2.18 12.32 4.35 0 7.3-8.4 10.86-12.7 5.39zM392.7 199.13c-2.48-1-4.25-3.86-4.25-6.85 0-3.02 4.3-6.9 7.65-6.9 6.45 0 9.55 8.73 4.5 12.7-2.78 2.18-4.51 2.41-7.9 1.05z"/><path fill="#975b27" d="M643.58 221.48c3.61-9.25 4.43-10.6 7.36-12.11 5.5-2.85 10.65-.64 10.64 4.58 0 6.24-6.76 11.64-16.34 13.06l-4.05.6zM378.53 226.63c-8.7-1.47-13.5-5.3-14.33-11.46-.68-5.05 2.01-7.71 6.86-6.8 4.41.82 7.05 3.87 8.94 10.33.86 2.93 2.3 6.13 3.2 7.12.9 1 1.23 1.75.74 1.69-.5-.06-2.92-.46-5.4-.88z"/><path fill="#573313" d="M510.28 233.52c-2.3-9.56-8.94-16.51-18.43-19.27-5.63-1.64-5.94-2.73-1.06-3.7 8.36-1.67 17.01-10.56 19.45-19.97.67-2.6 1.39-5.3 1.6-6 .74-2.45 2.24-.13 3.34 5.16 1.86 8.97 8.73 16.51 18.38 20.18 2.6.98 4.53 2.16 4.3 2.62-.24.46-2.28 1.3-4.53 1.88-8.66 2.2-15.15 8.82-17.93 18.3-.93 3.14-2.19 5.71-2.81 5.71-.62 0-1.66-2.2-2.3-4.9z"/><path fill="#975b27" d="m673.09 254.35-5.7-1.72 6.66-3.41c5.64-2.9 7.65-3.41 13.06-3.38 3.52.02 8.14.38 10.25.81l3.85.78-6.12 4.02c-7.31 4.8-13.13 5.57-22 2.9z"/><path fill="#573313" d="M544.46 253.17c-1.7-3.95-4.16-6.33-7.6-7.38-2.35-.72-2.32-.77 1.32-2.64 2.63-1.35 4.27-3.17 5.64-6.26 2-4.51 3.8-5.7 3.8-2.52 0 2.77 3.82 7.06 7.77 8.74l3.52 1.48-3.93 1.7c-4.27 1.83-6.27 3.78-7.96 7.76l-1.08 2.56zM478.54 252.34a10.5 10.5 0 0 0-5.5-5.74l-3.74-1.78 3.54-1.97a13.53 13.53 0 0 0 5.48-6.14c1.07-2.3 2.18-4.17 2.46-4.17.29 0 1.4 1.83 2.49 4.08a12.89 12.89 0 0 0 5.76 6.05l3.8 1.97-3.27 1.07c-2.92.95-4.75 2.93-8.28 8.91-.85 1.45-1.24 1.12-2.74-2.28z"/><path fill="#975b27" d="M331.05 252.02c-6.48-3.88-6.7-4.13-4.42-5.03 1.3-.53 5.92-1 10.24-1.06 7.06-.09 8.55.24 14.67 3.25l6.8 3.34-7.3 1.76c-10.56 2.54-12.32 2.35-20-2.26zM689.1 303.52c.02-2.82 4.6-11.8 6.54-12.8 1-.52 3.4-1.23 5.35-1.58 4.57-.82 6.12.94 6.12 6.98 0 3.7-.49 4.94-2.68 6.82-2.2 1.9-3.78 2.3-9 2.3-5.38 0-6.34-.26-6.33-1.72zM329.5 305.48c-5.09-.61-6.64-1.25-9.18-3.8-3.25-3.24-3.6-9-.7-11.61 2.48-2.25 8.84-1.3 11.7 1.76 1.97 2.09 5.06 9.4 5.06 11.95 0 1.37-3.13 2.14-6.88 1.7z"/><path fill="#573313" d="M713.19 375.42c-2.07-5.42-7.43-9.67-13.5-10.7-4.48-.77-4.51-.73 2.84-3.47 3.1-1.16 10.14-7.43 10.14-9.04 0-.47.7-2.5 1.56-4.5l1.55-3.66 1.93 5.1c2.35 6.2 7.2 10.7 13.16 12.2 4.65 1.17 5.91 2.83 2.19 2.86-3.15.03-9.7 3.24-12.23 6-1.2 1.3-2.86 4.01-3.7 6.03-.85 2.02-1.7 3.67-1.88 3.67-.19 0-1.12-2.02-2.06-4.5zM307.12 375.05c-2.65-5.78-6.57-8.82-13.38-10.4l-5.01-1.17 3.93-1.1c8.28-2.34 13.49-7.48 14.84-14.65.82-4.3 2.05-4.02 3.34.75 1.82 6.77 6.57 10.94 16.2 14.25 1.63.56 1.28.9-2.04 1.9-8.08 2.46-14.16 8.1-14.16 13.13 0 3.47-1.33 2.5-3.72-2.71zM721.96 408.94c-1.32-1.33-2.41-3.56-2.41-4.96 0-3.54 4.09-7.37 7.86-7.37 3.77 0 7.86 3.83 7.86 7.37s-4.09 7.37-7.86 7.37c-1.91 0-3.93-.9-5.45-2.41zM292.39 409.82c-1.63-1.14-2.19-2.51-2.19-5.4 0-4.78 2.7-7.8 6.95-7.8 4.22 0 6.43 1.43 7.67 4.97 2.53 7.26-5.88 12.82-12.43 8.23z"/><path fill="#975b27" d="M703.5 445.73c-1.54-.47-4.82-2.43-7.29-4.35-2.47-1.93-5.2-3.52-6.05-3.53-2.9-.06.99-1.64 7.08-2.9 8.1-1.65 12.45-.58 20.9 5.13 4.04 2.73 7.23 5.06 7.08 5.18-.94.77-19.45 1.17-21.73.47zM305.93 446.04l-7.36-.4 8.19-5.33c10.78-7.01 13.7-7.5 26-4.28l3.74.97-3.5 2.37c-1.92 1.3-4.74 3.3-6.26 4.42-3.08 2.28-8.83 2.9-20.81 2.25zM322.31 491.55c6.74-11.62 12.13-14.35 25.44-12.93 5.38.58 6.23.91 5.26 2.08-.63.76-1.46 1.39-1.85 1.39-.38 0-2.62 1.77-4.96 3.94-4.7 4.33-7.99 5.46-17.91 6.17-4.77.34-6.44.16-5.98-.65zM695.72 492.41c-8-1.16-9.03-1.58-15.02-6.2-3.53-2.73-6.96-5.16-7.61-5.4-2.55-.9.52-1.95 7.13-2.42 8.88-.64 14.7 1.42 18.41 6.49a93.85 93.85 0 0 0 5.08 6.3c1.35 1.48 2.04 2.65 1.53 2.6l-9.52-1.37zM653.07 520.47c-1.7-1.04-3.36-2.8-3.68-3.93l-1.18-4.14c-.57-1.98-.34-2.07 3.58-1.55 5.1.69 7.7 3.1 8.48 7.9.54 3.32.4 3.62-1.75 3.62-1.29 0-3.74-.86-5.45-1.9zM364.45 520.16c1.68-5.4 2.48-6.63 5.24-8.06 3.84-1.98 6.97-1.96 6.97.05 0 3.41-3.15 8.14-6.12 9.17-5.04 1.76-6.9 1.4-6.1-1.16zM635.82 561.4c-2-1.74-5.23-4.45-7.16-6-5.93-4.8-6.71-7.31-6.45-20.75l.14-6.88 2.17 2.95c1.2 1.62 4.28 5 6.85 7.5 2.57 2.49 5.34 6.14 6.15 8.1 1.35 3.21 3.29 18.33 2.35 18.27-.22-.01-2.04-1.45-4.05-3.2zM384.93 561.42c.27-1.75.77-5.39 1.12-8.08.77-6.02 3.2-10.89 7.35-14.76a58 58 0 0 0 5.9-6.66l2.74-3.72.7 6.46c1.32 12.4-.96 18.45-8.53 22.57-2.58 1.4-5.55 3.64-6.6 4.97-2.55 3.25-3.27 3.04-2.68-.78z"/><path fill="#573313" d="M582.98 580.34c-1.3-1.31-1.96-3.28-1.96-5.9 0-5.05 2.65-7.86 7.41-7.86 4.5 0 8.3 3.6 8.3 7.86 0 6.63-9.1 10.54-13.75 5.9zM432.4 581.07c-4.06-3.08-3.88-11.29.3-13.53a9.12 9.12 0 0 1 10.44 1.57c4.84 4.84 1.05 13.2-5.98 13.2-1.72 0-3.87-.56-4.76-1.24z"/></g><path fill="#573313" d="M509.57 645.45c-4.8-1.32-7-3.1-8.85-7.18-1.66-3.66-1.86-6.68-1.88-28.33l-.02-24.23-15.62-.33c-19.98-.43-19.75-.27-19.75-13.22 0-13.44 1.1-14.1 23.33-14.12l12.04-.01V540.5l-6.63-.65c-37.97-3.74-73.02-19.76-99.74-45.58-31.69-30.61-48.79-68.06-50.5-110.63-1.5-37 7.63-70.98 26.91-100.22 21.49-32.57 51.42-56.23 88.97-70.32 8.04-3.01 8.74-3.12 10.26-1.6 1.98 1.98 2.32 1.65-6.23 5.93-22.16 11.1-43.09 36.32-53.85 64.92-5.81 15.44-8.7 41.67-6.5 59.12 2.33 18.51 9.82 37.9 21.36 55.3 14.35 21.63 39.25 38.27 65.65 43.87 10.83 2.3 34.35 2.34 46.03.08 38.79-7.49 68.86-34.43 82.92-74.28 8.23-23.32 8.24-53.6.03-79.58-9.34-29.54-31.85-57.66-55.86-69.78-6.58-3.32-7.36-4.2-5.3-5.91 1.24-1.03 3-.68 10.06 1.97 12.6 4.74 32.22 14.96 42.13 21.92 12.64 8.89 38.7 35.16 46.4 46.78 11.72 17.72 20.58 40 24.85 62.5 3.24 17.09 3.25 46.22 0 62.22-8.6 42.55-30.91 77.71-65.03 102.44-22.18 16.08-53.22 27.87-78.84 29.94l-8.6.7v18.39l12.53.05c19.62.1 21.82 1.58 21.84 14.82.01 5.94-.38 8-1.86 9.83-1.82 2.24-2.4 2.32-17.44 2.53l-15.56.2-.5 24.85c-.42 21.3-.73 25.3-2.22 28.03-2.85 5.21-9.53 8.48-14.53 7.1zm9.3-131.13c5.94-5.93 5.98-13.34.16-25.8-2.88-6.16-3.6-8.94-3.78-14.5l-.22-6.87 9.12-.88c10.35-.99 9.92-1.21 14.55 7.6 2.94 5.61 4.11 15.85 2.5 21.8-.59 2.16-2.63 6.53-4.53 9.69-3.64 6.05-4.15 7.92-2.41 9 1.72 1.05 5.68-3.46 9.06-10.31 2.87-5.85 3.15-7.21 3.15-15.76 0-8.74-.24-9.84-3.6-16.89l-3.6-7.53 7.04-1.57c3.87-.86 12.12-3.77 18.33-6.46 6.22-2.69 11.86-4.89 12.54-4.9.68 0 3.24.94 5.68 2.09 5.66 2.66 8.77 7.87 10.16 17.04 1.01 6.67 2.95 10.6 6.28 12.7 1.17.74 1.97.71 2.77-.1.85-.84.6-1.86-1-4.12-1.18-1.66-2.57-5.77-3.1-9.17a80.76 80.76 0 0 0-1.95-9.22c-1.27-3.95-7.19-9.86-11.4-11.38-1.8-.65-3.27-1.43-3.27-1.72 0-.3 3.7-2.86 8.22-5.7l8.22-5.16 5.17.98c5.83 1.1 9.96 3.38 14.18 7.8l2.9 3.01-2.9.01c-4.67.03-5.8 1.31-5.57 6.4.29 6.64 3.57 11.87 8.66 13.81 6.9 2.64 11.22.39 11.22-5.84 0-2.94-.89-5.39-3.26-8.97-1.8-2.7-4.46-6.8-5.91-9.1-3.12-4.92-11.37-10.64-16.76-11.61l-3.83-.7 5.3-4.84 5.3-4.85 8.47.32c8.43.31 8.49.34 13 4.5 5.27 4.85 10 5.73 16.57 3.07 8.2-3.31-.07-14.45-11.43-15.4-4.33-.35-5.52-.09-7.1 1.61-1.69 1.82-2.65 1.97-8.88 1.45l-7-.59 3.3-5.13c1.8-2.83 4.47-7.3 5.91-9.94 3.83-7 7.99-10.93 13.46-12.74 4.53-1.51 5.07-1.5 8.7.14 11.82 5.32 23.35-2.39 14.6-9.76-6.03-5.06-15.46-4.5-17.1 1.02-.75 2.53-1.52 3.15-4.42 3.57-1.93.27-4.36.84-5.4 1.26-1.6.63-1.77.45-1.1-1.14.42-1.03 2.03-6.47 3.56-12.07 1.54-5.6 3.46-11.2 4.28-12.45.81-1.25 3.71-3.48 6.44-4.97 2.73-1.48 5.84-4.11 6.9-5.84 2.36-3.8 2.57-11.13.45-15.23-1.46-2.83-7.76-6.84-10.74-6.84-2.2 0-1.96-6.08.42-10.75 4.55-8.91 3.22-16.29-4.05-22.51-2.22-1.9-4.68-4.99-5.46-6.85-1.27-3.05-1.57-3.24-2.92-1.89-2.59 2.6-.71 7.53 4.82 12.7 4.38 4.08 4.92 5.03 4.87 8.56-.03 2.18-.97 6.03-2.08 8.55a26.45 26.45 0 0 0-2.03 10.65v6.06h3.38c4.66 0 8.03 2.04 9.9 5.97 2.63 5.54.32 9.67-7.67 13.73-5.67 2.87-7.88 6.26-10.1 15.47a118.6 118.6 0 0 1-33.96 59.02c-18.12 17.24-39.17 28.47-62.95 33.56-11.47 2.46-39.33 2.5-50.65.08-22.78-4.88-42.94-15.34-60.92-31.6-14.05-12.7-29.08-38.55-34.24-58.9-3.08-12.13-5.05-15.15-12.26-18.8-5.13-2.6-6.78-4.75-6.78-8.8 0-5.75 3.56-9.26 9.45-9.3 3.75-.03 4.1-.27 4.67-3.1 1.2-6 .64-9.71-2.09-13.83-3.3-5-3.67-11.3-.83-14.44 1.03-1.14 2.4-2.07 3.02-2.07 2.52 0 5.52-4.65 5.72-8.85.26-5.62-1.76-6.2-3.8-1.1a12.33 12.33 0 0 1-4.86 5.9c-7.4 4.36-8.89 12.2-4.16 21.83 1.49 3.03 2.7 6.63 2.7 8 0 2.07-.58 2.6-3.4 3.13-7.32 1.38-12.36 9.06-10.93 16.68.86 4.57 3.82 7.92 9.9 11.2 5.32 2.88 4.85 1.99 10.63 20.34 1.36 4.32 2.79 8.64 3.16 9.6.6 1.53.38 1.61-1.94.73-1.45-.55-4.15-1-6-1-2.93 0-3.38-.32-3.38-2.38 0-1.43-1.09-3.24-2.7-4.52-2.24-1.76-3.64-2.06-8.03-1.7-4.48.37-5.77.94-8.16 3.62-3.38 3.78-3.25 6.48.43 9.22 3.32 2.47 9.94 2.62 14.56.31 3.69-1.84 6.49-1.54 13.18 1.42 3.23 1.43 5 3.22 7.93 8 2.07 3.4 5.7 8.92 8.07 12.27l4.3 6.1-8.16.29c-5.86.2-8.45-.08-9.18-1.01-1.73-2.2-8.85-2.58-13.7-.73-7.17 2.74-11.75 10.13-8.12 13.1 2.14 1.76 9.63 3.31 12.7 2.64 1.63-.36 4.75-2.49 6.92-4.73l3.95-4.07 9.46-.32 9.46-.32 4.21 4.32 4.21 4.32-5.93 1.66c-6.84 1.9-12.16 6.53-16.25 14.13a151.11 151.11 0 0 1-4.4 7.65 21.92 21.92 0 0 0-2.52 6.95c-.86 5.4 1.05 7.3 7.35 7.3 7.4 0 10.5-3.3 12.69-13.42 1.14-5.3.17-6.68-4.71-6.68-2.2 0-3.98-.34-3.98-.75 0-2.06 8.71-9.51 12.28-10.49 7.63-2.1 10.38-1.48 18.42 4.1l7.46 5.2-4.46 2.38c-6.08 3.22-8.78 7.7-10.67 17.7-.87 4.59-2.48 9.8-3.59 11.6-2.36 3.84-1.31 5.97 2.06 4.17 3.03-1.62 4.96-6.07 6.54-15.04 1.6-9.15 3.98-12.45 10.86-15.08l4.18-1.6 11.69 5.02c6.43 2.76 12.17 5.02 12.74 5.02.58 0 3.94.9 7.46 1.98l6.41 1.98-2.85 5.64c-5.36 10.58-5.69 24.26-.83 34.3 3.92 8.1 8.93 12.4 10.3 8.84.27-.7-1.06-3.86-2.95-7-4.93-8.2-5.77-11.46-5.26-20.56.36-6.53 1.02-9.13 3.63-14.26l3.2-6.27 5.95.62c3.28.35 7.67.63 9.75.63h3.78v7.32c0 6.52-.39 8.07-3.6 14.21-5.88 11.26-5.57 21.71.8 27.07 4.2 3.53 7.88 3.24 12.06-.94zm-63.26-14.5c5.17-3.5 6.34-8.44 4.52-19-.8-4.7-1.85-8.91-2.31-9.38-1.79-1.78-9.99 7.1-14.36 15.56-5.29 10.22 3.03 19 12.15 12.82zm124.3-.2c2.89-2.88 3.21-7.92.82-12.62-2.7-5.32-11.28-16.41-12.7-16.41-1.73 0-3.33 5.63-4.05 14.32-.45 5.48-.21 7.72 1.16 10.6 3.07 6.47 10.38 8.5 14.78 4.1z"/><g><g fill="#975b27"><path d="M511.88 261.76a23.68 23.68 0 0 1 5.43 14.46c.14 5.7-1.9 11.44-5.6 15.8a25.15 25.15 0 0 1-5.01-15.97 25.1 25.1 0 0 1 5.18-14.29zM539.23 266.54a23.68 23.68 0 0 1 .16 15.44 23.72 23.72 0 0 1-10.67 12.93 25.15 25.15 0 0 1 .75-16.71c1.94-4.77 5.4-8.9 9.76-11.66zM563.29 280.39a23.69 23.69 0 0 1-5.13 14.56 23.72 23.72 0 0 1-14.44 8.5c.29-5.68 2.6-11.23 6.42-15.45a25.11 25.11 0 0 1 13.15-7.61zM581.16 301.63a23.68 23.68 0 0 1-9.8 11.93 23.72 23.72 0 0 1-16.47 3.05 25.15 25.15 0 0 1 11.31-12.33 25.1 25.1 0 0 1 14.96-2.65zM590.7 327.7c-3.39 4-8.15 6.82-13.3 7.86-5.6 1.13-11.6.12-16.52-2.77a25.15 25.15 0 0 1 14.85-7.71c5.1-.7 10.4.23 14.97 2.62zM590.74 355.46c-4.55 2.6-10 3.62-15.18 2.84a23.72 23.72 0 0 1-14.58-8.26 25.15 25.15 0 0 1 16.59-2.16 25.1 25.1 0 0 1 13.17 7.58zM581.28 381.56a23.7 23.7 0 0 1-15.23-2.52 23.72 23.72 0 0 1-10.88-12.75c5.65-.7 11.52.61 16.33 3.64a25.1 25.1 0 0 1 9.78 11.63zM563.47 402.85a23.68 23.68 0 0 1-13.45-7.58 23.72 23.72 0 0 1-5.86-15.7 25.15 25.15 0 0 1 14.1 9c3.15 4.07 5 9.14 5.21 14.28zM539.45 416.77a23.68 23.68 0 0 1-10.05-11.73 23.72 23.72 0 0 1-.14-16.75 25.15 25.15 0 0 1 10.17 13.28c1.58 4.9 1.59 10.3.02 15.2zM512.12 421.63a23.68 23.68 0 0 1-5.43-14.46 23.72 23.72 0 0 1 5.6-15.79 25.15 25.15 0 0 1 5.01 15.96 25.11 25.11 0 0 1-5.18 14.29zM484.77 416.85a23.68 23.68 0 0 1-.16-15.44 23.72 23.72 0 0 1 10.67-12.93 25.15 25.15 0 0 1-.75 16.72 25.11 25.11 0 0 1-9.76 11.65zM460.71 403a23.69 23.69 0 0 1 5.13-14.56 23.72 23.72 0 0 1 14.44-8.5 25.15 25.15 0 0 1-6.42 15.45 25.11 25.11 0 0 1-13.15 7.62zM442.84 381.77a23.68 23.68 0 0 1 9.8-11.93 23.72 23.72 0 0 1 16.47-3.05 25.15 25.15 0 0 1-11.31 12.32 25.11 25.11 0 0 1-14.96 2.66zM433.3 355.7c3.39-4.01 8.15-6.83 13.3-7.86 5.6-1.13 11.6-.12 16.52 2.77a25.15 25.15 0 0 1-14.85 7.7c-5.1.7-10.4-.22-14.97-2.61zM433.26 327.94c4.55-2.61 10-3.63 15.18-2.84a23.72 23.72 0 0 1 14.58 8.25 25.15 25.15 0 0 1-16.59 2.17 25.11 25.11 0 0 1-13.17-7.58zM442.72 301.83a23.7 23.7 0 0 1 15.23 2.53 23.72 23.72 0 0 1 10.88 12.74c-5.65.7-11.52-.6-16.33-3.63a25.1 25.1 0 0 1-9.78-11.64zM460.53 280.54c5.16.93 9.98 3.65 13.45 7.58a23.72 23.72 0 0 1 5.86 15.7 25.15 25.15 0 0 1-14.1-9c-3.15-4.07-5-9.13-5.21-14.28zM484.55 266.63a23.68 23.68 0 0 1 10.05 11.72 23.72 23.72 0 0 1 .14 16.76 25.15 25.15 0 0 1-10.17-13.29 25.12 25.12 0 0 1-.02-15.2z"/></g><path fill="#573313" d="M512 286.76a54.7 54.94 0 0 0-54.7 54.94 54.7 54.94 0 0 0 54.7 54.93 54.7 54.94 0 0 0 54.7-54.93 54.7 54.94 0 0 0-54.7-54.94zm0 10.67a44.08 44.26 0 0 1 44.08 44.27A44.08 44.26 0 0 1 512 385.96a44.08 44.26 0 0 1-44.08-44.26A44.08 44.26 0 0 1 512 297.43z"/><path fill="#573313" d="M512 310.74a30.83 30.96 0 0 0-30.83 30.96A30.83 30.96 0 0 0 512 372.66a30.83 30.96 0 0 0 30.83-30.96A30.83 30.96 0 0 0 512 310.74zm-11.73 9.11a5.1 6.82 45.73 0 1 3.1 1.35 5.1 6.82 45.73 0 1-1.58 8.45 5.1 6.82 45.73 0 1-8.4.85 5.1 6.82 45.73 0 1 1.59-8.45 5.1 6.82 45.73 0 1 5.29-2.2zm-9.95 12.9a2.9 2.9 0 0 1 2.9 2.9 2.9 2.9 0 0 1-2.9 2.9 2.9 2.9 0 0 1-2.9-2.9 2.9 2.9 0 0 1 2.9-2.9z"/></g></g></g></svg>