<svg xmlns="http://www.w3.org/2000/svg" viewBox="0 0 1696 512"><g><path fill="#573313" d="M819.42 192.53v3.53q-5.65.18-8.65 1.41-3 1.06-4.06 4.24-.88 3-.88 9.53v87.57q0 6.36 1.06 9.54 1.06 3.18 3.88 4.23 3 1.06 8.65 1.42v3.53q-4.59-.35-11.65-.35-7.06-.18-14.3-.18-7.95 0-15 .18-6.9 0-11.13.35V314q6-.36 9-1.42 3.18-1.05 4.24-4.23 1.06-3.18 1.06-9.54v-96.04l1.23.18-43.78 115.1h-2.83l-46.6-114.22v87.57q0 8.47 1.05 13.24 1.06 4.59 4.6 6.7 3.7 1.95 11.12 2.66v3.53q-3.36-.35-8.65-.35-5.3-.18-10.07-.18-4.23 0-8.65.18-4.24 0-7.06.35V314q5.83-.7 8.65-2.65 3-1.94 3.89-6.36 1.05-4.41 1.05-12.18v-81.57q0-6.53-1.05-9.53-.89-3.18-3.89-4.24-2.82-1.23-8.65-1.4v-3.54q2.82.18 7.06.35 4.42.18 8.65.18 6.54 0 12.71-.18 6.18-.17 10.95-.35l37.96 94.8-3.88 3.19 36.9-97.46H793.46q7.24 0 14.3-.18 7.06-.17 11.65-.35zm68.86-.53 42.9 110.7q2.65 6.35 5.65 8.83 3.18 2.3 5.82 2.47v3.53q-4.59-.35-11.12-.35-6.35-.18-13.06-.18-7.77 0-14.48.18-6.71 0-10.95.35V314q9-.36 11.48-3 2.47-2.83-1.06-11.83l-31.07-83.87 3.17-3.88-28.24 73.27q-3.36 8.83-4.06 14.48-.71 5.65.88 8.82 1.59 3.18 5.3 4.6 3.7 1.23 9.18 1.4v3.54q-5.65-.35-10.95-.35-5.3-.18-10.6-.18-3.88 0-7.4.18-3.36 0-6.01.35V314q3.88-.89 7.59-4.6 3.88-3.7 7.42-12.88L879.1 192q2.11.18 4.59.18 2.47 0 4.59-.18zm15.36 74.68v3.53h-52.62l1.77-3.53zm188.38-74.15v3.53q-5.65.18-8.65 1.41-3 1.06-4.06 4.24-.89 3-.89 9.53v87.57q0 6.36 1.06 9.54 1.06 3.18 3.89 4.23 3 1.06 8.65 1.42v3.53q-4.6-.35-11.66-.35-7.06-.18-14.3-.18-7.94 0-15 .18-6.89 0-11.13.35V314q6-.36 9-1.42 3.19-1.05 4.25-4.23 1.06-3.18 1.06-9.54v-96.04l1.23.18-43.78 115.1h-2.83l-46.6-114.22v87.57q0 8.47 1.05 13.24 1.06 4.59 4.6 6.7 3.7 1.95 11.11 2.66v3.53q-3.35-.35-8.65-.35-5.3-.18-10.06-.18-4.24 0-8.65.18-4.24 0-7.06.35V314q5.82-.7 8.65-2.65 3-1.94 3.88-6.36 1.06-4.41 1.06-12.18v-81.57q0-6.53-1.06-9.53-.88-3.18-3.88-4.24-2.83-1.23-8.65-1.4v-3.54q2.82.18 7.06.35 4.41.18 8.65.18 6.53 0 12.71-.18 6.18-.17 10.95-.35l37.96 94.8-3.89 3.19 36.9-97.46H1066.06q7.24 0 14.3-.18 7.07-.17 11.66-.35zm68.85-.53 42.9 110.7q2.65 6.35 5.65 8.83 3.18 2.3 5.83 2.47v3.53q-4.59-.35-11.12-.35-6.36-.18-13.07-.18-7.77 0-14.47.18-6.71 0-10.95.35V314q9-.36 11.48-3 2.47-2.83-1.06-11.83l-31.08-83.87 3.18-3.88-28.25 73.27q-3.35 8.83-4.06 14.48-.7 5.65.88 8.82 1.6 3.18 5.3 4.6 3.7 1.23 9.18 1.4v3.54q-5.65-.35-10.94-.35-5.3-.18-10.6-.18-3.88 0-7.41.18-3.36 0-6 .35V314q3.88-.89 7.59-4.6 3.88-3.7 7.41-12.88L1151.7 192q2.12.18 4.6.18 2.46 0 4.58-.18zm15.36 74.68v3.53h-52.61l1.77-3.53zm151.84-74.15v3.53q-5.83 1.06-11.83 4.41-6 3.36-12.36 10.95l-33.37 40.96 7.95-12.71 42.2 63.56q2.82 4.06 5.82 6.53 3 2.47 7.77 4.24v3.53q-5.48-.35-12.54-.35-7.06-.18-12.89-.18-3.35 0-8.47.18-4.94 0-12.54.35V314q7.07-.36 8.48-1.94 1.41-1.77-1.24-6l-25.77-40.61q-2.83-4.6-5.12-6.89-2.12-2.3-4.42-3-2.3-.88-5.65-1.06v-3.53q7.42-.35 13.24-3.89 5.83-3.53 11.66-10.41l12.53-15.72q6.53-7.76 7.95-13.24 1.4-5.47-1.6-8.47-3-3-10.06-3.18v-3.53l7.77.35q3.89 0 7.77.18h8.47q5.12 0 9.19-.18 4.06-.17 7.06-.35zm-59.68 0v3.53q-5.65.18-8.65 1.41-2.82 1.06-3.88 4.24-1.06 3-1.06 9.53v87.57q0 6.36 1.06 9.54 1.06 3.18 3.88 4.23 3 1.06 8.65 1.42v3.53q-4.41-.35-11.3-.35-6.88-.18-13.94-.18-7.95 0-14.83.18-6.89 0-11.3.35V314q5.82-.36 8.65-1.42 3-1.05 3.88-4.23 1.06-3.18 1.06-9.54v-87.57q0-6.53-1.06-9.53-.88-3.18-3.88-4.24-2.83-1.23-8.65-1.4v-3.54q4.41.18 11.3.35 6.88.18 14.83.18 7.06 0 13.94-.18 6.89-.17 11.3-.35zm182.38 0v3.53q-5.65.53-8.65 2.65-2.83 1.94-3.88 6.35-1.06 4.24-1.06 12.19v48.9q0 11.83-1.6 21.19-1.4 9.36-5.64 16.24-4.42 7.42-13.24 12-8.65 4.42-21.19 4.42-8.47 0-16.77-1.94-8.12-1.94-14.3-7.24-5.48-4.6-8.65-10.42-3-5.82-4.06-13.94-1.06-8.3-1.06-19.78v-55.44q0-6.53-1.06-9.53-.89-3.18-3.89-4.24-2.82-1.23-8.65-1.4v-3.54q4.42.18 11.3.35 6.89.18 14.83.18 7.24 0 14.3-.18 7.06-.17 11.65-.35v3.53q-6 .18-9.18 1.41-3 1.06-4.06 4.24-1.06 3-1.06 9.53v63.92q0 8.82 1.06 16.06 1.24 7.06 3.89 12.18 2.82 5.12 7.77 7.77 5.12 2.65 12.88 2.65 12.9 0 19.95-5.83 7.07-5.82 9.9-16.24 2.82-10.41 2.82-23.66v-49.43q0-8.65-1.24-13.24-1.24-4.6-4.94-6.71-3.53-2.12-10.6-2.65v-3.53q3.36.18 8.65.35 5.48.18 10.07.18 4.41 0 8.65-.18 4.41-.17 7.06-.35zm124.65 0v3.53q-5.65.53-8.65 2.65-3 1.94-4.07 6.35-.88 4.24-.88 12.19v100.8q-1.59-.17-3.53-.17-1.76 0-3.88.18l-75.74-102.93v76.27q0 8.47 1.06 13.24 1.05 4.59 4.59 6.7 3.7 1.95 11.12 2.66v3.53q-3.36-.35-8.65-.35-5.3-.18-10.07-.18-4.23 0-8.65.18-4.23 0-7.06.35V314q5.83-.7 8.65-2.65 3-1.94 3.89-6.36 1.06-4.41 1.06-12.18v-81.57q0-6.53-1.06-9.53-.89-3.18-3.89-4.24-2.82-1.23-8.65-1.4v-3.54q2.83.18 7.06.35 4.42.18 8.65.18 4.06 0 7.95-.18 3.88-.17 6.88-.35l66.21 88.1v-61.97q0-8.65-1.06-13.24-1.06-4.6-4.59-6.71-3.53-2.12-11.12-2.65v-3.53q3.35.18 8.65.35 5.47.18 10.06.18 4.42 0 8.65-.18 4.42-.17 7.07-.35zm65.96-.53 42.9 110.7q2.65 6.35 5.65 8.83 3.18 2.3 5.82 2.47v3.53q-4.59-.35-11.12-.35-6.35-.18-13.06-.18-7.77 0-14.48.18-6.71 0-10.95.35V314q9-.36 11.48-3 2.47-2.83-1.06-11.83l-31.07-83.87 3.17-3.88-28.24 73.27q-3.36 8.83-4.06 14.48-.71 5.65.88 8.82 1.59 3.18 5.3 4.6 3.7 1.23 9.18 1.4v3.54q-5.65-.35-10.95-.35-5.3-.18-10.6-.18-3.88 0-7.4.18-3.36 0-6.01.35V314q3.88-.89 7.59-4.6 3.88-3.7 7.42-12.88L1632.2 192q2.11.18 4.59.18 2.47 0 4.59-.18zm15.36 74.68v3.53h-52.62l1.77-3.53z"/><g><g><path fill="#573313" d="M488.49 193.59c-3.55-35.7-14.27-66.5-33.86-97.28-13.46-21.16-37.8-49.38-56.96-66.08-4.26-3.71-5.84-5.6-5.2-6.24.64-.64 5 1.35 14.4 6.58 30.8 17.12 53.18 34.73 73.1 57.56 14.77 16.91 17.99 21.96 19.72 31 4.41 23.07 4.18 42.28-.72 59.6-2.08 7.38-7.38 19.2-9.07 20.25-.47.29-1.08-2.05-1.41-5.4zM52.1 197.54c-4.2-6.51-8.55-19.5-10.31-30.72-1.7-10.78-1.13-31.87 1.2-44.85l2.07-11.56 8.36-10.34c21.28-26.3 35.92-39.91 60.43-56.15 13-8.62 35.07-20.86 37.61-20.86.2 0 .37.56.37 1.24 0 .68-2.06 2.86-4.59 4.85-7.95 6.28-25.9 24.5-35.32 35.83-33.4 40.23-50.9 78.58-56.53 123.87-.68 5.44-1.4 10.07-1.62 10.29-.21.21-.97-.5-1.67-1.6z"/><path fill="#573313" d="M534.49 285c-3.2-4.33-8.55-13.67-12.97-22.65-8.9-18.1-12-23.13-18.22-29.66l-4.66-4.88 4.82-5.65c10.4-12.22 17.73-25.31 20.84-37.22 1.9-7.3 1.76-9.23-.64-8.89-1.6.23-2.14 1.19-3.08 5.52-1.72 7.9-9.68 23.42-16.6 32.34-8.2 10.57-8.99 11.23-11.88 9.91-2.21-1-2.3-1.3-2.3-8.38 0-7.07.12-7.5 3.38-12.3a72.41 72.41 0 0 0 9.99-20.73c4.05-12.88 5.74-32.23 4.12-47.41-.58-5.44-.86-10.08-.63-10.31.23-.23 2.44 3.11 4.91 7.43a242.98 242.98 0 0 1 29.39 86.74c1.97 14.5 2.58 41.8 1.28 56.58-1.67 18.76-1.3 18.3-7.75 9.56zm-2.94-50.77c1.66-1.66 1.27-2.24-2.23-3.35-1.8-.58-5.16-2.6-7.46-4.52-4.25-3.53-6.73-3.86-6.73-.9 0 1.01 2.28 3.11 6.2 5.71 6.43 4.25 8.43 4.85 10.22 3.06zM2.14 288.57c-6.58-49.61 2.16-102.03 24.4-146.3 10.3-20.52 9.91-20.48 9.38-.82-.4 14.37-.2 17.96 1.44 27.38 1.03 5.96 2.68 13.23 3.66 16.15 2.18 6.55 8.03 17.65 10.88 20.66 1.88 1.98 2.12 3 2.12 9.36 0 6.93-.07 7.17-2.45 8.4-2.44 1.26-2.45 1.25-8.72-5.87-11.94-13.56-16.94-23.27-20.65-40.1-.36-1.64-1.08-2.4-2.26-2.4-1.43 0-1.73.58-1.73 3.4 0 4.61 2.98 13.95 7.08 22.2 3.97 7.96 6.04 10.9 14 19.87l5.87 6.62-6.06 6.3c-5.5 5.73-6.86 7.95-14.89 24.39-8.58 17.56-13.97 26.74-19.03 32.4l-2.46 2.76zm15.46-54.7c4.08-2.08 10.22-7.25 10.22-8.62 0-2.83-3.83-1.95-7.86 1.8a21.83 21.83 0 0 1-5.4 3.37c-3.5 1.46-4.61 2.63-3.77 3.99.8 1.29 3.64 1.06 6.8-.55z"/><path fill="#975b27" d="M533.36 298.61c-4.54-3.3-5.38-4.26-20-23.15-5.77-7.44-12.34-16.84-14.61-20.89-2.27-4.04-5.21-8.44-6.54-9.76-2.2-2.2-2.4-2.97-2.4-9.03 0-3.64.35-6.61.79-6.61 1.66 0 9.86 7.24 13.62 12.03 3.61 4.6 8.96 14.53 13.42 24.92 2.59 6.03 10.1 18.3 15.86 25.93 3.27 4.32 4.77 7.05 4.43 8.02-.46 1.28-1.07 1.09-4.57-1.46zM5.11 299.99c0-.92 1.7-3.77 3.77-6.34 6.67-8.26 9.24-12.6 18.07-30.63 4.78-9.73 10.07-19.56 11.76-21.83 3.24-4.35 12.33-12.02 14.25-12.02.85 0 1.07 1.68.87 6.77-.18 4.84-.56 6.7-1.34 6.55-.6-.12-1 .1-.88.47.12.39-1.2 2.84-2.93 5.46a254.87 254.87 0 0 0-6.73 10.96c-1.96 3.4-6.05 9.3-9.07 13.11-3.02 3.8-6.67 8.49-8.1 10.4-4.46 5.99-10.24 11.77-11.18 11.19-.5-.3-.65-.15-.34.36.59.94-5.74 7.21-7.28 7.21-.48 0-.87-.75-.87-1.66zM457.97 336.51c.8-1.55 2.9-5.21 4.67-8.14 8.18-13.5 14.51-30.05 20.23-52.8 2.34-9.3 4.51-19.24 4.83-22.07.72-6.35 1.21-6.06 7.25 4.41 4.7 8.13 15.33 22.6 25.68 34.92l6.16 7.34-2.3 1.83c-3.7 2.96-22.06 12.64-29.09 15.35-6.35 2.44-6.47 2.46-6.47.66 0-1.72 7.2-9.37 8.82-9.37.4 0 2.9-.82 5.57-1.81 5.55-2.08 7.44-4.73 7.44-10.42 0-5.24-1.62-7.66-11.1-16.48-8.96-8.33-11.93-9.8-11.44-5.62.2 1.65 2.2 4.01 6.82 8.02 7.67 6.65 10.77 10.8 10.77 14.37 0 2.57-2.44 5.34-3.9 4.44-.42-.26-.75-.08-.75.4 0 .46-1.15 1.1-2.56 1.4-7.55 1.67-15.27 10.44-14.75 16.77.36 4.27 2.8 5.65 7.98 4.5 4.27-.93 17.52-7.24 29.74-14.17 9.06-5.14 10.56-5.63 11.29-3.73.27.7-1.86 2.9-5.37 5.57-20.53 15.57-39.67 23.28-66.78 26.89l-4.2.56zM75.85 338.22a106.17 106.17 0 0 1-15.1-2.94c-13.4-3.81-35.7-15.92-46.47-25.23-2.62-2.26-3.25-3.27-2.5-4.03 1.14-1.18 3.88.07 15.8 7.24 9.76 5.87 23 11.97 25.97 11.97 1.3 0 3.26-.97 4.52-2.23 1.9-1.89 2.15-2.73 1.65-5.46-.98-5.4-4.56-8.94-13.42-13.27-6.18-3-8.19-4.43-8.6-6.06-.9-3.48 2.97-9.48 9.77-15.16 6.78-5.67 7.67-6.81 6.9-8.83-1.05-2.7-3.56-1.3-11.92 6.7-8.5 8.11-10.27 10.78-10.27 15.6 0 5.8 3.64 9.37 13.2 12.94 5.32 2 7.14 3.54 8.57 7.29 2.15 5.68-4.84 3.13-26.37-9.6-12.31-7.28-11.8-6.24-6.16-12.47 1.52-1.69 4.83-5.82 7.34-9.18 2.5-3.37 6.4-8.28 8.66-10.92 4.9-5.74 8.15-10.56 12.64-18.78 1.84-3.36 3.48-6.27 3.65-6.47.7-.84 1.24.9 2.53 8.29 4.62 26.54 14.7 54.79 25.9 72.6 2.78 4.44 5.06 8.27 5.06 8.52 0 .55-1.5.48-11.35-.52z"/><path fill="#573313" d="M417.22 434.36c-2.69-.32-5.34-.86-5.9-1.2-.54-.33-.99-2.36-.99-4.49v-3.88l8.52-.01c10.28-.02 17.82-1.67 25.98-5.7 18.74-9.27 28.7-31.6 23.44-52.54-.8-3.17-3.36-9.5-5.68-14.08-2.33-4.56-4.13-8.38-4-8.48.11-.1 3.25-.37 6.96-.6 7.56-.46 7.86-.3 11.04 6.02 8.57 17.07 6.75 40.88-4.4 57.64-4.75 7.12-14.59 16.3-21.63 20.18-9.72 5.35-23.47 8.3-33.34 7.14zM114.71 434.37c-2.88-.3-7.4-1.26-10.04-2.12-4.45-1.45-12.96-5.5-13.97-6.64a58.15 58.15 0 0 0-4.5-3.26c-8.48-5.77-17.41-17.68-21.32-28.45-5.42-14.93-4.62-30.17 2.36-44.87l2.59-5.46h7.37c5.04 0 7.38.33 7.38 1.02 0 .56-1.52 3.8-3.4 7.2-6.85 12.52-8.82 25.4-5.72 37.4 5.95 22.95 23.4 35.74 49.08 35.96l8.95.08v4.17c0 2.57-.42 4.32-1.1 4.54-2.14.72-12.53.97-17.68.43z"/><path fill="#573313" d="M323.87 506.25c0-.47 1.57-6.23 3.5-12.8 3.95-13.52 7.31-20.8 12.03-26.03 3.1-3.44 13.31-11.46 13.88-10.9.36.37-7.07 18.78-9.36 23.17-2 3.85-1.72 5.36 1.02 5.36 2.42 0 6.87-9.78 14.64-32.22 3.39-9.8 6.38-18.02 6.65-18.28.26-.27 2.92.4 5.91 1.5 9.75 3.56 22.98 3.35 30.55-.48l2.4-1.22v6.92c0 7.63-2.17 16.12-5.87 22.99-2.34 4.33-2.16 7.14.41 6.66 3.86-.7 10.27-19.13 10.63-30.5.07-2.28.09-2.29 4.66-1.44 2.52.47 7.96.64 12.1.38 27.06-1.69 51.28-22.9 58.5-51.25.7-2.8 1.2-8.81 1.15-14.4-.07-10.9-1.62-17.67-6.11-26.72l-2.86-5.75 9.56-2.9c15.8-4.78 32.9-13.69 43.92-22.86 2.83-2.36 5.3-4.11 5.52-3.9.87.87-4.54 19.3-8.99 30.6-26.18 66.5-74.89 117.29-140.07 146.04-20.96 9.25-63.77 21.35-63.77 18.03zm54.98-29.15c1.07-2.91 1.8-5.42 1.64-5.58a6.3 6.3 0 0 0-1.94-.58c-1.3-.23-1.95.57-2.96 3.63a54.34 54.34 0 0 1-1.49 4.16c-.1.13-2.05-.6-4.34-1.61-3.07-1.36-4.4-1.58-5.13-.86-1.62 1.62.44 3.77 5.61 5.85 3 1.2 5.08 1.6 5.7 1.1.54-.45 1.85-3.2 2.91-6.1zm-10.56-9.8c.72-.87.64-1.6-.28-2.84-1.17-1.58-1.33-1.6-2.74-.2-1.25 1.23-1.32 1.72-.39 2.84 1.38 1.66 2.16 1.7 3.41.2zm22.43-14.1c.81-2.14 1.25-4.49.97-5.22-.78-2.04-3.21-.6-3.78 2.25-.28 1.38-.64 2.5-.81 2.5a62.2 62.2 0 0 1-5.03-2.3c-4.72-2.32-7.54-2.33-7.54-.02 0 1.24 10.6 6.56 13.24 6.65.94.03 1.99-1.34 2.95-3.85zm112.05-68.86c.52-.63.78-2.5.57-4.14-1.8-14.2-2.54-18.17-4.41-23.66-1.18-3.46-2.14-6.76-2.14-7.33 0-.57 2.46-1.91 5.46-2.98 6.55-2.34 10.93-5.07 16.55-10.33 3.98-3.73 5.47-7.17 3.1-7.17-.61 0-3.26 1.78-5.9 3.96-5.99 4.94-15.36 9.72-20.6 10.5-2.2.33-4.17 1.09-4.4 1.68-.23.59 1.13 5.75 3.02 11.46a96.12 96.12 0 0 1 4.36 18.9c1.13 10.39 1.94 12.07 4.39 9.11zm7.11-26.35c1.56-1.87.4-4.12-1.94-3.78-2.24.32-3.18 3.19-1.41 4.3 1.64 1.05 2.12.97 3.35-.52zM207.28 504.7c-49.97-11.72-99.98-38.57-131.74-70.74-27.01-27.36-48.99-61.75-61.1-95.63-4.43-12.35-8.04-25.16-7.3-25.9.26-.26 2.77 1.27 5.56 3.42a151.21 151.21 0 0 0 44.12 23.34l8.49 2.82-2.03 4.05c-4.99 9.96-6.09 14.76-6.15 26.77-.08 16.5 2.97 26.35 12.17 39.3 3.15 4.44 16.16 17.74 16.16 16.53 0-.22 1.6.61 3.56 1.85 9.85 6.22 24.3 9.7 36.97 8.92l7.32-.46.6 5.71c1.3 12.06 6.8 26.4 10.13 26.4 2.83 0 2.82-2.13-.02-7.76a50.44 50.44 0 0 1-5.28-22.54l-.01-6.28 4.15 1.91c3.5 1.62 5.7 1.92 14.19 1.92 8.85 0 10.68-.27 15.43-2.27l5.38-2.27 3.5 10.13c1.92 5.57 4.32 12.8 5.34 16.07 2.72 8.78 9.8 25.06 10.89 25.05.52-.01 1.49-.36 2.15-.78 1.4-.89 1.52-.5-5.1-16.58-2.46-5.95-4.3-10.96-4.12-11.15.86-.86 11.6 7.42 14.7 11.34 5.16 6.52 6.76 10.11 11.25 25.26l4.08 13.75-2.28-.07c-1.25-.04-6.2-1-11-2.12zm-32.96-22.9c3.6-1.57 5.45-2.88 5.45-3.86 0-2.1-1.72-2.46-5.12-1.07-4.19 1.7-4.36 1.62-6.23-2.74-1.2-2.82-2.19-3.93-3.46-3.93-2.2 0-2.23 1.24-.1 6.66.91 2.34 1.88 4.95 2.15 5.79.63 1.98.87 1.96 7.3-.85zm4.07-13.87c1.34-.51 1.9-3.04.9-4.04-1.2-1.2-3.88.52-3.88 2.49 0 2.14.6 2.46 2.98 1.55zm-15.54-13.13c7.05-3.03 8.74-4.82 5.04-5.37-.93-.14-3.6.76-5.93 2-2.33 1.24-4.32 2.14-4.42 2a48.2 48.2 0 0 1-1.3-3.1c-1.07-2.68-2.9-3.69-3.88-2.12-.48.79 1.96 9.77 2.66 9.77.24 0 3.76-1.43 7.83-3.18zM44.84 378.22c.77-8.16 2.38-15.2 5.6-24.53 1.45-4.15 2.42-8.1 2.16-8.77-.26-.67-2.1-1.49-4.11-1.81-5.61-.93-15.28-5.76-21.45-10.72-3.06-2.47-5.91-4.29-6.33-4.03-4.09 2.53 8.18 12.88 20.67 17.43l6.23 2.28-2.49 7.02c-4.1 11.58-6.27 27.11-4.1 29.29 2.03 2.02 3.23.1 3.82-6.16zm-6.98-21.55c0-1.6-.53-2.26-1.97-2.46-1.18-.17-2.18.27-2.5 1.1-.86 2.26.36 4.13 2.5 3.82 1.44-.2 1.97-.86 1.97-2.46z"/><path fill="#573313" d="m231.74 508.93-3.64-.77c-1.96-.41-3.54-4.37-8.2-20.49-4.51-15.67-13.69-28.3-25.6-35.27-5.36-3.13-5.81-3.65-7.91-9.08-1.22-3.16-2.13-5.84-2.02-5.95.23-.23 14.28 7.63 21.53 12.05 6.74 4.1 15.74 13.39 19.1 19.68 1.57 2.96 5 11.7 7.63 19.41 2.62 7.72 5.56 15.6 6.54 17.51l1.77 3.48-3.73-.1a41.05 41.05 0 0 1-5.47-.47zM303.79 509.47c0-.33 1.15-3.4 2.57-6.84s4-10.86 5.76-16.5c6.95-22.34 14.91-31.45 38.66-44.18 9.9-5.3 9.5-5.53 6.17 3.36-1.44 3.85-2.25 4.71-6.84 7.23-6.46 3.53-14.7 11.07-18.38 16.79-3.43 5.35-5.34 10.3-9.76 25.33-1.91 6.48-3.94 12.24-4.5 12.8-1.13 1.12-13.68 2.96-13.68 2z"/><path fill="#975b27" d="M251.88 511.33c-4.28-.51-4.32-.55-7.65-6.63-1.84-3.36-4.91-11.06-6.84-17.1-5.09-16-9.16-23.85-16.26-31.38-6.89-7.3-11.28-10.42-26.93-19.17-6.23-3.48-12.24-7.05-13.35-7.92-1.98-1.56-2.14-1.54-7.54 1-9.85 4.6-21.42 4.95-30.54.91-3.6-1.59-4.03-2.06-3.57-3.91.81-3.22-1.11-9-4.14-12.44-3.15-3.6-6.6-5.47-15.1-8.24-8.6-2.8-11.62-4.49-16.52-9.28-5.98-5.86-8.7-12.13-8.79-20.27-.05-5.24-.35-6.56-1.66-7.3-2.43-1.35-3.25.18-3.28 6.13-.09 18 10.91 30.83 31.24 36.41 5.16 1.42 11.67 5.66 11.67 7.6 0 1.66-18.04.26-24.36-1.88-15.71-5.35-25.12-16.03-28.56-32.45-2.54-12.1 1.3-26.86 9.5-36.56 1.34-1.58 2.57-2.73 2.73-2.55.16.18 3.38 4.46 7.16 9.5 8.1 10.82 32.58 35.7 43.13 43.83 16.78 12.91 32.8 21.32 53.86 28.25 7.9 2.6 17.2 6.22 20.65 8.02 8.52 4.47 18.5 14.18 26.6 25.88 13.98 20.19 24.4 25.95 36.65 20.25 5.98-2.79 11.8-8.32 18.13-17.25 15.4-21.71 24.04-28.61 44.1-35.2 20.73-6.8 35.4-13.69 49.35-23.18 18.65-12.71 34.88-28.2 51.64-49.28l8.6-10.83 2.05 1.92c3.15 2.94 9.58 16.94 10.5 22.87 2.7 17.31-6.87 36.27-22.02 43.63-6.05 2.94-13.43 4.66-22.54 5.27-6.78.46-7.54.36-7.35-.97.33-2.27 3.41-4.33 10.34-6.9 15.46-5.74 22.8-10.89 26.87-18.81 2.36-4.61 4.35-13.09 4.35-18.58 0-5.16-.72-6.27-3.5-5.38-1.5.47-1.74 1.32-1.74 6.12 0 8.13-3.5 17.02-8.67 22.05-4.59 4.46-7.67 6.16-16.22 8.94-13.88 4.51-17.69 8.07-18.7 17.45-.5 4.76-.57 4.85-4.88 7-3.33 1.65-6.1 2.24-11.72 2.49-7.85.35-11.58-.43-19.13-3.98l-4.65-2.19-1.9 1.75c-1.05.96-7.01 4.61-13.25 8.1-15.55 8.71-20.02 11.87-26.75 18.86-7.03 7.3-10.42 13.83-16.06 30.87-4.31 13.01-8.4 23-9.76 23.85-1.61 1-22.1 1.74-22.1.8 0-.5 1.67-2.14 3.7-3.64 10.42-7.61 20.93-21.18 18.38-23.73-1.13-1.13-1.64-.64-8.11 7.75-3.5 4.53-11.7 11.68-15.49 13.5-1.7.83-2.75.33-8.3-3.94-3.48-2.68-7.9-6.87-9.82-9.3-3.27-4.16-6.56-5.81-6.56-3.28 0 3.5 10.72 15.57 17.25 19.4 4.74 2.79 3.68 3.93-3.5 3.78-3.48-.08-8.27-.37-10.64-.66z"/></g><g><path fill="#573313" d="M270.46 26.8c-1.36-4.08-5.1-8.58-8.7-10.48-1.47-.78-1.32-1.05 1.51-2.8 3.93-2.43 6.2-5.57 7.49-10.37 1-3.7 2.67-4.3 2.67-.97 0 3.38 3.55 8.72 7.41 11.18l3.85 2.43-2.99 1.43c-3.14 1.5-8.26 7.75-8.28 10.12-.01.76-.36 1.93-.77 2.59-.54.85-1.17-.06-2.2-3.13zM301.94 39.52c-1.15-3.21-2.36-4.84-4.59-6.15l-3.03-1.8 3.52-3c1.99-1.7 3.83-4.22 4.24-5.8.87-3.37 2.04-3.22 3.27.41.88 2.62 4.27 6.22 6.66 7.1.75.27-.14 1.55-2.52 3.62-2.5 2.18-3.87 4.18-4.25 6.24-.83 4.42-1.56 4.28-3.3-.62zM239.77 42.7c-2.2-5.85-3.06-7.31-5.36-9.22l-2.56-2.13 2.8-2.64a15.43 15.43 0 0 0 3.82-6.44c1.12-4.16 1.9-3.95 3.47.96a15.5 15.5 0 0 0 3.92 5.77l2.89 2.54-2.93 2.33a12.77 12.77 0 0 0-4.15 6.46c-1.02 3.4-1.36 3.81-1.9 2.38zM336.4 55.86c-1.32-5.86-3.93-9.87-8.29-12.7-3.01-1.96-3.18-2.26-1.72-3.06 4.12-2.26 9-8.14 10.06-12.1 1.3-4.82 2.36-4.84 3.77-.08 1.51 5.11 3.73 8.04 8.01 10.54l3.82 2.24-3.32 2.4c-5.28 3.83-7.84 7.47-8.93 12.7-.55 2.64-1.3 4.8-1.67 4.8-.37 0-1.15-2.13-1.73-4.74zM204.84 58.24c-1.73-8.05-6.94-15.97-10.5-15.97-2.2 0-1.35-1.44 2.38-4.03 3.57-2.47 7.69-9.3 7.7-12.78.02-2.6 1.6-1.68 2.23 1.3 1.04 4.92 4.15 9.47 8.04 11.75 2.04 1.2 3.72 2.44 3.72 2.76 0 .31-1.22 1.11-2.71 1.77-3.43 1.52-7.52 7.9-8.27 12.89-.7 4.6-1.87 5.66-2.6 2.31zM371.3 61.8c-2.4-3.05-2.28-6.03.34-8.65 4.29-4.3 10.95-1.94 10.95 3.86 0 6.5-7.46 9.66-11.29 4.8zM165.41 63.22c-2.2-.88-3.77-3.42-3.77-6.09 0-2.68 3.83-6.13 6.8-6.13 5.74 0 8.49 7.76 4 11.3-2.47 1.93-4.01 2.14-7.03.92z"/><path fill="#975b27" d="M388.42 83.1c3.21-8.23 3.95-9.43 6.54-10.78 4.9-2.53 9.47-.56 9.46 4.08 0 5.55-6 10.35-14.52 11.6l-3.6.54zM152.83 87.67c-7.75-1.3-12.01-4.72-12.74-10.19-.6-4.48 1.79-6.85 6.1-6.04 3.91.73 6.26 3.44 7.94 9.18.77 2.6 2.04 5.45 2.84 6.33.8.88 1.1 1.56.66 1.5-.43-.05-2.6-.4-4.8-.78z"/><path fill="#573313" d="M269.94 93.8c-2.04-8.5-7.95-14.68-16.4-17.14-5-1.45-5.27-2.42-.93-3.28 7.43-1.49 15.12-9.4 17.29-17.75.6-2.3 1.23-4.7 1.42-5.34.66-2.18 2-.11 2.97 4.6 1.66 7.97 7.76 14.67 16.34 17.92 2.3.88 4.02 1.93 3.81 2.34-.2.4-2.01 1.16-4.01 1.67-7.7 1.95-13.47 7.83-15.95 16.27-.82 2.79-1.94 5.07-2.5 5.07-.55 0-1.47-1.96-2.04-4.36z"/><path fill="#975b27" d="m414.65 112.3-5.06-1.52 5.92-3.03c5.01-2.57 6.8-3.03 11.61-3 3.13.01 7.23.34 9.11.72l3.42.69-5.44 3.57c-6.5 4.27-11.67 4.95-19.56 2.58z"/><path fill="#573313" d="M300.31 111.26c-1.5-3.5-3.69-5.62-6.75-6.56-2.08-.64-2.06-.69 1.17-2.34 2.34-1.2 3.8-2.82 5.01-5.57 1.78-4 3.38-5.07 3.38-2.24 0 2.46 3.4 6.28 6.92 7.77l3.12 1.32-3.5 1.5c-3.79 1.63-5.57 3.36-7.06 6.9l-.97 2.28zM241.72 110.53c-1.1-2.5-2.53-4-4.89-5.11l-3.32-1.58 3.15-1.75a12.03 12.03 0 0 0 4.87-5.46c.95-2.04 1.93-3.7 2.18-3.7.26 0 1.25 1.62 2.21 3.62a11.46 11.46 0 0 0 5.13 5.38l3.38 1.75-2.92.95c-2.58.85-4.21 2.6-7.35 7.92-.76 1.29-1.1 1-2.44-2.02z"/><path fill="#975b27" d="M110.62 110.24c-5.76-3.45-5.95-3.67-3.93-4.47 1.16-.47 5.26-.89 9.1-.94 6.28-.08 7.6.21 13.04 2.88l6.05 2.97-6.49 1.57c-9.4 2.26-10.95 2.08-17.77-2zM428.89 156.02c.01-2.51 4.09-10.5 5.81-11.39.88-.45 3.02-1.08 4.76-1.4 4.06-.73 5.43.84 5.43 6.2 0 3.3-.43 4.4-2.38 6.07-1.96 1.69-3.36 2.05-8 2.05-4.78 0-5.63-.23-5.62-1.53zM109.24 157.76c-4.52-.54-5.9-1.11-8.16-3.37-2.88-2.89-3.2-8-.62-10.33 2.2-2 7.86-1.15 10.4 1.57 1.75 1.85 4.5 8.35 4.5 10.62 0 1.22-2.78 1.9-6.12 1.5z"/><path fill="#573313" d="M450.3 219.93c-1.84-4.82-6.6-8.6-12-9.51-3.99-.68-4-.66 2.52-3.09 2.76-1.03 9.02-6.6 9.02-8.04 0-.41.62-2.21 1.38-4l1.38-3.25 1.72 4.53c2.09 5.52 6.4 9.52 11.7 10.85 4.13 1.04 5.25 2.51 1.94 2.55-2.8.02-8.62 2.88-10.87 5.33a22.02 22.02 0 0 0-3.29 5.36c-.75 1.8-1.5 3.26-1.67 3.26-.17 0-1-1.8-1.83-4zM89.35 219.6c-2.36-5.14-5.84-7.84-11.9-9.25L73 209.32l3.5-.99c7.35-2.07 11.99-6.64 13.19-13.01.72-3.82 1.82-3.58 2.96.67 1.62 6 5.84 9.72 14.41 12.66 1.45.5 1.13.8-1.82 1.69-7.18 2.18-12.59 7.2-12.59 11.67 0 3.08-1.18 2.22-3.3-2.41zM458.1 249.72c-1.18-1.18-2.15-3.16-2.15-4.4 0-3.15 3.64-6.55 6.99-6.55s6.99 3.4 6.99 6.55c0 3.14-3.64 6.55-7 6.55-1.7 0-3.48-.8-4.83-2.15zM76.25 250.5c-1.45-1-1.94-2.23-1.94-4.8 0-4.24 2.4-6.93 6.17-6.93 3.76 0 5.72 1.27 6.82 4.42 2.25 6.45-5.22 11.4-11.05 7.32z"/><path fill="#975b27" d="M441.68 282.43c-1.36-.42-4.28-2.16-6.47-3.87-2.2-1.71-4.62-3.13-5.38-3.14-2.58-.05.88-1.46 6.3-2.57 7.18-1.47 11.06-.53 18.57 4.55 3.6 2.43 6.42 4.5 6.3 4.6-.84.7-17.3 1.05-19.32.43zM88.29 282.7l-6.54-.35 7.28-4.74c9.58-6.23 12.17-6.66 23.1-3.8l3.33.86-3.1 2.1c-1.71 1.16-4.22 2.93-5.57 3.93-2.74 2.03-7.85 2.58-18.5 2zM102.85 323.16c6-10.33 10.78-12.76 22.61-11.5 4.79.52 5.54.81 4.68 1.85-.56.68-1.3 1.24-1.64 1.24-.35 0-2.33 1.57-4.42 3.5-4.17 3.85-7.1 4.85-15.92 5.48-4.23.3-5.72.14-5.3-.57zM434.77 323.92c-7.12-1.03-8.03-1.4-13.35-5.52-3.14-2.42-6.19-4.58-6.77-4.78-2.26-.81.47-1.74 6.34-2.16 7.9-.57 13.07 1.26 16.37 5.77a83.42 83.42 0 0 0 4.52 5.6c1.2 1.31 1.8 2.35 1.35 2.3-.45-.05-4.25-.6-8.46-1.2zM396.86 348.86c-1.51-.92-2.99-2.5-3.27-3.49l-1.05-3.68c-.5-1.76-.3-1.84 3.18-1.38 4.54.61 6.85 2.76 7.54 7.02.48 2.96.35 3.22-1.56 3.22-1.14 0-3.32-.76-4.84-1.69zM140.3 348.59c1.5-4.8 2.21-5.9 4.67-7.17 3.4-1.76 6.2-1.74 6.2.05 0 3.03-2.8 7.23-5.45 8.15-4.48 1.56-6.12 1.25-5.42-1.03zM381.53 385.24a289.93 289.93 0 0 0-6.37-5.34c-5.27-4.25-5.97-6.49-5.73-18.43l.12-6.12 1.94 2.62a72.02 72.02 0 0 0 6.08 6.66c2.28 2.22 4.74 5.46 5.47 7.2 1.2 2.87 2.92 16.3 2.08 16.25-.19-.01-1.8-1.29-3.59-2.84zM158.5 385.27c.25-1.56.7-4.8 1-7.19.7-5.35 2.85-9.68 6.54-13.12 1.55-1.44 3.91-4.1 5.25-5.92l2.43-3.3.62 5.73c1.18 11.03-.85 16.4-7.58 20.07-2.3 1.25-4.93 3.23-5.86 4.42-2.27 2.89-2.91 2.7-2.4-.7z"/><path fill="#573313" d="M334.56 402.08c-1.16-1.17-1.75-2.91-1.75-5.24 0-4.5 2.36-6.99 6.6-6.99 4 0 7.38 3.2 7.38 6.99 0 5.89-8.1 9.36-12.23 5.24zM200.71 402.73c-3.61-2.74-3.45-10.03.27-12.02a8.1 8.1 0 0 1 9.28 1.39c4.3 4.3.93 11.72-5.32 11.72-1.53 0-3.44-.49-4.23-1.09z"/></g><path fill="#573313" d="M269.3 459.95c-4.26-1.17-6.22-2.76-7.86-6.38-1.48-3.25-1.66-5.94-1.67-25.18l-.02-21.54-13.89-.29c-17.76-.38-17.55-.24-17.55-11.75 0-11.94.97-12.53 20.74-12.55l10.7-.01v-15.58l-5.9-.58c-33.74-3.33-64.9-17.56-88.66-40.51-28.16-27.22-43.36-60.5-44.89-98.35-1.33-32.88 6.79-63.09 23.93-89.07 19.1-28.96 45.7-50 79.08-62.51 7.15-2.68 7.77-2.78 9.12-1.43 1.76 1.76 2.07 1.47-5.53 5.27-19.7 9.86-38.3 32.29-47.87 57.71-5.17 13.72-7.73 37.04-5.78 52.55 2.07 16.46 8.73 33.7 18.99 49.16 12.75 19.22 34.89 34.02 58.35 38.99 9.63 2.04 30.54 2.08 40.92.08 34.48-6.66 61.21-30.6 73.7-66.03 7.32-20.73 7.33-47.64.03-70.74-8.3-26.26-28.3-51.25-49.65-62.03-5.85-2.95-6.55-3.73-4.7-5.25 1.1-.92 2.66-.61 8.93 1.75 11.2 4.22 28.64 13.3 37.45 19.48 11.24 7.9 34.4 31.26 41.23 41.6 10.43 15.74 18.3 35.54 22.1 55.54 2.88 15.2 2.89 41.08.01 55.31-7.65 37.82-27.49 69.08-57.81 91.06-19.72 14.3-47.31 24.77-70.09 26.6l-7.64.63v16.35l11.14.05c17.44.07 19.4 1.4 19.41 13.17.01 5.28-.33 7.1-1.65 8.73-1.61 2-2.13 2.07-15.5 2.25l-13.84.19-.43 22.08c-.38 18.94-.66 22.49-1.98 24.91-2.54 4.64-8.48 7.54-12.92 6.32zm8.28-116.55c5.27-5.27 5.3-11.86.13-22.94-2.56-5.47-3.2-7.94-3.36-12.88l-.2-6.11 8.12-.78c9.2-.88 8.81-1.08 12.92 6.76 2.62 4.98 3.66 14.08 2.23 19.36-.52 1.93-2.34 5.81-4.03 8.62-3.24 5.37-3.68 7.04-2.14 8 1.53.94 5.05-3.07 8.05-9.16 2.56-5.2 2.8-6.41 2.8-14 0-7.78-.2-8.76-3.2-15.02l-3.2-6.7 6.26-1.4c3.44-.76 10.77-3.34 16.3-5.73 5.52-2.4 10.54-4.35 11.14-4.36.6 0 2.88.83 5.05 1.85 5.03 2.37 7.8 7 9.03 15.15.9 5.93 2.63 9.43 5.58 11.3 1.04.65 1.75.63 2.47-.1.76-.75.53-1.65-.9-3.66-1.04-1.47-2.28-5.13-2.75-8.15a71.78 71.78 0 0 0-1.74-8.2c-1.12-3.5-6.38-8.76-10.12-10.11-1.6-.58-2.91-1.27-2.91-1.53 0-.27 3.29-2.55 7.3-5.07l7.31-4.58 4.6.87c5.18.98 8.85 3 12.6 6.93l2.57 2.68h-2.56c-4.16.03-5.16 1.17-4.96 5.7.26 5.9 3.17 10.54 7.7 12.27 6.13 2.34 9.97.34 9.97-5.2 0-2.6-.79-4.78-2.9-7.96-1.6-2.41-3.96-6.05-5.25-8.09-2.77-4.38-10.1-9.46-14.9-10.33l-3.4-.61 4.71-4.31 4.71-4.31 7.53.28c7.5.28 7.55.3 11.55 4 4.68 4.31 8.9 5.1 14.74 2.73 7.28-2.94-.07-12.84-10.17-13.68-3.85-.32-4.9-.08-6.3 1.43-1.5 1.61-2.36 1.75-7.9 1.28l-6.21-.52 2.92-4.56c1.6-2.51 3.97-6.49 5.26-8.84 3.4-6.21 7.1-9.7 11.96-11.32 4.03-1.34 4.5-1.33 7.74.12 10.5 4.74 20.75-2.12 12.96-8.67-5.35-4.5-13.73-4-15.2.9-.66 2.26-1.35 2.8-3.92 3.18-1.72.24-3.88.74-4.8 1.12-1.42.56-1.57.4-.99-1.01.39-.92 1.82-5.76 3.18-10.74s3.07-9.96 3.8-11.06c.72-1.1 3.3-3.1 5.73-4.42 2.43-1.32 5.19-3.65 6.14-5.19 2.09-3.38 2.28-9.89.4-13.53-1.31-2.52-6.9-6.08-9.56-6.08-1.95 0-1.74-5.41.38-9.56 4.04-7.93 2.86-14.48-3.6-20.01-1.98-1.7-4.16-4.43-4.85-6.1-1.13-2.7-1.4-2.87-2.6-1.67-2.3 2.3-.64 6.7 4.29 11.29 3.88 3.62 4.36 4.47 4.32 7.6a23.67 23.67 0 0 1-1.85 7.6 23.51 23.51 0 0 0-1.8 9.47v5.4h3c4.14 0 7.14 1.8 8.8 5.3 2.34 4.93.29 8.6-6.81 12.2-5.04 2.56-7.01 5.57-8.98 13.76a105.43 105.43 0 0 1-30.19 52.45c-16.1 15.33-34.82 25.31-55.95 29.84-10.2 2.19-34.97 2.22-45.03.07-20.25-4.34-38.17-13.64-54.15-28.09-12.49-11.29-25.85-34.27-30.43-52.35-2.74-10.79-4.5-13.47-10.9-16.72-4.56-2.31-6.03-4.22-6.03-7.82 0-5.11 3.17-8.23 8.4-8.27 3.33-.02 3.65-.23 4.15-2.76 1.07-5.33.57-8.62-1.85-12.29-2.94-4.44-3.27-10.04-.74-12.83.91-1.01 2.12-1.84 2.68-1.84 2.24 0 4.9-4.13 5.08-7.87.24-4.99-1.56-5.5-3.37-.97-.88 2.2-2.51 4.17-4.32 5.24-6.58 3.88-7.9 10.85-3.7 19.4 1.32 2.7 2.4 5.9 2.4 7.11 0 1.84-.52 2.32-3.03 2.8-6.5 1.21-10.98 8.04-9.7 14.81.76 4.07 3.39 7.04 8.8 9.96 4.72 2.56 4.3 1.76 9.44 18.08 1.21 3.84 2.48 7.68 2.81 8.53.54 1.36.34 1.44-1.73.65a18.09 18.09 0 0 0-5.34-.89c-2.59 0-3-.28-3-2.12 0-1.27-.96-2.88-2.4-4.01-1.98-1.57-3.23-1.83-7.13-1.51-3.98.33-5.13.84-7.26 3.21-3 3.36-2.89 5.77.39 8.2 2.95 2.2 8.84 2.33 12.94.28 3.28-1.64 5.77-1.37 11.72 1.26 2.87 1.27 4.45 2.87 7.04 7.12a237 237 0 0 0 7.18 10.9l3.83 5.42-7.26.25c-5.21.19-7.51-.06-8.16-.9-1.54-1.95-7.87-2.29-12.18-.64-6.38 2.43-10.45 9-7.22 11.65 1.9 1.56 8.56 2.94 11.3 2.34 1.44-.32 4.2-2.2 6.14-4.2l3.52-3.62 8.4-.29 8.41-.28 3.74 3.84 3.75 3.84-5.28 1.47c-6.08 1.7-10.8 5.8-14.44 12.56-1.23 2.3-3 5.36-3.91 6.8a19.49 19.49 0 0 0-2.24 6.19c-.77 4.8.93 6.47 6.54 6.47 6.56 0 9.33-2.92 11.27-11.92 1.02-4.7.15-5.94-4.19-5.94-1.94 0-3.54-.3-3.54-.66 0-1.84 7.75-8.45 10.92-9.33 6.79-1.86 9.23-1.31 16.37 3.66l6.64 4.62-3.97 2.1c-5.4 2.87-7.8 6.85-9.48 15.74-.77 4.08-2.2 8.72-3.2 10.31-2.1 3.42-1.16 5.3 1.83 3.7 2.7-1.44 4.42-5.39 5.82-13.36 1.43-8.14 3.54-11.07 9.65-13.4l3.72-1.42 10.4 4.46c5.7 2.45 10.8 4.46 11.32 4.46.51 0 3.5.79 6.63 1.76l5.7 1.76-2.54 5c-4.76 9.41-5.06 21.58-.74 30.5 3.49 7.2 7.94 11.02 9.16 7.86.24-.63-.94-3.44-2.62-6.23-4.39-7.28-5.13-10.18-4.68-18.27.32-5.8.9-8.11 3.23-12.67l2.84-5.58 5.3.55c2.9.3 6.8.56 8.66.56h3.36v6.5c0 5.8-.35 7.18-3.2 12.64-5.22 10-4.95 19.3.7 24.06 3.74 3.14 7 2.89 10.73-.83zm-56.24-12.9c4.6-3.1 5.64-7.5 4.02-16.88-.72-4.17-1.65-7.93-2.06-8.34-1.59-1.59-8.88 6.3-12.76 13.83-4.7 9.09 2.7 16.89 10.8 11.4zm110.5-.17c2.55-2.56 2.84-7.04.72-11.22-2.4-4.73-10.03-14.59-11.29-14.59-1.54 0-2.96 5.01-3.6 12.73-.4 4.87-.19 6.86 1.03 9.42 2.73 5.76 9.22 7.57 13.13 3.66z"/><g><g fill="#975b27"><path d="M271.36 118.9a21.05 21.05 0 0 1 4.82 12.85 21.09 21.09 0 0 1-4.97 14.04 22.36 22.36 0 0 1-4.46-14.19c.18-4.57 1.81-9.08 4.6-12.7zM295.66 123.15c1.58 4.39 1.63 9.3.15 13.73a21.09 21.09 0 0 1-9.48 11.48 22.36 22.36 0 0 1 .66-14.85 22.32 22.32 0 0 1 8.67-10.36zM317.05 135.46a21.06 21.06 0 0 1-4.56 12.94 21.09 21.09 0 0 1-12.83 7.56 22.36 22.36 0 0 1 5.7-13.73c3.07-3.4 7.22-5.8 11.7-6.77zM332.94 154.34a21.05 21.05 0 0 1-8.71 10.6 21.09 21.09 0 0 1-14.65 2.71 22.36 22.36 0 0 1 10.06-10.95 22.32 22.32 0 0 1 13.3-2.36zM341.42 177.51a21.05 21.05 0 0 1-11.82 6.99c-4.97 1-10.3.1-14.69-2.47a22.36 22.36 0 0 1 13.2-6.85c4.53-.62 9.25.2 13.3 2.33zM341.45 202.19a21.05 21.05 0 0 1-13.49 2.52 21.09 21.09 0 0 1-12.96-7.34c4.5-2.3 9.8-2.99 14.75-1.92 4.47.96 8.62 3.35 11.7 6.74zM333.05 225.39c-4.6.79-9.45-.02-13.54-2.25a21.09 21.09 0 0 1-9.67-11.33c5.02-.62 10.23.55 14.51 3.24a22.32 22.32 0 0 1 8.7 10.34zM317.22 244.31a21.05 21.05 0 0 1-11.96-6.74 21.09 21.09 0 0 1-5.21-13.95 22.36 22.36 0 0 1 12.53 8 22.32 22.32 0 0 1 4.64 12.7zM295.86 256.68a21.05 21.05 0 0 1-8.93-10.42 21.09 21.09 0 0 1-.12-14.9c4.24 2.76 7.5 7 9.04 11.81 1.4 4.36 1.4 9.15.02 13.51zM271.57 261a21.05 21.05 0 0 1-4.83-12.84 21.09 21.09 0 0 1 4.98-14.04 22.36 22.36 0 0 1 4.46 14.18 22.32 22.32 0 0 1-4.61 12.7zM247.26 256.76a21.05 21.05 0 0 1-.14-13.73 21.09 21.09 0 0 1 9.48-11.49 22.36 22.36 0 0 1-.67 14.86 22.32 22.32 0 0 1-8.67 10.36zM225.87 244.45c.02-4.66 1.66-9.3 4.57-12.95a21.09 21.09 0 0 1 12.83-7.55 22.36 22.36 0 0 1-5.7 13.73 22.32 22.32 0 0 1-11.7 6.77zM209.98 225.57a21.05 21.05 0 0 1 8.72-10.6 21.09 21.09 0 0 1 14.64-2.71 22.36 22.36 0 0 1-10.05 10.95 22.32 22.32 0 0 1-13.3 2.36zM201.51 202.4a21.05 21.05 0 0 1 11.82-6.99c4.97-1 10.3-.1 14.68 2.46a22.36 22.36 0 0 1-13.2 6.86c-4.53.62-9.25-.2-13.3-2.33zM201.47 177.72a21.05 21.05 0 0 1 13.5-2.52c5.01.76 9.72 3.42 12.96 7.34-4.5 2.3-9.8 2.99-14.75 1.92a22.32 22.32 0 0 1-11.7-6.74zM209.88 154.52c4.6-.8 9.45.01 13.54 2.24a21.09 21.09 0 0 1 9.67 11.33 22.36 22.36 0 0 1-14.52-3.23 22.32 22.32 0 0 1-8.7-10.34zM225.71 135.6c4.59.82 8.88 3.24 11.96 6.73a21.09 21.09 0 0 1 5.2 13.95 22.36 22.36 0 0 1-12.52-8 22.32 22.32 0 0 1-4.64-12.69zM247.06 123.22a21.05 21.05 0 0 1 8.93 10.43 21.09 21.09 0 0 1 .13 14.89c-4.24-2.75-7.5-7-9.04-11.8a22.33 22.33 0 0 1-.02-13.52z"/></g><path fill="#573313" d="M271.46 141.12a48.63 48.83 0 0 0-48.62 48.83 48.63 48.83 0 0 0 48.62 48.84 48.63 48.83 0 0 0 48.63-48.84 48.63 48.83 0 0 0-48.63-48.83zm0 9.49a39.18 39.35 0 0 1 39.18 39.34 39.18 39.35 0 0 1-39.18 39.35 39.18 39.35 0 0 1-39.17-39.35 39.18 39.35 0 0 1 39.17-39.34z"/><path fill="#573313" d="M271.46 162.43a27.4 27.52 0 0 0-27.4 27.52 27.4 27.52 0 0 0 27.4 27.52 27.4 27.52 0 0 0 27.4-27.52 27.4 27.52 0 0 0-27.4-27.52zm-10.42 8.1a4.53 6.06 45.73 0 1 2.76 1.2 4.53 6.06 45.73 0 1-1.42 7.51 4.53 6.06 45.73 0 1-7.46.76 4.53 6.06 45.73 0 1 1.41-7.5 4.53 6.06 45.73 0 1 4.7-1.96zM252.19 182a2.58 2.58 0 0 1 2.58 2.59 2.58 2.58 0 0 1-2.58 2.58 2.58 2.58 0 0 1-2.58-2.58 2.58 2.58 0 0 1 2.58-2.59z"/></g></g></g></svg>